<?xml version="1.0" encoding="utf-8"?>
<!-- Generator: Adobe Illustrator 26.3.1, SVG Export Plug-In . SVG Version: 6.00 Build 0)  -->
<svg version="1.1" id="Layer_1" xmlns="http://www.w3.org/2000/svg" xmlns:xlink="http://www.w3.org/1999/xlink" x="0px" y="0px"
	 viewBox="0 0 1928.5 289.9" preserveAspectRatio="none" style="enable-background:new 0 0 1928.5 289.9;" xml:space="preserve">
<style type="text/css">
	.st0{fill:#006ABA;}
</style>
<g>
	<path class="st0" d="M1926.3,211.4c-3-79.9-2.8-123.2-1.2-152.4c-15.2,3-15.8-5.7-27.7-7.4c-0.6-0.7-1.1-1.4-1.7-2.1
		c9.9,0.4,19.9,0.9,29.8,1.4c0.1-1.7,0.2-3.4,0.4-5.1c-14-3-28.3-5.9-42.6-8.3c-8.5-2.7-14.6-3.5-19.5-3
		c-20.1-2.8-40.2-4.6-59.8-4.9c2.3-11.7,5.7-23.4-33.5-23.3c-6.1-1-12.7-0.9-19.2,0c1.3-2.4,2.7-4.7,5.1-6.5h-18.6
		c-9.7,4.9-17.1,10.9-15.9,16.5c-9.6,5.5-16.1,12.2-16,18c-32.6-13.9-74.1,2.5-97.5-13.7c-2.5,2.2-5.1,4.2-7.7,5.9
		c-7.4-0.4-12.3,0.1-12.7,1.5c-13.4,3.3-26.9,6.1-40.6,8.6c-37.1-3.9-77.1-19.6-115,5.5c-30.6-1.6-58,2.3-84.8,8.5
		c-64.4-0.8-130.6-5.3-198-10.1c-74.3-4.7-276.1-10.1-352.2-17.2c-11-0.9-22-1.7-33.2-2.4c18.5,2.2,18.5,2.2,36.9,4.4
		c-46.4,6.5-88.5,12.9-129.2,17.1c7.2,3.5,8.4,6.9,25.5,11.8l-20.8-2.3c-3,1.6-6.6,2.9-10.6,4c-17.1,1-33.7,1.6-48-0.3
		c-4.6,3.9-9.7,6.8-15.2,8.8c-3.4,0.4-6.6,0.9-9.3,1.5c4.4-5.3-11.8-6.4-26-7.2l5.6,3.5c-54.2-2.2-117,2.1-165.4,1.5
		c-6.7,0-11.8-2-14.9-3.8L346.2,64c3.4-6.9-35.2-6.3-18.7-10.2c-34,7.7-68.4,3-100.8,11.5C164.2,65.8,99.4,67.6,34.2,71
		C26.8,64.5,16,59,0.7,56c0.5,56.3,0.8,112.5,0.8,168.2L0,242.7c3.8-2.5,8.3-4.9,15.5-5.6c-5.2,3.1-2.5,5.7-1.2,8.7
		c9.1-3.4,14.6,1.7,24.1,3.2c-11.3-3.5,6.8-6.9-1.3-8.8c-1.1-6.4,18.3-6.9,28.3-6.3c6.6,8.1-30.3,5.2-14.7,13.3c10,0.5,12-4.2,5-5.6
		c12.5,0.7,31.4,1.1,40.8,6c14.3-6.6,20.5-3.3,29.3-11.6c-7.9,0.6-7.9,6.4-18.1,3.4l10.4-6.3c14.3-0.7,26.2,4.3,36.2,4.8l-10.2,2.9
		l0.4-1c-3.7,2.7-17.3,1.5-15.4,6c8.9-5.8,16.8-0.6,28.9-4.8l-0.4,1c21.4-5.2,38.5,8.3,51.3-3.7c-3.9,0.3-12.3-4-10-6.3
		c5.2,2.7,18.5,1.4,18.3,4.8l-4.4,1.2c12.5,0.6,20,1,24.3-0.2c1.5-2.1,1.4-3.9,1.9-5.4c3.4,1.2,6.7,2.5,10,3.8
		c-1.8,1.9-2.3,3.6,3.2,4.8l5.3-1.3c21.3,8.8,41.6,16.4,64.6-0.2l-4.8,8.1c-27,11.4,8.7,30.3,27.8,29.9l15-7.2
		c23.7-32.9,94.5-12,142-21.7c10.2,0.9,14.3,7.5,5.4,8.9l52.1,14c14.9-31.5,38.2-0.9,69.2-5.7c21.3-13,27.8-26.2,56.2-35.3
		c72.1,23,114.9-10.3,179.5,16.4c5.7-13.3,20.8-21,27.4-30c24.3-1.5,48.8-2.7,75.4-4.2c36.1,10.6,71.6,20.9,108.8,25.2
		c4.5-3.7,9.4-7,13.8-10.8c2.4-7.1,6-15.3,10.1-24.1c6-1.5,11.5-3.5,7.9-6.1c-1.9-0.1-3.3-0.5-4.5-1.1c1.4-3,2.9-6.1,4.4-9.3
		c16.4-1.2,8.3,8.5,24.7,6.8c6.7,8.1-11.4,5.7-10.8,13.1l26.8-5.9c15.6,2.2,30.5-2.8,44.3,0.8c-6-0.8-1.4,6.2-11.6,3.3
		c1.5-0.4,0.4-0.9,1.9-1.4c-21.3-0.2-13.4,3.7-28.5,6.1c17.2-2.3,39.1-4.5,54-3.3c-4-5.5,12.7-2.7,16.8-6.4l1,0.5
		c-0.2-2.4,9.5-4.4,12.5-5.2l4.6,7.1c6.9-1.1-2.3-3.5,4.6-4.6c6.7-1.3,25.6-2.5,37.7-0.6c57,41.3,130.3,74.1,209.9,93.2
		c15.6-8.9,31.9-17.5,50.2-24.3l51.2,20.8c51-0.1,111.2-7.2,143.4-37.6c9.3,4.6,9.4,9.3,18.7,13.9c18.4-9.4,55.7-0.2,74-16.5
		c23.3,9.2,23.4,23.2,37.5,37.2c18-5,37.8-3.6,58.1-0.7C1928.3,255,1927.7,229.6,1926.3,211.4z"/>
	<path class="st0" d="M71.2,193.8c0.4-0.4,0.5-0.7,0.6-1c0.5,0,1.1,0,1.7-0.1C72.7,193,71.9,193.4,71.2,193.8z"/>
	<path class="st0" d="M1838.3,48.8l-7.5-0.4c2.7,0,5.5,0,8.2,0C1838.8,48.5,1838.5,48.6,1838.3,48.8z"/>
</g>
</svg>
