<?xml version="1.0" encoding="UTF-8"?>
<svg id="Layer_1" data-name="Layer 1" xmlns="http://www.w3.org/2000/svg" viewBox="0 0 800 150">
  <defs>
    <style>
      .cls-1 {
        fill: #fff;
      }

      .cls-2 {
        fill: #87bd3b;
      }

      .cls-3 {
        fill: #f59c0e;
      }

      .cls-4 {
        fill: #009dde;
      }

      .cls-5 {
        fill: #006bb5;
      }

      .cls-6 {
        fill: #e83c3a;
      }

      .cls-7 {
        fill: #f9e911;
      }

      .cls-8 {
        fill: #904493;
      }
    </style>
  </defs>
  <path class="cls-6" d="m62.62,8.58s-.03,0-.05,0c-.1.07-.23.19-.23.29.11-.08.21-.17.27-.28Zm2.19,10.79c-.1-.11-.2-.21-.31-.29-.1-.07-.22-.13-.32-.13.46.58.79.7,1.3,1.14-.26-.22-.47-.5-.67-.72Zm17.08,9.1c-1.3-2.29-2.69-4.39-3.88-5.83l.05-.22c-.97-1.3-2.12-2.8-3.36-4.33-1.24-1.53-2.58-3.1-3.9-4.57-.08-.09-.16-.18-.25-.28-.09-.1-.19-.19-.28-.29-.09-.1-.18-.19-.28-.29-.1-.09-.19-.18-.29-.27-.19-.18-.38-.36-.58-.52-.2-.16-.39-.34-.59-.48-.8-.62-1.62-1.13-2.41-1.53-.2-.1-.39-.2-.59-.29-.19-.09-.38-.18-.57-.25-.16-.06-.32-.12-.47-.18-.5-.04-1.02-.15-1.41-.2l.18-.2s-.02,0-.03,0l-.72.31c-.12-.05-.15-.1-.15-.17-.87.55-3.08.02-4.73.34,0,.87,1.64.03,2.44.13.22.2,1.75.57,1.01,1.17-2.06,0-3.49,1.05-5.83,1.02l.74.26c-.74.61-1.75.3-2.86.34-2.02-.6,1.48-1.21.26-1.71.79-.77,2.17.1,2.38-1l-1.07-1.02c-.35.08-.7.17-1.05.28-.77.23-1.52.52-2.25.86l.19.48c1.16.24,1.96-.97,2.81-.17-1.77.38-1.67,1.25-3.18,1.51-.13.07-.25.14-.38.22-.02.01-.05.03-.07.04-.16.1-.33.2-.49.31-.01,0-.03.02-.04.03-.15.1-.31.21-.46.32-.01.01-.03.02-.04.03-.15.11-.3.23-.45.34-.03.02-.05.04-.08.06-.15.12-.3.24-.44.36-.01,0-.02.02-.03.03-.14.12-.27.24-.4.36-.02.02-.05.04-.07.07-.13.13-.27.26-.4.39-.03.03-.05.05-.08.08-.13.14-.26.28-.39.42-.16.18-.32.36-.48.54-.05.05-.1.11-.14.16-.11.13-.23.26-.34.39-.05.06-.11.12-.16.18-.12.13-.23.27-.35.4-.05.05-.09.11-.14.16-.15.17-.29.35-.44.52-.01.02-.03.03-.04.05-.17.2-.34.41-.51.61,0,.01-.02.02-.03.03-.16.19-.31.38-.47.57-.03.04-.06.07-.09.11-.14.18-.29.35-.43.53-.03.03-.05.06-.08.1-.16.21-.33.41-.49.62,0,0,0,0,0,0-.52.66-1.05,1.35-1.57,2.04,0,0-.01.02-.02.02-.87,1.16-1.73,2.37-2.58,3.62-.06.08-.12.16-.18.24-.74,1.01-1.47,2.03-2.17,3.07,2.15-3.87,5.22-8.04,8.71-11.97.44-.49.88-.98,1.32-1.47.45-.48.89-.98,1.39-1.42.48-.46,1.01-.86,1.55-1.24.51-.34,1.02-.67,1.56-.94-.25.04-.53.07-.88.07-.11-.54.48-.2.74-.6-.71-.31-1.45.4-2.47.4-.81.61-1.57,1.29-2.25,2.04-.13.14-.23.26-.35.39l-.33.38c-.22.25-.44.51-.66.77-.44.51-.88,1.03-1.31,1.55-.86,1.05-1.71,2.12-2.54,3.21-1.65,2.18-3.23,4.44-4.69,6.78-1.32,2.11-2.56,4.29-3.69,6.53,1.06-.21,1.79-.51,2.29-.79-1.04.15-1.13-.07-.94-.48,2.38-.14,1.72.89,3.98.17.6.82-2.51.41-2.29,1.21,1.84.05,3.08-.21,4.39-.54,0,0,.01-.02.02-.03.09-.15.18-.3.26-.45.06-.1.12-.21.18-.31.1-.17.2-.33.3-.5.05-.08.1-.17.15-.25.15-.25.31-.5.46-.74.32-.06.65-.12.97-.18-.14.03-.28.06-.43.09-.17.03-.34.07-.51.11-.1.14-.18.3-.27.45-.18.31-.35.61-.51.89-.18.33-.34.62-.46.87.13-.03.27-.07.4-.1.19.29-.25.29-.5.32-.02.04-.03.08-.05.11.06.03.16.07.3.12.18-.02.36-.04.55-.06.21-.19.27-.17.23-.03.24-.03.48-.06.73-.09,0,0,0-.01.01-.02.14-.2.27-.4.41-.59l.1-.15.05-.07v-.02s.01,0,.01,0h0s.02-.02.03-.03c.02-.02.02-.04.06-.04.03-.01.06-.03.1-.05-.02,0,.11-.04.19-.07.09-.03.17-.06.25-.09l.08.16c1.14-.29,2.68-.54,4.11-.74,1.42-.21,2.73-.37,3.39-.57,1.9-.09,3.84-.16,5.81-.2,1.96-.04,3.98-.05,5.99,0,2.02.04,4.05.13,6.07.29,1.01.08,2.02.17,3.02.29.5.06,1,.12,1.5.19.33.05.66.1.99.14.05.01.04.1.05.14,0,.05.01.1.01.15v.07s0,0,0,.02l.02.05v.03c.66-.03,1.33-.05,2.02-.07,3.78.78,1.39-.95,4.77-.97-.06-.11-.13-.23-.19-.34-.04-.07-.08-.13-.11-.2-.33-.57-.66-1.13-1-1.68-.04-.06-.08-.13-.12-.19-.15-.24-.3-.48-.44-.71-.02-.04-.05-.08-.07-.12-.17-.27-.35-.55-.52-.82-.03-.05-.06-.09-.09-.14-.15-.23-.3-.46-.45-.68-.04-.06-.07-.11-.11-.17-.18-.27-.36-.53-.54-.8.19.26.38.54.57.82,1.05,1.52,2.12,3.22,3,4.72.06.1.12.2.18.3.07,0,.14,0,.22,0,.01.76.91.91,2.07.84-.5-.97-1.02-1.95-1.56-2.9Zm-21-13.73s.06.02.09.03c.11.03.23.07.34.1.05.02.1.03.15.05.11.04.23.08.34.12.03.01.06.02.08.03.13.05.27.11.4.17.05.02.09.04.14.06.1.05.21.1.31.15.03.02.07.03.1.05.13.07.26.14.38.21.04.02.08.04.11.07.1.06.2.12.3.18.03.02.07.04.1.07.12.08.25.17.37.25.03.02.06.04.09.06.1.07.19.15.29.22.03.03.06.05.1.08.12.1.23.19.34.3.02.02.03.03.05.05.1.09.2.18.29.28.03.03.06.06.09.09.11.11.22.22.32.34.2.23.41.46.61.69.07.09.15.17.23.26.13.15.26.29.38.44.09.11.18.21.28.32.12.14.23.27.35.41.09.11.19.22.28.33,0,0,0,0,0,0-.49-.46-1.09-1.21-1.13-.64-.3-.36-.61-.74-.94-1.14-.34-.41-.67-.79-1.06-1.15-.78-.71-1.73-1.27-2.68-1.52-.05-.33-.72-.42-.91-.61.13-.07.03-.17-.1-.28-.02-.02-.05-.04-.07-.06h0Zm-10.94,14.3c-1.62.14-3.7.47-5.26.6,0,0,0,0,0,0,.44-.06.87-.13,1.31-.19,0,0,.02,0,.03,0,.87-.12,1.74-.22,2.61-.31.04,0,.08,0,.13-.01.43-.04.85-.08,1.28-.12-.04.01-.08.02-.1.04Zm7.76-.21c-1.02-.05-2.05-.1-3.07-.11.4-.02.79-.03,1.19-.04.04,0,.09,0,.13,0,.41-.01.82-.02,1.23-.02.16,0,.32,0,.48,0,.23,0,.45,0,.68,0,.19,0,.38,0,.57,0,.15,0,.3,0,.44,0,0,0,.01,0,.02,0,.52,0,1.03.02,1.54.03.27,0,.55.01.82.02,0,0,0,0,0,0,.51.08,1.01.16,1.52.25-1.66.1-3.59-.01-5.56-.12Zm10.15-6.18c-.09.03-.2.07-.39.11-.09.02-.2.03-.33.04-.06,0-.13,0-.19,0h-.1s-.01,0-.08,0h-.14s-.48-.32-.48-.32c-1.49-.22-1.16.25-1.85.36-.16-.06-.09-.2-.17-.29-.77.08.25.2-.06.31-.78-.03-1.78.09-2.27-.2l-.27.56c.32.17.61.38.8.6-.4-.01-.8-.03-1.2-.04-.24-.15-.6-.31-.21-.46-1.66-.31-1.5-.31-2.35-.92-1.01.1-.72.51-1.01.74-1.06.25-1.91-.28-2.83-.12.34-.38-.05-.51-.67-.53-.62-.02-1.45.07-2,.11-1.42.06-.43.68-1.92.73-.77-.29,1.47-.59.46-.89l-.68.2-.08.06s-.01.04-.02.06c-.01.04-.03.08-.05.12-.04.08-.09.17-.16.25-.13.17-.31.33-.55.45-.22.03-.56.07-.46-.05.51-.17.49-.45.44-.6-.24.14-.31.18-.52.31-.08.18-.12.28-.2.34-.08.06-.2.09-.34.1-.14.01-.31,0-.49.02-.18.01-.38.04-.64.11-.05.01-.09.03-.14.04-.02,0-.01,0-.01,0h0s0-.02,0-.02c-.01-.02-.04-.03-.08-.03-.03-.1.01-.24.08-.36.07-.13.18-.25.29-.36.23-.22.52-.38.8-.51.28-.13.55-.24.76-.35.1-.06.19-.11.26-.18.07-.07.12-.15.17-.28-.45,0-.44-.15-.13-.58.36-.5.89-1.11,1.06-1.5.47-.52.78-.58,1.26-.8.07-.19.4-.62.35-.77-.21-.07-.47-.1-.76-.08.1-.11.2-.23.3-.34,1.86-2.08,4.53-3.28,7.32-3.28.14,0,.27,0,.4.01.07,0,.14,0,.22.01,0,0,0,0,0,0-.83.01-1.67.09-2.5.27-1.37.3-2.7.91-3.66,1.85-.1.19-.2.35-.3.49-.1.15-.2.27-.31.38-.1.12-.21.23-.32.35-.11.12-.21.25-.32.39.48-.23,1.04-.54,1.66-.84.62-.3,1.29-.58,1.96-.79.2-.22.23-.32.15-.36-.09-.04-.28,0-.5.05-.44.12-.95.38-.94.28-.14-.08.18-.23.4-.42.31-.11.64-.18.9-.19.26,0,.46.06.51.19.09-.13.19-.25.29-.38.64-.18,1.34-.22,2.05-.17.71.05,1.44.18,2.19.38-.49.17-.66.15-1.33-.06-.29.22-.35.34-.3.36.03.02.09.01.17,0,.08,0,.18-.02.3-.04.12-.02.25-.03.38-.04.07,0,.13,0,.2,0,.07,0,.13.01.2.02.26.03.47.14.55.32-.03-.22.65,0,1.01.14-.08-.11-.17-.2-.26-.3-.18,0-.36,0-.54.01-.48-.24-.44-.36-.25-.45.19-.1.53-.12.58-.18.75.19,1.05.57,1.33.93.14.19.28.37.46.57.09.09.2.2.32.3.13.1.26.21.43.32.16-.12-.05-.28.14-.35.22.1.33.12.46.16.14.05.28.14.53.44.04.1.09.18.15.26.03.04.06.07.09.11.03.04.07.08.11.11.15.14.31.27.48.39.34.25.7.51.94.98-.03.59-.93-.67-1.03-.35l.19.46c.38.38.57,1.16,1.06,1.3l-.12.12c.15.11.31.26.47.42l.06.06h.01s0,.02,0,.02h0s.02,0,.02.01l.05.03c.08.04.17.08.4.13,0,.1.03.17.09.25.03.04.07.09.11.14l.08.08s.08.07.05.07Zm1.41-.67c-.33-.41-.78-.85-1.02-1.29.16.2.32.39.48.59.03.04.07.08.1.12.16.2.32.4.49.6-.02-.01-.04-.02-.05-.02Zm1.43,2.44s-.05-.02-.08-.03l-.74-.25c.09-.08.29-.08.6-.03h.08s.04.02.04.02c0,0,0-.02-.01-.02-.02-.03-.03-.06-.05-.09-.03-.06-.05-.12-.07-.18-.04-.13-.09-.26-.13-.39-.03-.09-.07-.19-.12-.3.16.2.31.41.47.61.18.24.37.48.55.73-.18-.02-.36-.04-.54-.06Zm1.46-6.71s-.02-.03-.03-.04c-.17-.21-.35-.42-.52-.63-.01-.02-.03-.03-.04-.05-.36-.43-.71-.84-1.07-1.25-.04-.05-.08-.1-.12-.14-.13-.15-.26-.3-.4-.45-.05-.05-.09-.11-.14-.16-.17-.19-.34-.38-.5-.57-.1-.11-.19-.21-.29-.32-.03-.03-.06-.06-.09-.1-.07-.07-.14-.14-.21-.21-.04-.04-.07-.07-.11-.11-.07-.06-.13-.13-.2-.19-.04-.04-.08-.07-.11-.1-.07-.07-.14-.13-.21-.19-.03-.03-.07-.06-.1-.09-.08-.07-.17-.14-.25-.21-.02-.02-.05-.04-.07-.06-.23-.18-.46-.36-.69-.53-.01-.01-.03-.02-.04-.03-.1-.07-.21-.15-.31-.22-.02-.02-.05-.03-.07-.05-.1-.07-.2-.13-.3-.19-.02-.01-.05-.03-.07-.04-.11-.07-.21-.13-.32-.2-.02,0-.03-.02-.05-.03-.51-.3-1.04-.57-1.58-.81,0,0,0,0-.01,0-.13-.06-.26-.11-.4-.17,0,0-.01,0-.02,0-.14-.05-.27-.11-.41-.16,0,0,0,0,0,0,.1.03.18.05.24.06.6.25,1.24.51,1.85.86.31.16.61.36.92.54.29.21.61.4.89.63.59.44,1.14.94,1.67,1.47l.38.41.37.42c.25.28.49.55.73.83,1.26,1.45,2.42,2.9,3.4,4.21-.56-.72-1.13-1.43-1.69-2.11Zm-17.74,4.31l.17.05c.17.1-.14.12-.21.21.32.04.62-.09.6-.2-.16,0-.4,0-.56-.06Z"/>
  <path class="cls-7" d="m53.36,33.67c.25-.11.51-.21.77-.28.13-.04.26-.07.38-.11.13-.03.25-.06.37-.09.24-.06.46-.12.66-.18.2-.06.36-.14.49-.24-.31.04-.57.09-.81.15-.23.06-.43.13-.63.2-.39.15-.75.32-1.25.54Zm15.69,6.02c.63.78,1.19,1.64,1.64,2.54.46.9.83,1.83,1.14,2.78.32.53.46,1.02.56,1.51.05.24.07.49.1.74.02.25.04.52.06.8.2-.78.3-1.85.18-3.03-.12-1.18-.45-2.47-.98-3.64-.33-.38-.46-.43-.47-.3,0,.13.11.44.24.8.28.71.56,1.64.44,1.57-.04.09-.11,0-.18-.18-.07-.17-.19-.4-.29-.6-.08-.25-.17-.5-.24-.74-.08-.24-.15-.46-.21-.67-.12-.4-.16-.7-.05-.8-.2-.14-.4-.27-.6-.4-.61-.93-1.31-1.85-2.15-2.74-.43-.44-.88-.87-1.4-1.27-.25-.21-.52-.39-.8-.58-.14-.09-.28-.18-.43-.27-.14-.09-.29-.18-.44-.26.21.03.38.07.54.12.16.05.31.11.46.19.15.08.31.19.48.32.18.13.36.31.59.52.54.12.71.12.64.03-.07-.09-.37-.28-.77-.49-.1-.05-.2-.11-.31-.17-.11-.05-.22-.11-.33-.17-.22-.12-.45-.23-.66-.34-.11-.06-.21-.12-.3-.18-.1-.06-.19-.11-.27-.17-.17-.12-.29-.24-.37-.36.03.12-.26.04-.64-.11-.19-.07-.41-.15-.62-.23-.21-.08-.42-.14-.6-.2.18.13.37.25.54.39.31.06.63.11.94.2.43.25.61.42.65.51.04.09-.07.12-.22.11-.16,0-.37-.04-.56-.06-.18-.02-.33-.04-.37-.01-.3-.11-.56-.22-.79-.32-.23-.1-.44-.2-.63-.29-.19-.09-.37-.19-.53-.28-.17-.09-.33-.18-.5-.27-.17-.09-.34-.18-.53-.25-.19-.08-.4-.16-.63-.22-.23-.06-.49-.13-.79-.16-.15-.02-.31-.03-.47-.05-.17,0-.35,0-.54,0-.09.19.39.2.17.37-.41.03-.57.11-.8.17-.11.03-.24.05-.42.07-.18.02-.41.04-.74.05-.34-.03-.66-.01-.97.06-.15.04-.31.07-.45.12-.15.05-.3.11-.44.17-.59.24-1.18.51-1.94.69-.38-.07-.01-.3.43-.51.22-.1.45-.21.61-.29.16-.08.24-.15.15-.19-.26.01-.51.04-.77.08-.2.07-.42.14-.65.21-.12.03-.23.07-.35.1-.12.04-.23.08-.35.11-.12.04-.23.08-.34.12-.11.05-.21.1-.31.15-.19.11-.36.23-.47.38l-.11-.13c-.49.37-1.14.83-1.7,1.29-.14.12-.27.24-.4.35-.12.12-.24.24-.34.35-.21.22-.35.43-.42.6-1.46,1.22-2.62,2.92-3.35,4.8-.73,1.88-1.03,3.91-1.03,5.87-.09.25-.17.51-.26.77,0,.29.02.54.03.75.02.21.05.38.08.52.05.21.1.36.16.48,2.4-.45,4.8-.93,6.5-1.21l.28.43c-.01-.18.01-.33.05-.46.02-.09.06-.18.09-.27.02-.04.04-.09.06-.14.02-.05.05-.1.07-.15-.08-.15-.14-.59-.28-.65-.21.07-.41.21-.61.41,0-.14-.01-.27-.01-.41,0-.16,0-.33.01-.49,0-.05,0-.1.01-.15,0-.11.02-.22.03-.33,0-.06.01-.12.02-.17.01-.1.03-.21.05-.31,0-.06.02-.11.03-.17.02-.11.04-.22.07-.32.01-.05.02-.09.03-.14.08-.31.17-.61.28-.9.01-.04.03-.07.04-.1.04-.11.09-.22.14-.33.02-.04.04-.09.06-.13.05-.1.1-.2.15-.3.02-.04.04-.08.06-.12.06-.11.11-.21.18-.32.02-.03.03-.06.05-.09.16-.27.34-.54.53-.79,0-.01.02-.02.03-.04.09-.11.17-.22.26-.33.02-.02.04-.05.06-.07.08-.1.17-.19.25-.28.02-.02.05-.05.07-.07.09-.1.19-.19.29-.28.02-.02.03-.03.05-.05.24-.22.48-.43.74-.62-.11.1-.22.2-.33.29-.11.11-.22.22-.33.33-.11.11-.23.21-.33.34l-.3.36-.15.18c-.05.06-.09.13-.14.19-.75,1-1.28,2.2-1.36,3.4.04.19.09.36.11.51.02.15.03.3.03.44.01.28,0,.55.02.87.11-.22.22-.46.31-.72.05-.13.12-.26.17-.39.06-.13.11-.27.17-.41.07-.14.14-.27.2-.41.03-.07.06-.14.09-.21.04-.07.08-.14.11-.2.08-.14.15-.27.22-.41.08-.13.17-.26.24-.39-.02-.54-.22-.36-.45-.03-.06.08-.12.17-.17.26-.05.09-.09.18-.13.25-.08.15-.15.25-.18.21-.16.03-.03-.26,0-.52.14-.25.34-.48.51-.64.19-.15.37-.21.49-.15-.02-.14-.05-.29-.07-.44.08-.12.18-.23.27-.35.05-.06.1-.11.15-.17.05-.06.1-.11.16-.16.23-.2.44-.42.71-.6.5-.39,1.09-.68,1.69-.98-.06.1-.11.18-.15.26-.05.07-.1.13-.17.18-.06.05-.14.09-.24.13-.1.04-.2.1-.35.16-.05.34-.02.45.04.44.06,0,.16-.13.28-.3.25-.32.71-.75,1.05-.55-.07-.07.03-.17.19-.27.17-.08.4-.16.55-.23l-.35-.07c-.12.11-.24.2-.34.33-.46.11-.52-.02-.44-.2.07-.18.27-.42.27-.49.31-.14.57-.19.8-.2.23.01.44.07.63.12.1.02.2.06.3.09.1.03.21.06.33.07.23.02.5.06.85,0,.04-.2-.19-.18-.1-.36.1-.03.17-.07.24-.09.06-.03.11-.05.17-.08.12-.04.27-.07.61-.01.16.1.32.14.48.15.08,0,.16,0,.25,0,.08,0,.16,0,.25,0,.17,0,.35,0,.53.02.18.04.36.12.53.24.16.5-.92-.06-.87.28.1.08.2.17.29.26.09.03.19.08.28.14.05.03.09.06.14.09.04.04.09.07.13.11.09.07.18.13.27.17.09.03.19.04.29.03l-.07.15c.14.03.28.09.44.16.08.03.15.08.22.12.07.04.15.09.22.13.07.04.14.08.21.12.07.04.13.08.19.12.12.07.24.11.35.11.55.72,1.13,1.45,1.59,2.3.46.84.78,1.81.79,2.79-.09.13-.19.25-.29.37-.02.14-.03.25-.04.35,0,.1-.02.18-.01.25,0,.14.04.23.09.31.09.15.24.25.24.52-.01.01-.02.02-.03.03,2.39-.03,4.62-.33,7.02-.56,0,0,0,0,0,0-.03-.15-.03-.42-.06-.67-.03-.25-.07-.48-.13-.54-.21.13-.42.35-.63.63h0c0-.21.02-.42.02-.63s0-.42-.02-.63c0-.04,0-.07,0-.11-.01-.2-.03-.4-.05-.59,0-.04,0-.08-.01-.12-.02-.2-.05-.4-.08-.59,0-.02,0-.04,0-.06-.03-.19-.06-.37-.1-.55,0-.03-.01-.07-.02-.1-.04-.19-.08-.37-.13-.55-.01-.04-.02-.09-.03-.13-.05-.18-.1-.36-.15-.54-.01-.04-.02-.07-.04-.11-.05-.16-.1-.32-.16-.48-.01-.03-.02-.07-.04-.1-.06-.17-.13-.34-.2-.5-.02-.05-.04-.1-.06-.15-.07-.16-.14-.32-.21-.47-.02-.05-.05-.1-.07-.15-.07-.13-.13-.27-.2-.4-.03-.05-.06-.11-.09-.16-.07-.13-.15-.26-.22-.39-.03-.06-.07-.11-.1-.17-.08-.14-.17-.27-.26-.4-.04-.06-.08-.12-.12-.18-.08-.11-.15-.22-.23-.32-.05-.07-.11-.15-.17-.22-.07-.09-.14-.18-.22-.27-.05-.06-.1-.12-.15-.18-.1-.11-.19-.23-.29-.34-.06-.06-.11-.12-.17-.19-.08-.09-.17-.18-.26-.27-.07-.08-.15-.15-.23-.23-.07-.07-.14-.14-.21-.2-.08-.08-.16-.15-.25-.23-.09-.08-.17-.15-.26-.23-.07-.06-.14-.11-.21-.17-.11-.09-.22-.18-.34-.27,0,0,0,0,0,0,.14.1.29.2.43.3.79.59,1.5,1.3,2.14,2.08Zm-21.69.56s-.03.04-.04.06c-.21.3-.41.61-.6.93-.03.05-.05.09-.08.14-.09.16-.18.32-.26.48-.03.06-.06.12-.09.18-.05.09-.09.19-.14.29h0c-.15.18-.3.36-.45.55.12-.76.59-1.53,1.17-2.21.3-.35.62-.68.95-1-.15.19-.3.39-.45.59Zm1.85-2.14c.16-.15.34-.31.52-.47.19-.16.38-.32.58-.47.2-.14.4-.28.6-.38.06-.03.13-.06.19-.09-.17.11-.33.22-.5.33,0,0,0,0,0,0-.16.11-.32.23-.47.35,0,0-.02.01-.03.02-.15.12-.29.23-.44.35-.01.01-.02.02-.04.03-.14.12-.28.25-.42.37,0-.02.02-.04.02-.05Zm2.56.28c-1,.24-1.82.82-2.79.08.12-.04.2-.09.25-.13.57-.2,1.58-.31,2.45-.55.15.18.15.38.09.59Zm10.54,2.08c-.19-.07-.38-.15-.56-.21-.09-.03-.17-.05-.24-.06-.07,0-.14,0-.18,0-.09.03-.13.1-.07.26-.19-.07-.37-.16-.57-.22-.2-.06-.41-.12-.63-.18-.43-.09-.89-.19-1.36-.2-.93-.05-1.91.1-2.7.49-.12-.12-.3-.07-.49-.02-.18.06-.38.12-.5.11.05-.16-.14-.15-.34-.14,0,0,0,0,0,0,.13-.06.27-.12.41-.18.02,0,.04-.02.06-.02.12-.05.23-.09.35-.13.03-.01.07-.02.1-.03.11-.04.22-.07.33-.1.04-.01.08-.02.12-.04.1-.03.21-.05.31-.08.05-.01.09-.02.14-.03.1-.02.2-.04.3-.06.05,0,.1-.02.15-.03.1-.02.2-.03.3-.04.05,0,.1-.01.16-.02.11-.01.21-.02.32-.03.05,0,.09,0,.14-.01.15,0,.31-.01.47-.01.17,0,.34,0,.5.02.05,0,.1,0,.15.01.12,0,.23.02.35.03.06,0,.11.01.17.02.12.02.23.03.35.06.05,0,.1.02.15.03.16.03.32.07.48.11,0,0,0,0,0,0,.16.04.31.09.46.14.05.01.09.03.14.05.11.04.22.08.33.12.05.02.1.04.15.06.11.04.22.09.32.14.04.02.08.04.12.06.15.07.29.14.43.22t0,0s-.08-.03-.12-.05Zm.5-5.14c-.1-.03-.19-.07-.29-.1-.11-.04-.22-.07-.33-.1-.11-.03-.23-.07-.34-.1-.08-.02-.16-.04-.25-.06-.14-.04-.29-.07-.44-.1-.06-.01-.12-.03-.18-.04-.17-.03-.34-.06-.52-.09-.05,0-.1-.02-.15-.02-.18-.03-.37-.05-.55-.07-.04,0-.08,0-.12-.01-.2-.02-.39-.03-.59-.04-.03,0-.05,0-.08,0-.21-.01-.43-.02-.64-.02s-.41,0-.62.02c-.04,0-.09,0-.13,0-.2.01-.4.03-.59.05-.04,0-.07,0-.11.01-.18.02-.35.04-.52.07-.04,0-.07,0-.11.02-.19.03-.38.06-.56.1-.05.01-.1.02-.15.03-.18.04-.37.08-.55.13-.03,0-.06.02-.1.03-.16.04-.31.09-.47.13-.06.02-.11.03-.17.05-.17.05-.33.11-.5.17-.06.02-.11.04-.17.06-.13.05-.26.1-.39.16-.05.02-.1.04-.15.06-.16.07-.31.14-.46.21-.06.03-.13.06-.19.09-.15.07-.3.15-.45.23,0,0,0,0,0,0,.29-.19.64-.38.95-.54.51-.27.87-.48.43-.58.64-.23,1.33-.45,2.08-.58.74-.14,1.52-.23,2.31-.26,1.59-.06,3.2.12,4.68.43.09.17.37.3.68.42.3.14.61.25.75.39-.2.03,0,.21.23.4,0,0,0,0,0,0-.11-.05-.23-.1-.34-.15-.09-.04-.19-.08-.28-.12-.1-.04-.19-.08-.29-.12-.11-.04-.22-.08-.33-.12Zm1.31,6.44c-.1-.09-.22-.19-.34-.29-.13-.09-.26-.18-.38-.27-.13-.09-.24-.2-.35-.29-.04-.03-.08-.07-.11-.11,0,0,0,0,0,0,.11.07.22.14.33.22,0,0,0,0,0,0,.11.07.21.15.31.23,0,0,0,0,0,0,.1.08.2.16.29.24,0,0,0,0,.01.01.1.08.19.17.28.25-.02,0-.04,0-.06,0Zm1.98,3.11c-.16-.18-.31-.38-.41-.62-.03-.06-.05-.12-.07-.18-.03-.06-.06-.12-.08-.18-.05-.12-.1-.25-.15-.38-.02-.07-.04-.13-.07-.2l-.09-.19c-.06-.13-.12-.26-.18-.39,0-.02-.02-.03-.02-.04.1.12.2.25.29.38,0,.01.02.02.02.03.09.12.17.25.25.38,0,.01.01.02.02.03.18.28.33.57.48.87,0,.16.01.33,0,.49Zm-15.3-14.48c1.9-.09,3.84-.16,5.81-.2,1.18-.03,2.39-.03,3.6-.03-4.17-.25-8.45-.52-12.47-.88-1.07.13-2.15.27-3.05.35,0,0,0,0,0,0,.44-.06.87-.13,1.31-.19,0,0,.02,0,.03,0,.49-.07.98-.13,1.47-.18-1.22-.11-2.42-.23-3.59-.36l-.18.44c-2.78-.77-5.73-.53-8.83-.46-1.37,2.37-2.62,4.81-3.73,7.33l.02.29s-.1,0-.15,0c-.69,1.57-1.31,3.17-1.88,4.79-.91,2.63-1.64,5.33-2.18,8.06-.13.73-.26,1.46-.37,2.19.52-.01,1.04-.02,1.56-.02-.1-.33-1.54-.67-.66-1.02,1.85-.36,2.72.57,2.98,1.02.99-.09,1.8-.26,2.47-.48.08-.44.17-.88.26-1.31,0-.02,0-.03.01-.05.06-.27.12-.53.18-.8,0-.02.01-.05.02-.07.06-.26.13-.53.19-.79,0-.02,0-.04.01-.06.42-1.66.93-3.29,1.51-4.89,0-.02.01-.04.02-.06.08-.23.17-.46.25-.69.02-.06.04-.11.06-.17.08-.21.16-.42.24-.63.03-.07.06-.14.08-.21.08-.2.16-.4.24-.6.03-.08.07-.16.1-.24.08-.19.16-.39.24-.58.04-.08.07-.16.11-.25.08-.19.17-.38.25-.57.03-.08.07-.16.11-.23.09-.19.17-.39.26-.58.02-.05.05-.11.07-.16.29-.63.59-1.25.9-1.87.06-.11.11-.22.17-.33.07-.14.15-.28.22-.43.07-.13.13-.25.2-.38.07-.13.14-.27.21-.4.07-.13.14-.26.21-.4.07-.13.14-.25.21-.38.08-.14.15-.27.23-.41.07-.12.14-.24.2-.36.08-.14.16-.28.24-.43.07-.11.13-.23.2-.34.09-.15.18-.3.26-.45.06-.1.12-.21.18-.31.1-.17.2-.33.3-.5.05-.08.1-.17.15-.25.15-.25.31-.5.46-.74.32-.06.65-.12.97-.18-.14.03-.28.06-.43.09-.17.03-.34.07-.51.11-.1.14-.18.3-.27.45-.18.31-.35.61-.51.89-.63,1.15-1,1.96-.37,1.37-.38.63-.74,1.3-1.13,1.98-.2.34-.37.7-.56,1.05-.18.36-.38.71-.56,1.08-.36.74-.74,1.49-1.08,2.27-.17.39-.35.77-.52,1.17-.16.4-.33.8-.49,1.2-.17.4-.31.81-.46,1.21-.15.41-.31.81-.44,1.23-.26.83-.54,1.65-.75,2.48-.06.21-.11.41-.17.62-.06.21-.11.41-.16.62-.09.42-.18.83-.28,1.24-.1.41-.16.82-.23,1.23-.03.19-.06.37-.09.56.25-.1.47-.21.67-.33.06-.18.12-.35.18-.52-.4-.05-.41-.34-.27-.79.21-.02.4-.02.57-.02.11-.27.22-.55.33-.85.07-.19.14-.38.21-.59.08-.2.16-.41.24-.64.32-.89.68-1.96,1.16-3.37-.13-.23-.45.67-.47.22.24-.79.29-1.13.4-1.59.06-.23.14-.48.27-.83.07-.18.14-.38.24-.61.05-.12.1-.24.16-.38.06-.13.13-.27.2-.43.68-1.21,1.13-2.36,1.64-3.56.26-.6.51-1.22.84-1.84.16-.32.33-.64.52-.96.19-.32.4-.65.63-.99.52-.48.13.32-.32,1.19-.43.88-.91,1.84-.65,1.66l.86-1.24c.19-.37.44-.76.69-1.15.13-.2.26-.4.39-.6.14-.2.27-.4.41-.59l.1-.15.05-.07v-.02s.01,0,.01,0h0s.02-.02.03-.03c.02-.02.02-.04.06-.04.03-.01.06-.03.1-.05-.02,0,.11-.04.19-.07.09-.03.17-.06.25-.09l.08.16c1.14-.29,2.68-.54,4.11-.74,1.42-.21,2.73-.37,3.39-.57Zm-10.84,6.4c.16-.36.3-.72.48-1.11.18-.38.37-.8.6-1.27-.97,1.89-2.09,3.82-2.26,4.94.53-1.08.85-1.84,1.18-2.56Zm19.77,4.6c-.05,0-.1,0-.15,0-.09.01-.18.05-.25.12.13.03.24.04.35.05.1.02.19.02.28.02.18,0,.37-.04.62.01-.24-.05-.48-.11-.69-.17-.05-.01-.11-.02-.16-.03Zm29.69,3.87c-.09-.31-.18-.61-.26-.9-.09-.29-.19-.57-.28-.85-.09-.28-.18-.55-.27-.82-.1-.27-.19-.53-.29-.79-.18-.53-.39-1.04-.59-1.56-.2-.52-.42-1.04-.65-1.58-.46-1.09-.99-2.24-1.64-3.58,1.29,2.67,2.39,5.52,3.19,8.09.48,1.5.86,2.9,1.18,4.11.05,0,.1,0,.15,0-.18-.76-.36-1.46-.55-2.11Zm-1.75,2.59c.11-.07.23-.13.35-.18-.02-.08-.04-.15-.05-.23-.08-.33-.16-.66-.25-.98-.01-.04-.02-.08-.03-.12-.08-.29-.16-.58-.24-.87-.03-.09-.05-.18-.08-.27-.08-.28-.16-.56-.25-.84-.01-.05-.03-.09-.04-.14-.1-.32-.2-.64-.3-.96-.03-.08-.05-.16-.08-.24-.08-.26-.17-.51-.26-.77-.03-.08-.05-.15-.08-.23-.11-.32-.22-.63-.34-.95-.02-.05-.04-.09-.05-.14-.1-.27-.2-.54-.31-.81-.03-.08-.07-.17-.1-.25-.11-.29-.22-.57-.34-.85-.01-.03-.02-.05-.03-.08-.13-.31-.26-.62-.39-.93-.03-.08-.07-.15-.1-.23-.11-.25-.22-.5-.33-.75-.03-.07-.06-.13-.09-.2-.14-.3-.27-.61-.42-.91-.02-.05-.05-.1-.07-.15-.12-.26-.24-.51-.36-.76-.04-.08-.07-.15-.11-.23-.14-.29-.29-.59-.44-.88,0,0,0,0,0,0-.15-.3-.3-.59-.46-.89-.04-.07-.07-.14-.11-.21-.13-.24-.26-.49-.39-.73-.03-.05-.06-.11-.09-.16-.14-.25-.28-.5-.42-.75-2.25-.02-4.48-.03-6.57.04-.21-.02-.42-.04-.64-.06,0,.03,0,.07.02.1,0,.05.01.1.01.15v.07s0,0,0,.02l.02.05.04.09.14.36c.3.5.52.93.74,1.28.21.36.39.65.54.9.3.49.52.78.71,1,.38.44.61.6,1.17,1.51.18.47-.03.36.01.64,1.14,2.08-.17-.8.34-.01.13.27.27.55.41.84.14.29.29.58.43.87.14.3.28.6.41.89.07.15.14.3.2.44.06.15.12.3.19.44.12.29.24.58.35.86.11.28.21.55.29.81.17.52.29.99.36,1.37.27.18.52.36.78.55-.04-.26-.07-.51-.12-.75-.04-.24-.08-.48-.11-.7-.06-.44-.1-.83-.11-1.16,0,0,0,0,0,0,.1.25.19.51.29.76.02.04.03.09.05.13.33.89.64,1.79.92,2.7,0,0,0,0,0,0,0,.03,0,.05.01.08.08.77.22,1.8-.25.71.27,1.15.45,2.02.56,2.7,1.63.16,4.39-.94,5.52-.62,0,0,0-.01,0-.02l-.48-.37Zm-11.77-18.5l1.59.47c1.16-.64,2.83-.38,1.85-1.63-.81.14-.78.67-1.07.96l-.94-.72c-.94.55-3.54.85-3.27,1.83-1.91-.71-4.1.16-5.8-.64.58.32.5.58.32.86.03,0,.05,0,.08,0,1.01.08,2.02.17,3.02.29.5.06,1,.12,1.5.19.33.05.66.09.99.14.02-.59.88-1.2,1.72-1.74Zm9.69,8.28c-.78-1.76-1.64-3.6-2.63-5.57-.34-.86-.22-.77.16-.17.19.3.44.73.72,1.24.14.25.28.53.43.81.15.28.3.58.45.88.61,1.2,1.19,2.49,1.6,3.39.4.9.63,1.39.55.99-.45-1.31-.96-2.6-1.49-3.89-.61-1.28-1.3-2.7-2.04-4.13-.61,0-1.21-.01-1.82-.02.62,1.08,1.13,1.97,1.43,2.48.39.65.49.65.1-.38,1.8,3.51,3.46,7.45,4.67,11.7.24.85.46,1.71.67,2.58.22-.07.44-.11.67-.14-.4-1.57-.87-3.1-1.41-4.63-.59-1.68-1.29-3.37-2.06-5.13Z"/>
  <path class="cls-3" d="m17.36,70.94c-.28-.13-.61-.12-.79-.47-.03.29-.06.61-.1.98,0,.12-.01.24-.02.37.14,0,.26-.35.57-.39.26.62-.51.97.17.98.65-.08.01-1.11.18-1.48Zm-.86,1.74c.1.69.47.7.84.72-.06-.77-.44-.78-.84-.72Zm33.96-25.49c.01.28,0,.55.02.87.11-.22.22-.46.31-.72.05-.13.12-.26.17-.39.05-.11.1-.23.15-.35-.09-.1-.2-.19-.27-.21-.17-.05-.33-.04-.49-.02.03.14.07.27.08.38.02.15.03.3.03.44Zm-26.26,27.88c.04.18.11.33.23.42-.01-.17-.03-.31-.06-.44-.06,0-.12.01-.17.02Zm-1.77-2.18s.1-.05.15-.08c-.05-.11-.1-.25-.14-.39,0,.16,0,.31-.01.47Zm61.39-29.34c.43-.1,1.13.55,1.11-.27-1.06-.05-1.95-.53-2.18.78.42.05.63-.41,1.07-.51Zm5.6,1.71c-.03-.1-.06-.2-.09-.3-.06.01-.12.02-.18.03.53,1.84.93,3.44,1.27,4.58-.32-1.68-.65-3.07-1.01-4.31Zm-1.35-1.3c-.03-.1-.07-.21-.11-.31-.19,0-.4.02-.61.04.03.1.06.2.09.31.23.01.44,0,.62-.04Zm-27.58,10.8c.23-.03.4-.22.35-.32-.1.04-.27.07-.39.06h.12c.15.07-.06.15-.08.25Zm27.09-10.3c.05.17.1.33.15.5.61,2.13,1.1,4.33,1.45,6.59.17,1.13.31,2.27.41,3.42.04.58.1,1.15.12,1.73l.03.74v.17s0,.03.01.04l.03.03.07.05.28.21c.44.33.89.67,1.34,1.01l.69.52c.23.17.46.34.69.53l.69.56c.23.19.43.4.65.6l.32.3c.11.1.2.22.3.32l.6.65.55.69c.09.12.19.23.27.35l.25.37.25.37c.08.12.17.24.24.37l.15.26c.46,0,.92,0,1.39,0-.04-.08-.08-.16-.13-.24-.85-1.53-2.03-3.12-3.67-4.61-.25-.1.14.33.46.7.31.38.54.7.06.3-.21-.22-.43-.39-.62-.57-.2-.17-.37-.34-.55-.48-.36-.27-.67-.51-.96-.72-.55-.38-1-.68-1.52-1.04-.26-.18-.54-.37-.85-.59-.08-.06-.17-.12-.26-.18-.04-.03-.09-.06-.14-.1-.01-.05-.01-.11-.02-.17,0-.16-.02-.34-.03-.53,0-.15-.01-.3-.02-.47-.01-.16-.02-.33-.04-.5-.03-.35-.05-.72-.08-1.12-.04-.4-.09-.83-.13-1.29-.16-1.9-.46-3.68-.86-5.41-.22-.91-.47-1.81-.74-2.7-.05.01-.11.03-.16.04-.12-.35-.24-.41-.13-.74-.23-.05-.41-.03-.58,0Zm-14.95-.08c-.02-.12-.04-.24-.06-.36-.1.04-.2.11-.29.21.08-.06.25.06.35.15Zm9.91-1.55c-.32.08-.68.11-1.06.11.05.14.1.28.15.42.48.06.96.15.91-.54Zm-58.33,29.43h.06c0-.1,0-.22,0-.35-.05.08-.07.19-.06.35Zm6.27.41c.52.13.79.87,1.42.71-.03-1.12-1.4-.74-1.42-.71Zm5.7,1.72s0,.06.01.1c.04-.03.09-.05.13-.08,0-.01-.02-.02-.02-.04-.09-.12-.13-.11-.12.01Zm16.61-12.18c.23.09.57.24.8.37l-.23-.13c-.21-.19.25-.04.38-.08-.23-.1-.46-.16-.64-.19-.18-.03-.3-.02-.31.04Zm19.85-17.69c-.21.03-.7-.1-.96.12.04.13.09.25.13.38.32.53.46,1.02.56,1.51.05.24.07.49.1.74.02.25.04.52.06.8.2-.78.3-1.85.18-3.03-.02-.17-.04-.34-.07-.51Zm-.21,3.54c-.21.13-.42.35-.63.63h0c0-.21.02-.42.02-.63s0-.42-.02-.63c0-.04,0-.07,0-.11-.01-.2-.03-.4-.05-.59,0-.04,0-.08-.01-.12-.02-.2-.05-.4-.08-.59,0-.02,0-.04,0-.06-.03-.19-.06-.37-.1-.55,0-.03-.01-.07-.02-.1,0-.04-.02-.07-.03-.11-.24-.41-.45-.9-.85-.91-.08.34-.43.33-.45.75-.04-.25-.08-.49-.13-.74-.54-.14-.3.76-.74.75.08-1.28-1.02-.53-1.09-.47.17.05.27.27.37.49-.81-.24.05.52-.31.75-.27-1.23-.43.09-.72.01-.34-.72-.8-1.15-1.51-.98,0,.01,0,.02,0,.03,0,0-.01-.02-.02-.03-.02,0-.05.01-.07.02.35.97-.28.65-.41.99-.08-.43-.1-.77-.02-.99-.3,0-.6.01-.9.02.07.11.13.22.19.34.46.84.78,1.81.79,2.79-.09.13-.19.25-.29.37-.02.14-.03.25-.04.35,0,.1-.02.18-.01.25,0,.14.04.23.09.31.09.15.24.25.24.52-.08.11-.21.03-.3.07-.03.6.23-.14.29.11-.05.3-.15.64-.26.94-.12.3-.29.55-.49.66.13.15.26.29.39.45.07-.04.14-.07.22-.11.07-.04.14-.07.21-.1.14-.06.28-.12.41-.15,0,0,0,0,0,0,0,0,0,0,0,0-.15.33-.32.64-.51.94,0,0,0,0,0,0-.01,0-.02.01-.04.02-.23.11-.51.25-.45-.09-.26.25-.46.41-.61.54-.16.12-.29.18-.41.23-.12.04-.22.07-.36.08-.13.01-.3,0-.52,0-.12.14-.19.27-.22.37-.04.1-.04.18-.02.26.03.16.13.29.1.45-.07.09-.15.17-.23.24-.08.07-.17.11-.26.16-.09.05-.18.08-.28.12-.09.03-.18.07-.28.09-.19.04-.38.08-.55.13-.09.03-.18.05-.26.08-.09.03-.17.07-.25.11.07-.22.01-.34-.11-.39-.06-.02-.14-.03-.23-.02-.05,0-.09.01-.14.02-.05,0-.11,0-.16.02-.11.02-.24.04-.36.07-.06.01-.13.04-.19.05l-.2.03c-.26.04-.51.11-.72.11-.26,0-.42.05-.52.11-.1.05-.15.13-.2.21-.05.08-.11.15-.23.2-.12.04-.3.09-.6.02-.27-.22.05-.29.32-.37.28-.11.51-.22.17-.43-.17.05-.34.06-.51.09-.18.11-.36.27-.55.37-.19.11-.4.2-.64.25-.13-.02-.28-.09-.4-.14-.12-.06-.2-.11-.19-.17.51.06.44-.26.04-.58-.26.02-.32.01-.47.07.14.29.16.41.08.43-.08.02-.25-.07-.47-.19-.05-.03-.11-.06-.17-.1-.06-.04-.11-.08-.17-.12-.12-.08-.24-.16-.36-.23-.03-.02-.06-.03-.09-.05-.03-.02-.06-.04-.09-.06-.06-.04-.12-.07-.17-.1-.12-.06-.23-.09-.34-.1-.14-.04-.25-.11-.35-.17-.1-.06-.19-.12-.26-.17-.08-.06-.14-.11-.19-.16-.05-.06-.09-.11-.12-.17-.13-.22-.13-.41-.12-.59.02-.19.06-.39,0-.62-.01-.06-.04-.12-.06-.18-.01-.03-.03-.06-.05-.1-.02-.03-.03-.07-.05-.11-.08-.15-.19-.31-.36-.5-.07.21-.17.26-.29.2-.11-.06-.23-.24-.36-.47-.03-.06-.06-.11-.1-.17-.03-.06-.05-.13-.08-.19-.06-.13-.11-.26-.16-.39-.03-.06-.06-.13-.08-.19-.02-.06-.04-.12-.07-.18-.05-.11-.1-.21-.15-.29-.08-.29-.04-.5,0-.69.02-.09.06-.18.09-.27.02-.04.04-.09.06-.14.02-.05.05-.1.07-.15-.08-.15-.14-.59-.28-.65-.21.07-.41.21-.61.41,0-.14-.01-.27-.01-.41,0-.16,0-.33.01-.49,0-.05,0-.1.01-.15,0-.11.02-.22.03-.33,0-.06.01-.12.02-.17.01-.1.03-.21.05-.31,0-.06.02-.11.03-.17,0,0,0,0,0,0-.08,0-.16,0-.24-.02-.19,0-.06.43-.2.5-.5-.8-.65,0-1.15.02-.26.02-.36-.19-.62-.23-.43-.08-.73.31-1.11.27-.28-.03-.56-.43-.8-.48-.69-.15-1.4-.17-2.12-.21-.05.57-.08,1.15-.08,1.72-.09.25-.17.51-.26.77,0,.29.02.54.03.75.02.21.05.38.08.52.06.29.14.46.22.59.16.26.32.35.52.84,0,.25-.16.19-.2.34.44,1.1.08-.43.32-.01.16.57.4,1.19.65,1.75.12.28.24.55.33.8.1.25.17.47.2.67.23.02.45.04.68.05-.02-.12-.05-.25-.06-.37-.01-.12-.02-.24-.02-.35,0-.22,0-.41.04-.58.05.12.11.23.17.34.02.03.03.07.05.1.18.36.38.7.59,1.04,0,.01,0,.02,0,.04.06.36.21.83-.22.47.14.27.27.5.38.7.12.2.22.37.31.52.18.29.31.5.4.69.1.19.17.35.24.56.07.2.16.44.29.77.3.24.53.37.71.45.18.07.3.08.4.06.2-.03.29-.15.53-.12.69.37,1.24.78,1.79,1.18.55.4,1.12.75,1.78.93-.62.16-.13.52.76.83.11.04.23.08.35.11.12.03.25.06.38.09.26.07.53.11.8.16.54.09,1.07.13,1.48.15,1.08.08,1.26-.11,1.45-.27.19-.17.39-.3,1.48-.4.57.1.04.3-.48.47-.51.16-1.01.32-.23.45.35-.07.7-.17,1.04-.27.63-.4,1.06-.85,1.74-1.26.44-.13,1.07-.37,1.13-.28-.2.11-.33.2-.4.27-.07.07-.07.13-.02.16s.16.06.32.06c.16,0,.36-.04.6-.09.38-.28.46-.36.61-.55-.51.02-.65-.04-.56-.13.08-.1.4-.22.79-.41.1-.05.2-.09.31-.15.11-.06.22-.11.33-.17.22-.12.44-.26.66-.4.42-.28.78-.6.96-.9.16-.17.3-.34.43-.48.07-.07.13-.14.19-.2.06-.07.11-.13.17-.19.11-.12.21-.21.3-.3.09-.09.17-.17.25-.23.33-.26.57-.37.83-.46.13-.05.26-.1.4-.17.14-.08.29-.17.45-.31.32-.29.71-.77,1.09-1.65-.3.17-.38.1-.35-.1.02-.1.06-.24.12-.41.07-.16.14-.36.23-.57.04-.1.09-.21.13-.32.05-.11.09-.23.13-.34.04-.12.09-.23.13-.35.04-.12.07-.24.11-.35.07-.23.13-.46.17-.67.02-.1.04-.2.05-.29.01-.09.01-.18.02-.25.24-.99.47-1.32.76-2.03-.03-.15-.03-.42-.06-.67-.03-.25-.07-.48-.13-.54Zm-28.23.18c-.63.27.1-.83-.46-.98-.03-.29.23-.21.39-.26.03.78.19,1.01.06,1.23Zm36.97-3.99c.06.05.13.09.19.14-.04-.22-.07-.43-.1-.64-.06.13-.07.33-.09.5Zm-48.52,31.1c.34,0,.67-.01,1.01-.02-.11-.99-1.05-.39-1.01.02Zm48.49-32.4c-.26,0-.52-.02-.79-.03.05.17.09.32.13.47.22-.01.46,0,.69-.04.01,0,.02,0,.03,0-.02-.14-.04-.27-.06-.41Zm1.29,21.31c-.03.19-.07.43-.11.67.06,0,.12,0,.18,0,.02-.41,0-.69-.06-.67Zm17.9,5.75c-.07-.3-.13-.61-.2-.93-.12.04-.26.07-.42.08-.12-.47.21-.36.29-.57-.29-1.05-.69-2.16-1.27-3.32-.47,0-.92,0-1.36,0l.06.1.11.19.1.2.2.4c.13.27.27.53.37.8l.34.82c.1.27.18.54.27.82.13-.15.32-.24.61-.17-.11.26-.6.97-.22,1.24,0,.11-.02.17-.04.19.04.15.08.31.11.46,0,.04.01.08.02.12.15-.09.35-.11.42-.29.16.21.41.34.68.39-.02-.18-.05-.35-.08-.53Zm-3.88-4.73c-.07.88.51.14.56.73-.54.18-1.32-1.23-1.44.03.46.22.6.36.8.48-.17.44-.52-.21-1.01.02.1-.88-.2-.6-.4-1.47.15-.09.31-.15.49-.19.41,0,.83,0,1.24,0-1.11-1.81-2.56-3.42-4.32-4.75l-3.02-2.27c0-.35-.02-.7-.04-1.05,0-.1-.01-.19-.02-.29-.02-.28-.03-.56-.05-.84,0-.07,0-.15-.02-.22-.03-.34-.06-.69-.09-1.03,0-.08-.02-.16-.03-.24-.03-.27-.06-.55-.09-.82-.01-.09-.02-.19-.03-.28-.04-.34-.09-.68-.14-1.02,0-.02,0-.05-.01-.07-.05-.32-.1-.63-.15-.95-.02-.09-.03-.19-.05-.28-.05-.28-.1-.56-.15-.84-.01-.06-.02-.12-.03-.18-.07-.33-.13-.67-.21-1-.02-.08-.04-.16-.05-.24-.06-.26-.12-.53-.18-.79-.02-.09-.04-.17-.06-.26-.08-.33-.16-.66-.25-.98-.01-.04-.02-.08-.03-.12-.08-.29-.16-.58-.24-.87-.03-.09-.05-.18-.08-.27-.06-.2-.12-.41-.18-.61-.24.09-.46.13-.77-.11.15.65-.06.81-.45.75-.09-.63.12-.87.22-1.24.23-.06.51-.04.81-.02-.03-.08-.05-.16-.08-.24-.47.03-.95,0-1.39-.21.35.96-.22.74-.59.75-.27.37.41.77-.16.74-.24-.24,0-.41-.41-.73-.34,0-.67.01-1.01.02-.19,0-.06.43-.2.5-.37-.37-.76-.71-1.28-.73.15.43.29.86.42,1.3,0,0,0,0,0,0,0,.03,0,.05.01.08.08.77.22,1.8-.25.71.6,2.54.73,3.72.8,4.58.02.21.03.41.03.6,0,.19-.01.39-.02.59-.03.41-.05.88-.12,1.54.11.76.22,1.27.32,1.63.09.36.17.56.25.7.16.27.33.26.47.7.03.21.06.41.08.61.01.2.03.4.03.6.02.39.03.78.03,1.16,0,.19,0,.38-.02.56-.01.19-.02.37-.04.55-.01.18-.03.36-.04.54-.01.18-.03.36-.05.53-.05.35-.09.7-.14,1.05-.02.17-.04.35-.07.52l-.08.52c-.05.35-.1.69-.14,1.04-.03.24-.06.48-.09.72.4,0,.8,0,1.21-.01.03.03.06.06.1.1-.16.04-.42-.03-.39.25.14-.03.21.23.33.24.34.04.09-.33.2-.5.03-.04.06-.07.09-.1.4,0,.81,0,1.22,0,.02.08.03.19.03.33-1.07-.53-1.11.64-1.85,1.02.02-1.38-1.02-.2-1.11-1.32.01,0,.02,0,.04,0-.07-.15-.14-.13-.21,0,.01,0,.03,0,.04,0,.01.03.02.07.03.11.03.29.14.7-.02.74-.02-.27-.08-.45-.17-.56-.06.18-.12.41-.18.69-.08.35-.18.76-.28,1.22-.05.23-.09.47-.15.71-.06.25-.12.5-.18.76-.06.26-.12.52-.18.78-.06.26-.14.53-.2.79-.07.3-.15.59-.23.87.15.07.28.19.33.19.26.02.45-.28.68-.26.63.06,1.41.6,1.99.24-.15.01-.45-.23-.41-.27.3-.35.76.14,1.34.22.15.02.13-.24.25-.25.17-.02.27.35.47.24.2-.11.29-.74.45-.75,0,0,.33.44.51.48.24.06.48-.05.72-.01.09.01.72-.01.72-.01.03,0,.06.03.08.07.02-.01.03-.03.05-.04.18-.15.36-.29.52-.58.15-.29.28-.72.35-1.43-.85.72.02-1.9-.14-2.86.05-.28.11-.49.18-.68.02.03.04.06.06.09.19.3.42.59.63.93.05.08.11.16.16.25l.08.12.08.13c.1.17.21.35.31.52.19.36.4.71.57,1.07.53.41.45.06.25-.41-.21-.47-.57-1.01-.47-1.01.02-.08.1-.04.19.05.09.09.2.24.31.35.04.08.09.16.13.24.04.08.07.17.1.25.06.17.11.33.14.47.06.29.03.51-.09.59l.45.27c.23.55.4,1.14.51,1.75.06.02.13.03.2.02.19-.16.46-.24.75-.28-.02-.09-.05-.17-.07-.26l-.1-.28c-.07-.18-.13-.37-.2-.55-.58-1.44-1.42-2.82-2.57-3.78-.22-.1-.4-.2-.56-.3-.15-.08-.28-.17-.4-.26,0,.03-.04.06-.12.09-.29.03-.45-.25-.62-.52.12,0,.23,0,.34,0-.03.01-.07.02-.1.04.02.03.09.08.16.12.09-.18.2-.36.32-.57,0,0,0,0,0,0,1.06.88,1.94,1.92,2.63,3.06,0,0,0,0,0,0,.29.49.55.99.78,1.51h0c.22.53.41,1.07.56,1.62,0,0,0,0,0,.01,0,.02.01.04.02.06.67-.06,1.51.09,2.15-.02.06.44.24.57.52.49.35-.97-.8-.96-.54-1.47.53-.02.67.91,1.07,1.21.71-.1,1.26-.43,1.88.05-.34-2.01-1.04-3.94-2.06-5.71-.17,0-.33,0-.5,0Zm-13.87-18.74c-.22-.67.2-.5.12-.99-.23-.38-.55-.5-.64-1.22.24.1.25.77.66.48.09,1.1.74,1.82-.14,1.73Zm6.56,17.29l.06.05-.07.03s0-.05,0-.08Zm-2.13,1.13c-.5-.21-.19.64-.45.75-.32-.44-.27-.66-.12-.82.51,0,1.02,0,1.54,0,.09.08.16.17.22.3-.09.66-1.08,1.18-1.19-.23Zm.61,4.43c-.12-.71.71-.6.96-.26-.17.62-.68-.29-.96.26Zm.72-4.51c.15,0,.29,0,.44,0,.12.22.4.4.41,1.03-.32-.41-.78-.48-.85-1.03Zm.74-.62s.01-.09.02-.14c0-.05.01-.1.02-.15.03-.03.06-.06.09-.08l.21.16s.03.03.05.04l-.39.17Zm5.21,6.24c-.29-.22-.58-.45-.64-1.22.25,0,.34-.19.35-.5.29.22.58.45.64,1.22-.3-.08-.44.06-.35.5Zm-.8-4.67c-.25.1-.08.61-.39.25-.03-1.06,1.08-.62,1.56-1.02.23,1.07-.76.6-1.17.76Zm1.32,2.69c.24.46.51.86.68,1.47-.57.36-.53-.8-.68-1.47Zm-12.72-2.61l.12-.48c.18-.49.06.45.1.67.08-.37.13-.74.15-1.05-.06,0-.12-.01-.19,0-.06.31-.12.62-.19.87Zm-46.35,7.19l-.67-1.2c-.65-2.2-1.12-4.54-1.4-7.01-.14-1.23-.22-2.5-.26-3.81-.02-.33,0-.65,0-.98,0-.33,0-.66,0-1,.03-.67.06-1.35.08-2.03.1.8.17,1.36.17,2.04.02.34.02.7.02,1.13,0,.22-.02.45-.01.7,0,.26,0,.53,0,.84.15.49.26.78.34.94.08.15.11.16.11.05,0-.21-.08-.88-.19-1.73-.2-1.69-.28-4.15.14-5.05-.23.29,0-2.32.27-3.72-.13.4-.26.8-.38,1.21l-.04,1.85c-.24,1.91-.38,1.84-.47,1.25-.05-.29-.08-.72-.11-1.08-.04-.36-.04-.67-.07-.72.24-2.63.76-3.97,1.26-5.36.11-.29.23-.58.35-.89-.32,0-.64,0-.96,0-.04.17-.08.35-.12.52-.1.41-.16.82-.23,1.23-.07.41-.14.81-.19,1.21-.18.26-.32.93-.45,1.63-.1.7-.18,1.43-.29,1.81-.03-.17-.07-.16-.13-.05-.03.06-.05.14-.08.24-.03.1-.05.22-.08.35-.02.1-.04.21-.06.32,0,0,0,0,0,0,.16-2.05.47-4.07.9-6.06,0-.02,0-.03.01-.05.06-.27.12-.53.18-.8,0-.02.01-.05.02-.07.02-.09.05-.19.07-.28-2.12.02-4.24.03-6.36.05-.05.26-.11.51-.16.77-.25,1.37-.48,2.74-.63,4.12-.04.34-.08.69-.11,1.03l-.08,1.04-.04.52-.02.52-.02.55v.04s-.01.01-.02.02h-.02s-.09.06-.09.06l-.16.08h-.02s-.03.03-.05.04l-.11.07-.22.14-.44.29-.88.57-.44.29c-.15.09-.29.19-.45.3-1.37,1.02-2.36,2.09-3.13,3.03-.19.24-.37.47-.55.69-.16.23-.31.46-.45.67-.3.42-.52.83-.73,1.21-.22.37-.37.72-.52,1.04-.07.16-.14.31-.21.46-.07.14-.11.29-.16.43-.1.27-.19.52-.26.75-.02.06-.04.11-.06.17-.01.06-.03.11-.04.17-.03.11-.05.21-.08.31-.22.8-.28,1.4-.4,2.16-.01.1-.02.21-.03.31.15-.33.75-.33.99,0-.33.97.57,1.18.77,1.96-.2-.01-.54.07-.25.25.47.11.2-.76.78-.51.13,1.2.95.71,1.46.96.11-.75,1.11-1.34,1.74-.77.2.77-.63.2-.59.75.4.08.66-.04.9-.16,0-.07,0-.13.01-.2,0-.01,0-.02,0-.04.01-.11.02-.22.04-.33-.1-.4-.19-.84-.39-1.02.05.32-.35.32-.43,0,.02-1.54.7.31,1.09.47.37.15.23-.51.68-.26.02.31-.14.5.23.49-.02-.75-.3-.89-.4-1.47.2,0,.3-.12.39-.25.27.15.36.74.6.98.06-.27.15-.5.29-.67.05-.29.08-.55.05-.72.13-.23.24-.47.38-.7.07-.12.13-.24.19-.35.06-.12.14-.23.2-.35.07-.12.13-.24.2-.35.07-.12.15-.23.22-.35l.03-.04v-.02s.02,0,.02,0v-.03s.04-.05.04-.05l.06-.11c.08-.15.18-.33.33-.52.07-.1.16-.19.24-.29.04-.05.09-.1.14-.14.01,0,.03-.03.03-.03v.03s.02.06.02.06c.02.09.04.19.05.3-.06.2-.13.37-.2.52-.05.43.33.04.54.36-.02.19-.17.14-.24.26.28.83.14-.32.31,0,.04.21.09.44.15.67.06.23.12.46.17.68.09.37.14.73.11,1.01.22.03.46-.08.71-.17,0-.03.02-.06.03-.09.06-.17.13-.32.21-.45,0,0,0,0,0,0,.05.21.09.42.14.63,0,.02.01.04.02.07.03.14.07.28.1.42.13-.12.25-.24.54-.14.05.47.26.54.31.98.47.11.2-.76.78-.51.41.04.38,1.17.89.97.08-.62-.2-.77-.02-.99.26,0,.72-.68,1.01-.02.38,1.28-.43,1.74-.01,2.47.85-.22,1.25.66,1.79,1.2.43-.11.76.05,1.09.18-.05-.15-.1-.29-.16-.44-.05-.14-.1-.29-.15-.43-.05-.15-.1-.29-.15-.44-.05-.14-.1-.29-.14-.43-.05-.15-.09-.29-.14-.44-.05-.14-.09-.29-.13-.43-.04-.15-.09-.29-.13-.44-.04-.14-.09-.29-.13-.43-.04-.14-.08-.29-.12-.43s-.08-.29-.12-.43c-.04-.15-.08-.3-.12-.45-.07-.28-.14-.55-.2-.82-.03-.14-.07-.27-.1-.41-.03-.15-.07-.31-.1-.46-.03-.13-.06-.27-.09-.4-.03-.15-.06-.31-.09-.46-.03-.13-.05-.27-.08-.4-.03-.15-.06-.31-.08-.46-.02-.13-.05-.26-.07-.39-.03-.15-.05-.31-.08-.46-.02-.13-.04-.26-.06-.39-.02-.15-.05-.31-.07-.46-.02-.13-.04-.26-.05-.39-.02-.16-.04-.31-.06-.47-.02-.13-.03-.25-.04-.38-.02-.16-.04-.31-.05-.47-.01-.12-.02-.25-.04-.37-.01-.16-.03-.32-.04-.48,0-.12-.02-.23-.03-.35-.01-.17-.03-.33-.04-.5.02.25.04.5.07.76.02.27.07.55.1.82.26,2.19.67,4.4,1.22,6.58.43,1.67.95,3.33,1.55,4.94,0-.13,0-.23.08-.24.25.19.46.16.66.07,0,0,0-.02,0-.03-.19-.83-.27-1.42-.15-1.51Zm-17.77-1.67c.27-.29.35-1.39.88-.75-.05.57-.36.8-.88.75Zm1.42.71c.4-.05.78-.04.85.73-.4.06-.78.04-.85-.73Zm1.13-1.01c-.07-.54.27-.53.64-.5.25.85-.35.89-.64.5Zm2.51-.54c-.06.36-.08.78-.45.75,0,0,0,0,0,0-.01.03-.02.06-.03.08,0-.03.01-.07.02-.1-.14-.22-.24-.54-.3-.96.22-.07.32.15.47.24.09-.34.2-.68.32-1.01,0,.02,0,.04.01.05-.1.3-.19.65-.28.99.06.02.14.02.24-.03Zm2.01-3.97c-.04.05-.09.1-.14.15-.05.05-.09.11-.14.16-.05.06-.11.12-.16.18-.06.06-.12.12-.18.19-.12.12-.23.26-.34.39-.11.13-.23.27-.33.4,0,.01-.02.03-.03.04,0,0,0,0,0,0,.19-.36.4-.71.62-1.05,0,0,0-.01.01-.02.23-.34.47-.67.73-.99.15-.08.29-.15.43-.19-.15.29-.29.52-.47.73Z"/>
  <path class="cls-2" d="m94.53,61.47c.11.1.2.22.3.32l.36.39c.52-.1,1.15.04,1.55-.06-.36-.45-.75-.9-1.18-1.34-.08.01-.17.02-.26.03.25.32.39.54-.04.18-.06-.06-.11-.11-.17-.16-.37.04-.76.06-1.16.07.09.08.18.17.27.25l.32.3Zm-6.03,8.52c.24.03.48.07.72.1.05-.12.09-.25.13-.41-.44-.07-.86-.03-.84.31Zm4.2.08c.28-.06.58-.13.89-.2-.03-.08-.06-.16-.09-.24,0,0,0-.02-.01-.03l-.76.06-.13.09c.03.1.06.21.09.32Zm-1.3-1.66s.03.02.04.03c.12-.04.23-.07.33-.09-.03-.1-.07-.22-.13-.36-.1-.22-.23-.45-.33-.64h-.47c.16.31.34.61.49.92.08-.04.14-.09.19-.14l-.16.21s.02.04.03.07Zm-4.61-6.58l-.41.13c1.24.32,2.83.24,3.79-.35,1,1.25-3.59.29-1.66,1.38-1.37-.41-3.33.5-4.39.55,1.77.29,3.3,1.51,2.8,2.24,3.81-.79,0-2.71,3.33-3.2l2.3.26.8-1.4c1.39-.02-.85,1.13,1.27,1.02.06-.07.13-.12.2-.16-.44-.49-.91-.95-1.41-1.39-1.38.03-2.84,0-4.01.08.2-.07.61-.19.35-.4-2.44.04-3.83-.17-5.9-.15,0,.02,0,.03,0,.05-.01.18-.03.36-.05.53-.04.28-.07.55-.11.82.04.02.07.04.11.07h-.12s-.01.1-.02.16c-.02.17-.04.35-.07.52l-.02.1c1.27-.05,2.13-1,3.21-.88Zm2.46,5.54h-.62c.06.13.31.27.56.41.02-.13.04-.27.06-.41Zm-29.79-4.37s-.04.03-.06.04c0,0,0,0,0,0,.02-.01.04-.03.06-.04Zm28.46,9.49c.01-.14.03-.27.05-.38-.5.13-1.08.19-1.69.15.1.04.71.12,1.64.23Zm-3.72-1l1.77.29c-.24-.64,3.46-.39,2.54-1.8-2.26-.28-4.51-.47-6.67-.57-.06.24-.13.48-.19.72-.03.12-.06.24-.09.36,1.45-.15,2.75.03,4.74-.25,1.6,1.06-2.02.64-2.12,1.24Zm-50.9-3.21c.11.52.24,1.03.37,1.55.03.12.07.24.1.37.25-.08.54-.17.84-.27-.15-.64-.29-1.29-.42-1.96-.18-.1-.28-.22-.3-.37-.23.19-.4.44-.59.69Zm64.16-2.13s-.05.05-.07.08l.08-.06s0-.01,0-.02Zm.3-2.65c-.11-.16-.22-.33-.33-.49-.04.1.01.25.21.49.04,0,.09,0,.13,0Zm-5.46,3.85h-.65s.02.03.04.04c.04.08.09.16.13.24.04.08.07.17.1.25.06.16.1.31.13.45.86.05,1.27.99.58,1.32h.11s.6-.45.6-.45c-.29-.65-.63-1.28-1.03-1.86Zm7.17-.49s-.06.05-.1.07c.04-.02.07-.03.11-.05,0,0,0-.02,0-.02Zm-.73-1.64l-.19.14c.07-.03.14-.06.21-.1,0-.01-.01-.03-.02-.04Zm-.98.72l.79-.58c-.3.15-.58.33-.82.53l.03.05Zm-2.82,3.55l-1.35.1c.03.08.06.17.09.25.39-.09.81-.21,1.25-.35Zm-1.17-1.62c.52-.03.68-.36.75-.52h-2.02c.03.05.06.1.09.15,0,0,0,0,0,0,.29.49.55.99.78,1.51h0c.02.05.03.1.05.14l3.07-2.26c-1.38-.16-1.06.95-2.73.99Zm3.17-.89c.04-.21.19-.48.43-.75l-.88.65c.13.01.29.06.45.1Zm.16.4l.15-.33c-.12-.04-.2-.05-.3-.07-.03.18,0,.33.16.4Zm-6.01,12.6c-.29.79-.22,1.14-.37,1.87.15-.73.56-1.41.37-1.87Zm-61.49-1.36c-.08-.35-.3-.63-.4-.58.06.16.13.42.15.61v-.19c.02-.22.15.11.26.15Zm65.9,13.42c-.1.21-.2.4-.29.59.03,0,.06,0,.1,0,.24-.55.55-1.25.89-2.04.44-1.03.92-2.2,1.36-3.36.44-1.16.84-2.3,1.15-3.25-.43,1.09-.88,2.18-1.36,3.25-.56,1.63-1.18,3.23-1.84,4.82Zm-19.24.98l-.04-.02s-.03,0-.04,0l-.09.02c-.28.05-.56.1-.85.14.48,0,.95,0,1.43,0l-.24-.09-.17-.06Zm-53.88-20.63c-.17-.34-1.13-.18-1.65-.26.61.19,1.11,1.1,1.65.26Zm6.61,18.53c-.01-.05,0-.1,0-.14,0-.01,0-.02.02-.03,0,0,0,0,0-.02l-.02-.07c-.03-.1-.06-.2-.09-.3-.25-.81-.56-1.68-.87-2.52-.5-.53-.44-.13-.28.4.16.53.44,1.17.33,1.14-.08.15-.24-.25-.44-.52-.26-.73-.4-1.53-.15-1.67l-.45-.32c-.62-1.49-1.01-3.18-1.57-5.04.42.45.53.67.68,1.53.69.49.51.18.2-.35-.31-.53-.73-1.3-.53-1.71-.15.16-.42-.72-.57-1.2l-.05.48.37.56c.23,1.36-.57.08-.72.06-.32-.87-.26-1.4-.21-1.95.05-.55.09-1.13-.22-2.12-.21-.01-.12.31-.32.21-.11-.27-.21-.37-.3-.51-.04-.07-.09-.16-.12-.28-.02-.06-.04-.14-.06-.22-.01-.08-.03-.17-.04-.28.01-.12.02-.23,0-.34-.01-.11-.03-.21-.04-.31-.04-.2-.1-.4-.18-.61-.11-.41-.24-.87-.1-1.39.21-.21.27.08.31.39.01.16.05.32.09.43.04.11.08.17.15.12.05-.16.09-.32.14-.47,0-.13.01-.27.04-.41.03-.14.06-.29.1-.43.04-.14.07-.28.07-.4-.58.09-1.16.18-1.74.26,0,.05,0,.1,0,.15.03.46.1.76.36.49,0,.12-.01.25-.02.38,0,.13,0,.26,0,.39,0,.27,0,.54.04.82.03.28.04.56.1.85.05.28.1.57.17.87.27,1.17.63,2.36,1.09,3.4-.21.27.16.95.11,1.25-.15-.09-.16.13-.17.36-.13-.41-.26-.82-.39-1.22-.02-.08-.05-.15-.07-.23-.1-.33-.2-.66-.29-1-.03-.11-.06-.21-.09-.32-.09-.31-.17-.62-.25-.93-.03-.11-.06-.21-.08-.32-.1-.41-.2-.81-.3-1.22-.04-.17-.07-.34-.11-.51,0-.05-.02-.1-.03-.15-.02-.12-.04-.25-.06-.37,0-.05-.02-.11-.02-.16-.02-.13-.03-.26-.04-.39,0-.04,0-.08-.01-.12-.02-.18-.03-.35-.04-.53,0,0,0,0,0,0,0-.17-.01-.34-.01-.51,0-.04,0-.08,0-.12,0-.14,0-.28.01-.42,0-.04,0-.08,0-.12,0-.1.01-.2.02-.3-1.53.23-3.14.44-4.99.64-.32-.25-.65-.44-1-.58,0,.13,0,.26,0,.39-.06.72-.08.94-.13,1.08-.05.14-.1.2-.12.59,0,.11.01.21.02.31.01.1.03.2.04.29.03.18.05.35.07.51.05.31.08.56.13.77.09.4.15.61.17.69.05.14,0-.27-.08-.81-.04-.27-.05-.58-.08-.86-.01-.14-.02-.28-.03-.4,0-.06,0-.12-.01-.18,0-.06,0-.11,0-.15,0-.37.02-.44.1.22.05.43.1.87.16,1.31.09.44.17.88.27,1.32.21.85.43,1.71.68,2.57.49,1.72,1.05,3.45,1.65,5.08.84,2.32,1.74,4.46,2.48,6.2.27,0,.54,0,.81,0,0-.02-.01-.04-.02-.05-.4-1.09-.72-2.06-.94-2.86.31.74.64,1.49.98,2.23,0,.02.02.04.03.06.1.21.19.42.29.62,1.98-.02,3.95-.01,5.89.03-.31-.1-.58-.31-.73-.63-.99-2-1.88-4.02-2.65-6.01-.11-.28-.21-.55-.31-.83-.06-.17-.12-.33-.18-.5.37.83.72,1.67,1.09,2.52.62,1.44,1.29,2.88,2.13,4.16.09.08.17.16.25.24.04.04.07.08.11.12l.05.06.04.03c.09.07.18.12.26.15.16.07.34.09.5,0-.16-.05-.26-.16-.29-.27Zm34.6,1.67c-.08.03-.18.05-.26.09.13.01.21-.03.26-.09Zm36.99-20.71c-.01-.15-.02-.31-.03-.46,0-.16-.04-.31-.06-.47-.04-.32-.09-.64-.14-.97-.03-.13-.06-.26-.08-.38-.27-.14-.55-.28-.87-.38-.19-.28.19-.44.66-.5,0-.01,0-.02,0-.03-.35.02-.73.07-1.12.15l.06.18.11.43c.07.29.15.57.21.85.1.58.23,1.15.27,1.73l.05.44c.02.14.03.29.03.44.01.29.02.58.03.87v.22s0,.22,0,.22l-.02.43c-.02.29,0,.58-.05.87-.03.29-.06.57-.09.86-.01.14-.04.28-.07.43l-.08.42c-.1.57-.23,1.11-.35,1.66-.26,1.09-.54,2.16-.84,3.21-.36.71-.94,2.45-1.63,4.22-.68,1.78-1.45,3.59-1.95,4.51.27-.86-.21.07-.85,1.28-.1.19-.21.4-.32.6h0c.08-.16.15-.32.23-.49.04-.09.09-.18.13-.27.07-.15.14-.3.21-.44.05-.11.1-.21.15-.32.06-.14.13-.28.19-.42.05-.12.1-.23.16-.35.06-.13.12-.26.17-.39.06-.13.11-.25.17-.38.05-.12.11-.24.16-.37.06-.14.12-.28.18-.42.05-.11.09-.22.14-.33.07-.16.13-.32.2-.49.04-.09.07-.18.11-.27.1-.25.2-.5.3-.75,1.2-3.09,2.18-6.23,2.9-9.32.69-2.96.57-5.98-.27-8.79-.23.06-.47.12-.69.19-.66.39-2.81.88-3.93,1.52,0,0,0,0,0,0,0,0,0,0,0,.01.15.55.26,1.11.33,1.67,0-.06-.02-.12-.03-.18l-.07-.28c-.04-.19-.09-.38-.13-.56-.05-.19-.11-.37-.16-.56,0-.02-.01-.04-.02-.06-.07.04-.14.09-.2.13-.13-.03-.27-.06-.4-.08.04-.08.1-.15.18-.18-.2.02-.37.07-.52.11-.02,0-.05,0-.07-.01.06.27.11.55.15.83.09.81.11,1.65.07,2.53-.12-.26-.21-.43-.23-.65-.02-.21-.02-.46.02-.85-.13-.14-.24-.22-.31-.26-.07-.04-.1-.04-.11,0,0,.03,0,.1.04.19.02.09.06.21.1.34.04.13.09.27.12.42.03.15.05.3.06.45.03.3-.04.56-.2.7.1-.04.14.14.14.39-.01.25-.04.56-.08.78.09-.12.16-.24.24-.37l-.05-.3c-.02-.1-.03-.2-.06-.3.13-.6.27-.58.39-.39.12.19.23.56.3.6-.02.22-.04.41-.08.58-.02.08-.04.16-.06.24-.03.07-.06.14-.09.21-.06.13-.13.25-.2.36-.04.05-.07.11-.1.16l-.12.17c-.31.46-.63.94-.85,1.95.17.11.26-.21.38-.03-.07.58.15.53-.18,1.41-.56.83-.19,1.76-.79,2.75-.54.31.14-1.25-.19-1.15l-.32.44c-.15.57-.75,1.19-.64,1.73l-.16-.04c-.11.83-.7,2.05-.62,2.59-.35.65-.67,1.33-.97,2.03-.15.35-.3.71-.45,1.06-.07.18-.15.36-.22.54l-.06.13s-.04.1-.04.1l-.02.08c-.02.09-.04.19-.12.26-.07.07-.17.12-.27.12-.05,0-.1-.01-.15-.03l-.08-.02h-.04s-.02-.02-.02-.02l-.06-.02c-.3-.1-.6-.21-.89-.32l-.42-.45c-1.5-.69-1.28-.14-2.04-.26-.15-.11-.03-.22-.09-.33-.83-.18.2.28-.15.27-.2-.07-.42-.14-.64-.21l-.18-.05c-.06-.02-.11-.03-.17-.05-.22-.07-.4-.18-.34-.3-.26.1-.55.19-.87.28.02.18.06.41.08.64l-1.07-.4c.03-.05.06-.11.1-.16.01,0,.02-.02.03-.03.16-.14.34-.29.46-.37.13-.08.21-.07.23.04.27-.33.45-.53.6-.67.14-.14.24-.23.34-.29.05-.03.09-.05.14-.06.06-.04.13-.08.2-.12.15-.08.33-.18.58-.31.46-1.03-.07-.95-.12-1.34.17-.58.49-1.01.8-1.42.31-.41.62-.81.79-1.3.16.51.48.19.81-.42.17-.3.34-.67.5-1.03.15-.37.29-.72.41-1.01.33-.72.23-.91.13-1.1-.09-.19-.18-.4.16-1.15.64-.64-.19,1.74.57.86l.15-.77c-.09-.56-.31-1.06-.29-1.67.12-.32.27-.82.39-.8-.1.68.22.58.61-.05,0-.35,0-.44-.06-.63-.6.54-.49.19-.25-.43.11-.31.26-.69.36-1.06.05-.19.1-.37.12-.54.02-.17.02-.33,0-.46,0-.01,0-.02,0-.03-1.91-.2-3.72-.38-5.42-.55.67-.2,1.35-.36,2.16-.27-1-.57-2.29-.39-3.42-.29-.13.44-.25.85-.36,1.22-.37,1.02-.53,1.63-.62,2.04-.09.41-.09.61-.08.83,0,.21,0,.44-.11.88-.06.22-.15.49-.29.83-.14.35-.3.78-.55,1.3-.32.49-.39.45-.33.17.03-.14.09-.35.16-.58.07-.23.15-.5.22-.76.31-1.04.57-1.98-.19-.67-.23.66-.45,1.34-.71,1.99-.15.67-.25,1.3-.41,1.94-.15.64-.32,1.32-.62,2.09-.23.43-.51.97-.77,1.39-.26.42-.47.73-.52.72.85-1.72.31-1.34-.82.31-.18.43-.31.69-.4.91-.04.11-.08.2-.12.3-.02.05-.03.1-.05.15-.02.05-.04.11-.03.13.02,0,.07-.07.11-.11.04-.04.08-.08.11-.12.07-.07.14-.14.19-.19.11-.11.2-.19.27-.24.13-.1.16-.08.11.04-.04.12-.16.33-.33.61-.07.12-.15.25-.24.39-.04.06-.08.12-.12.19-.02.03-.04.06-.06.1-.01.01-.02.04-.04.04h-.06c-.86.12-1.9.26-2.9.39-1.08.15-2.09.29-2.77.48-2,.36-3.28.46-4.18.47-.9,0-1.44-.1-1.96-.22-.53-.12-1.05-.24-1.93-.31-.88-.07-2.12-.08-4.1-.02.6.18.58.29.16.35-.42.06-1.23.08-2.21.07-1.95-.02-4.51-.21-5.82-.2-2.2-.22-2.97-.52-4.47-.93-.47,0-1.58-.13-2.19-.15-.69-1.48-1.63-3.33-2.57-5.4-.99-2.19-2-4.61-2.83-7.01-.24-.43-.38-.7-.47-.82-.09-.12-.13-.11-.12.01,0,.12.05.34.13.62.08.28.2.63.32,1,.24.75.58,1.57.82,2.2.12.31.22.57.29.75.06.17.08.26.04.22,0,.16-.13-.04-.31-.38-.18-.35-.39-.85-.61-1.27-.1-.26-.2-.52-.29-.77-.08-.26-.17-.52-.25-.77-.15-.5-.31-.97-.39-1.39-.19-.83-.27-1.42-.15-1.51l-.67-1.2c-.02-.07-.04-.14-.06-.21-.05,0-.1,0-.14,0l-.75-.45.74-.11c-.05-.17-.09-.34-.13-.51-.28.02-.58.08-.87.14,1.12,4.04,2.75,7.96,4.75,11.47.37.53.72,1.01,1.02,1.48.3.47.59.92.87,1.37.5.83,1.01,1.63,1.59,2.54-.16,0-.28,0-.34.02.24.25.68.53,1.3.83-.47-.07-.94-.14-1.4-.21-.19-.3-.37-.6-.56-.89-.06-.1-.12-.2-.18-.3-.12-.2-.24-.4-.36-.6-.07-.12-.14-.24-.21-.35-.11-.18-.21-.36-.32-.54-.07-.13-.14-.25-.22-.38-.1-.17-.2-.34-.29-.52-.07-.13-.14-.26-.22-.39-.09-.17-.19-.34-.28-.51-.07-.13-.14-.26-.21-.39-.09-.17-.18-.33-.27-.5-.07-.13-.14-.26-.2-.39-.09-.17-.17-.34-.26-.5-.07-.13-.13-.26-.19-.39-.09-.17-.17-.34-.25-.52-.06-.12-.12-.25-.18-.37-.09-.19-.18-.37-.26-.56-.05-.11-.1-.22-.15-.33-.13-.27-.25-.54-.37-.82-.04-.09-.08-.18-.12-.28-.1-.22-.19-.44-.28-.66-.05-.12-.1-.25-.15-.37-.07-.17-.14-.34-.21-.51-.05-.13-.11-.27-.16-.4-.06-.16-.13-.32-.19-.47-.05-.14-.11-.28-.16-.42-.06-.15-.12-.3-.17-.46-.05-.14-.1-.28-.16-.43-.05-.15-.11-.3-.16-.45-.05-.14-.1-.29-.15-.43-.05-.15-.1-.29-.15-.44-.05-.14-.1-.29-.14-.43-.05-.15-.09-.29-.14-.44-.05-.14-.09-.29-.13-.43-.04-.15-.09-.29-.13-.44-.04-.14-.09-.29-.13-.43-.04-.14-.08-.29-.12-.43-.03-.11-.06-.21-.09-.32-.23.05-.46.08-.67.08-.41-.23-.07-.39.53-.59,0-.02,0-.03-.01-.05-.07-.28-.14-.55-.2-.82-.03-.14-.07-.27-.1-.41-.03-.15-.07-.31-.1-.46,0-.04-.02-.07-.02-.11-.24.3-.54.59-1.07.76l-.31-.47c-1.87-.33-2.41.6-3.32,1.18.04.17.07.33.11.5,0,.02.01.04.02.07.05.2.1.4.15.61,0,0,0,0,0,0-.08.29-.13.71-.38.33.04.47.08.8.1,1.07.02.26.03.45.01.61-.01.16-.04.3-.09.47-.05.17-.1.36-.18.63.43,1.05.73.62,1.04.86.3.52.4,1.05.48,1.56.09.51.16,1.01.4,1.47-.97-.47.08,1.83.6,2.93.3.73.5.79.71.85.21.06.41.14.73.9.03.9-1.13-1.33-1.02-.18l.46.64c.46.32.98.51,1.41.94.15.31.39.77.3.83-.21-.27-.35-.34-.42-.24-.07.1-.06.35.04.71.26.24.32.3.5.39.03-.8.21-.48.49.12.14.3.31.67.51,1,.19.32.42.66.59.73.21.21.39.41.51.58.12.17.2.31.23.42.03.11.02.18-.01.22-.02.02-.04.04-.07.05,0,0-.03,0-.05,0h-.06s-.12-.01-.12-.01c-.3-.03-.59-.08-.82-.09-.12,0-.22,0-.33.03-.1.03-.2.08-.33.18.16.12.23.21.17.31-.02.02-.03.05-.07.07-.04.03-.1.06-.16.09-.12.06-.26.13-.42.2-.63.27-1.48.58-1.86.86-.73.26-1.06.17-1.64.16-.17.15-.72.39-.76.55.17.16.4.29.68.4l-.47.17s-.07.03-.11.04c3.45.08,6.83.27,10.11.61,1.45.81,5.85.33,6.99,1.19,4.88-1.5,10.04-1.49,14.93-1.33l-.18.14,2.3-.24c.1.1.11.25.04.34,2.59-1.09,6.68-.01,9.86.43l-.19.13c.59,0,1.18.01,1.77.01.4-.06.8-.12,1.19-.19l.5.19c6.06-.02,11.99-.27,17.89-.52.04-.1.08-.19.12-.28.37-.92.66-1.69.68-1.83,1.44-3.32,2.38-5.92,3.15-8.16.38-1.12.71-2.16,1.02-3.17.07-.25.15-.5.22-.75.07-.25.15-.49.21-.76.12-.52.27-1.04.34-1.57.04-.27.09-.53.13-.8.03-.27.05-.55.08-.82.07-.56.05-1.13.06-1.72,0-.3-.03-.59-.05-.9Zm-10.37,16.1c-.33.75-.67,1.5-1.03,2.25-.13.13-.27.27-.4.39.14-.89.86-1.76,1.43-2.64,0,0,0,0,0,0Zm1.13-2.74c-.08.21-.17.43-.25.64-.08.21-.17.41-.25.62,0,0,0,0,0,0,0-.02,0-.03-.01-.04.21-.53.41-1.23.7-1.7-.06.16-.12.33-.18.49Zm1.91-5.66c-.05.17-.1.34-.15.51-.05.16-.1.32-.14.48-.06.19-.11.37-.17.56-.04.13-.08.26-.13.39-.07.21-.13.42-.2.63-.02.05-.03.1-.05.15-.19.58-.39,1.15-.6,1.72,0,0,0,0,0,0,.18-.72.56-1.71.03-1.41.35-.96.75-2.07,1.09-3.23.17-.58.32-1.17.45-1.76.12-.59.23-1.18.25-1.72.08-.04.14-.11.18-.2.05-.09.07-.21.09-.33.04-.24.07-.49.15-.61.11.15.2-.07.29-.29,0,0,0,0,0,0,0,.17-.02.33-.04.5,0,.03,0,.06,0,.09-.01.14-.03.27-.05.41,0,.04-.01.08-.02.12-.02.13-.04.26-.06.38,0,.04-.01.09-.02.13-.03.17-.07.33-.1.5-.08.33-.16.67-.24,1-.03.12-.06.24-.09.36-.06.21-.11.43-.17.64-.04.15-.08.3-.12.45-.05.18-.1.36-.15.54Zm-69.18-5.73c.02.16.04.33.05.49.01.16,0,.32.03.46.04.29.09.54.28.68-.03-.36-.09-.6-.16-.84-.06-.24-.14-.46-.19-.79Zm61.04,9.33c-.19.3-.24.65-.14.69.08-.16.22-.39.34-.53l-.13.14c-.18.12-.04-.2-.08-.3Zm12.91-14.39c-.27.23-.48.29-.75.53.17-.08.38-.14.58-.21.19-.11.29-.22.17-.32Zm-69.81-3.25c1.09-.57,3.49-.66,4.31-1.21,0-.04-.01-.09-.02-.13-.02-.13-.03-.25-.04-.38,0-.02,0-.05,0-.07-1.03-.11-2.16.16-2.66.58l.46.14-2.05,1.08Zm-.08,5.18c.04-.2.08-.39.14-.56.03-.08.06-.15.09-.22-.24.14-.5.24-.82.3,0,.13,0,.24-.02.34l.62.14Zm4.6-5.36c.4-.03.74-.03,1.04-.02-.02-.15-.04-.31-.06-.46-.33.11-.69.2-1.02.28.01.07.02.13.03.2Zm-11.62.6c3.03.75-.23-1.02,2-.9-1.31-.24-1.95-1.15-1.82-1.44-1.36.72,2.16,1.73-.19,2.34Zm11.55-.6c0-.06-.02-.12-.03-.19-.57.14-1.08.25-1.31.37.51-.1.95-.15,1.34-.19Zm.13-1.56c-.1-.02-.2-.03-.3-.04.02.18.05.36.07.54.18-.13.27-.3.23-.5Zm-9.68,1.26c.19.04.4.06.62.06-.25-.03-.45-.05-.62-.06Zm-1.99,5.88l-.4.13c.72-.05,1.35-.05,1.92-.02.12-.5.26-1,.44-1.48,0,.02,0,.04.01.05-.15.43-.26.97-.41,1.44.63.03,1.18.1,1.66.21.02-.1.03-.2.05-.29.1-.43.17-.83.13-1.08.13-.23.24-.47.38-.7.07-.12.13-.24.19-.35.06-.12.14-.23.2-.35.07-.12.13-.24.2-.35.07-.12.15-.23.22-.35l.03-.04v-.02s.02,0,.02,0v-.03s.04-.05.04-.05l.06-.11c.08-.15.18-.33.33-.52.07-.1.16-.19.24-.29.04-.05.09-.1.14-.14.01,0,.03-.03.03-.03v.03s.02.06.02.06c.02.09.04.19.05.3-.06.2-.13.37-.2.52-.05.43.33.04.54.36-.02.19-.17.14-.24.26.28.83.14-.32.31,0,.04.21.09.44.15.67.03.13.07.26.1.39.9-.37,2.23-.65,3.18-1.04-1.3-1.02,2.75-.51,1.23-1.96l-.83.69c-.77,0-.77-.48-.39-.61-.95.17-.73-.01-1.13.52-4.38.11.46-1.43-3.82-1.92.49-.3,1.67-.25,1.44-.89l2.3.26.04-.87c-2.91-.07-4.62,1.04-5.95,2.47,2.04-.65,1.08.26,1.2.89.15-.21.31-.42.48-.62.15-.08.29-.15.43-.19-.15.29-.29.52-.47.73-.04.05-.09.1-.14.15-.05.05-.09.11-.14.16,0,0-.01.01-.02.02.07.07.18.13.32.18-.25.21-.49.26-.7.23-.1.11-.19.22-.29.33-.11.13-.23.27-.33.4,0,.01-.02.03-.03.04,0,0,0,0,0,0,.15-.28.31-.55.47-.81-.16-.05-.3-.15-.41-.24-.19.25-1.51.41-1.34.89-.42-1.4-3.14-1.88-4.48-2.68-.06.13-.12.27-.18.39-.07.16-.14.31-.21.46-.07.14-.11.29-.16.43-.1.27-.19.52-.26.75-.02.06-.04.11-.06.17,0,.02,0,.03-.01.05.18-.02.38-.08.63-.18-1.46,1.32,1.8.99,1.96,1.8-.82.18-2-.12-2.87-.46-.09.48-.15.92-.23,1.44-.04.36-.08.75-.13,1.23,1.63-.38,3.12-1.08,4.66-.39Zm9.41-2.86s.07.06.13.1l-.13-.1Zm-7.01-1.33s.11.15.29.3c.07-.08,0-.18-.29-.3Zm7.02-.55c.05,0,.1-.02.16-.03-.06,0-.11.01-.16.03Z"/>
  <path class="cls-4" d="m30.25,111.59s.01,0,.02,0c-.03-.02-.07-.03-.09-.04.02.02.05.03.07.05Zm2,1.31l.03-.09s-.04-.04-.06-.05c0,.05.02.1.03.15Zm33.4-7.11c.12.58.26.96.42,1.32.15.36.31.7.51,1.19-.2-.49-.32-1-.44-1.46-.13-.45-.26-.83-.48-1.05Zm24.39-17.53c.06-.09.11-.17.17-.26,0,0,0,0,0,0-.04.08-.07.16-.11.25.42-.07.88-.16,1.35-.09-.56-.86-1.43-1.19-2.42-1.23-.17.35-.33.7-.49,1.06.4.43.92.37,1.5.28Zm-44.78,23.9s-.1-.08-.14-.12c-.05,0-.11,0-.17,0l.31.13Zm21.37-4.65c.01.25.03.5.05.74.02.06.04.14.06.21.02-.27.01-.54.11-.75-.09-.18-.16-.29-.21-.2Zm-46.37-19.13s.01.03.02.05h.29s-.31-.05-.31-.05Zm6.21,21.68c.24.74.27,1.44-.94,1.99-.63-2.17-1.86-.75-3.23-1,1.43,3.16,5.13,1.08,7.61.59-.73-.45-1.58-.89-2.53-1.26-.29-.12-.59-.22-.9-.32Zm-3.56-15.82c.14.15.29.29.43.43.31.27.62.52.96.72-.25-.28-.46-.59-.66-.9-.09-.16-.18-.31-.26-.47-.07-.16-.15-.32-.21-.47-.25-.6-.47-1.19-.68-1.74-.25-.68-.47-1.32-.65-1.9-.32.06-.67.01-1-.09.64,1.54,1.23,2.9,1.67,3.97l.4.45Zm5.41-3.39s.07.08.11.12l.05.06.04.03c.09.07.18.12.26.15.16.07.34.09.5,0-.16-.05-.26-.16-.29-.27-.01-.05,0-.1,0-.14,0-.01,0-.02.02-.03,0,0,0,0,0-.02l-.02-.07c-.03-.1-.06-.2-.09-.3-.11-.34-.22-.7-.35-1.06-.32.26-.63.44-.95.56.15.25.29.5.45.74.09.08.17.16.25.24Zm.21-1.64c-.03-.08-.06-.17-.09-.25-.12-.06-.28-.08-.46-.06.02.04.03.09.04.13l.5.19Zm52.16.22l-.55-.21c.03-.05.06-.11.1-.16.01,0,.02-.02.03-.03.16-.14.34-.29.46-.37.13-.08.21-.07.23.04.27-.33.45-.53.6-.67.14-.14.24-.23.34-.29.05-.03.09-.05.14-.06.01,0,.03-.02.04-.03-.31-.15-.52-.4-.61-.81l-.59,1.22c-.62-.18-2.18-1.1-1.1-1.48l-4.43.78c1.35.8,3.99,2.49,5.34,2.07Zm-31.12,20.2c.04-.1.07-.2.11-.31-.35,0-.79-.12-1.36-.39-.97-1.85-2.07-2.44-3.97-2.99-.3,1.09-.64,2.15-1,3.17-.17.48-.34.95-.53,1.41-.02.05-.04.1-.06.14.91.32,1.86.9,2.35,1.38.86.11,2.28-.29,3.84-.63.08-.18.15-.3.2-.29-.02.1-.03.19-.04.26.17-.04.34-.07.51-.11.05-.08.11-.18.16-.28.04-.46.04-.58,0-.81-.67.76-.52.29-.22-.54Zm45.92,2l.31-.51-2.61-.11,2.3.62Zm1.29-2.16c-.87-.11-1.75-.14-2.64-.11-.06,0-.12,0-.18.01l3.21,1.14c.65.08,1.29.21,1.93.37-.74-.57-2.2-.85-2.32-1.42Zm-5.26.22s-.07.01-.11.02c-.36.08-.72.18-1.08.28.23.1.45.19.69.26.19-.04.33-.08.43-.09.13-.02.17-.02.09.01.21,0,.16.03-.08.1-.05.01-.1.03-.17.05.65.15,1.32.14,2.04-.21-.7.2-1.67.1-1.82-.41Zm9.17,1.51c.07-.13.29-.3.54-.49-.4-.18-.82-.34-1.24-.49-.3.39-.35.72.69.98Zm3.38,1.13h-1.22c.2.12.41.23.6.35l1.51.33c-.29-.24-.58-.46-.89-.68Zm-10.42-2.74l-.08-.19s-.08,0-.12,0c.07.06.13.12.19.18Zm-25.54-2.25s0,0,0,.01c.31.04.68.1,1.19.25-.54-.21-.84-.31-1.2-.26Zm-29.66-19.5l-.31-.99c-.13.4.04.7.31.99Zm7.3,3.14c-.32-.03-.7-.07-1.25-.18.56.16.88.23,1.25.18Zm29.54,20.72l.29,1.36c.14-.54-.02-.97-.29-1.36Zm-2.06-23.58c-.35.17-.48.32-.52.47.27-.09.46-.22.52-.47Zm19.75,8.18c.5-.46.9-.94,1.22-1.4.17-.23.3-.45.43-.66.11-.18.2-.33.29-.47-.26.31.32-.93,1.11-2.75-.03,0-.06,0-.09,0-.14.34-.28.69-.42,1.03-.3.61-.56,1.14-.8,1.59-.06.11-.12.22-.17.33-.03.05-.05.1-.08.15-.03.06-.07.12-.1.18-.07.11-.13.22-.19.33-.07.1-.13.2-.19.29-.25.36-.48.62-.68.82-.09.1-.18.18-.26.24-.08.07-.14.12-.19.16-.1.08-.16.11-.17.1-.02,0,.01-.05.07-.13.06-.08.14-.19.26-.33.11-.14.23-.31.37-.51.06-.1.13-.21.2-.32.07-.11.13-.23.2-.35.07-.12.13-.25.19-.38.06-.13.13-.27.17-.38.2-.48.41-.97.59-1.43.21-.53.4-1.01.52-1.35-.31,0-.62.01-.92.02-.16.29-.35.66-.57,1.06-.1.19-.21.4-.32.6h0c.08-.16.15-.32.23-.49.04-.09.09-.18.13-.27.07-.15.14-.3.21-.44.05-.11.1-.21.15-.32.02-.05.04-.1.06-.14-2.42.07-4.79.2-6.69-.35.32-.28.33-.58.23-.89l-.05.11s-.04.1-.04.1l-.02.08c-.02.09-.04.19-.12.26-.07.07-.17.12-.27.12-.05,0-.1-.01-.15-.03l-.08-.02h-.04s-.02-.02-.02-.02l-.06-.02c-.3-.1-.6-.21-.89-.32l-.42-.45c-1.5-.69-1.28-.14-2.04-.26-.15-.11-.03-.22-.09-.33-.83-.18.2.28-.15.27-.2-.07-.42-.14-.64-.21l-.18-.05c-.06-.02-.11-.03-.17-.05-.22-.07-.4-.18-.34-.3-.26.1-.55.19-.87.28,0,.05.01.1.02.16.02-.02.04-.04.06-.07,1.26,1.29-1.81.86-.7,2.34-2.96-2.02-1.82.86-4.89.42,1.39-1.76-3.05-2.38-2.92-3.23-.58.19-1.59,0-2.49-.32-.51.08-.97.17-1.33.27-2,.36-3.28.46-4.18.47-.9,0-1.44-.1-1.96-.22-.53-.12-1.05-.24-1.93-.31-.09,0-.19-.01-.3-.02,1.01.51,2.15,1.17,2.05,2.09-1.4-.64-2.93-.62-3.19.68,4.96,2.38,1.6-2.99,6.09-1.45,1.11,1.48,2.34,1.84,4.65,2.28-1.05.85-.59,1.22-1.02,2.25-2.83-3.14-7.36-.3-11.06-1.85-1.56-.92-.39-2.88-3.92-3.23l1.1-.35c-.18,0-.36,0-.55,0-.57,0-1.19-.03-1.82-.05l.04.05c-.76.16-2.05.33-2.47-.16-.11,0-.22,0-.33-.01-.09.22-.13.42-.13.59-.18-.26-.61-.43-1.67-.38.62.18,1.07.08,1.09.55-4.06-.37-.95,1.7-3.46,1.55.3.27-.03.59-.59.82-.21-.02-.42-.03-.64-.05-.25-2.26-4.95-2.61-6.23-3.94l.02.04-3.39-.99c.42.12.31.42-.07.7.03.02.06.04.08.05.21.21.39.41.51.58.12.17.2.31.23.42.03.11.02.18-.01.22-.02.02-.04.04-.07.05,0,0-.03,0-.05,0h-.06s-.12-.01-.12-.01c-.3-.03-.59-.08-.82-.09-.12,0-.22,0-.33.03-.1.03-.2.08-.33.18.16.12.23.21.17.31-.02.02-.03.05-.07.07-.03.02-.07.05-.12.07.02.45-.19.77-1.34.59-.39.16-.75.33-.97.49-.73.26-1.06.17-1.64.16-.17.15-.72.39-.76.55.17.16.4.29.68.4l-.47.17c-.59.22-1.25-.04-1.53-.6-.22-.44-.43-.87-.63-1.31-2.17.57-4.24-1.76-6.84-.9,0,0,0,0,0,.01.34-.06.72-.07,1.05-.03,0-.03-.02-.06-.03-.09.01.03.03.06.04.1.54.08.9.32.54.77-.06.03-.12.05-.18.06.19.43.38.87.58,1.3,0,.02.02.04.03.06.15.32.29.63.44.95.04.08.07.16.11.23.16.34.33.68.49,1.02.06.12.12.24.19.35.02.04.04.07.06.11.05.08.1.16.15.24.03.04.05.07.08.11.06.08.12.16.18.24.02.03.04.05.06.08.08.1.16.19.24.28.03.04.07.07.1.11.05.05.11.11.16.16.04.04.09.08.13.12.05.04.1.09.15.13.05.04.09.08.14.12.05.04.1.08.15.12.1.07.19.14.29.21.04.02.07.05.11.07.07.04.14.08.2.12.03.02.06.04.1.05.26.15.53.27.81.38,0,0,0,0,0,0,.09.03.18.07.27.1.02,0,.04.01.06.02.09.03.19.06.28.08h0c.05.02.1.04.16.05.48.15,1.03.24,1.53.27.5.03.95-.01,1.24-.04.28-.03.41-.03.27.05-.07.04-.21.09-.44.16-.23.06-.54.13-.96.16.45,0,.88-.06,1.28-.15.2-.04.4-.1.6-.16.2-.06.37-.13.54-.19.69-.24,1.32-.47,1.92-.68,1.2-.42,2.23-.78,3.13-1.1.9-.31,1.68-.58,2.37-.82.34-.12.66-.22.97-.33l.11-.04.07-.02s.09-.03.14-.04c.09-.05.18,0,.27.01,1.1.23,1.98.42,2.95.63.5.1,1.02.21,1.61.34.26.08.5.16.7.25-.03.1-.09.25-.14.37,0,.08-.02.16-.02.24,0,.04,0,.08-.01.12-.02.11-.03.22-.05.32-.06.43-.12.83-.17,1.19-.1.73-.19,1.32-.26,1.81-.13.98-.19,1.54-.2,1.93-.01.38.02.59.03.85.02.26.02.57-.07,1.16,0,.02-.01.04-.02.07,1.53,2.04,3.56,1.88,5.66,1.67.13-.26.27-.43.43-.6.38-.41.81-.82,1.02-2.7-.46.5-.41-.13-.27-1.04.07-.45.16-.98.23-1.47.07-.49.12-.95.1-1.26.18-1.02.43-1.37.75-2.06-.01-.1-.01-.25-.01-.41,1.56.38,3.76.65,5.87.74.95-.25.4-.36-.35-.42-.75-.06-1.71-.1-1.6-.19-.14-.14.44-.11.9-.17,1.05.08,2.12.25,2.17.53l.64-.3c.76-.01,1.54,0,2.35,0,.2,0,.41,0,.61,0,.13,0,.14,0,.19,0h.13c.16.03.32.04.48.06,0,.15,0,.31,0,.47,0,.07,0,.14,0,.21.02.19.05.38.07.58-.09-.18-.17-.34-.23-.49,0-.02-.02-.04-.02-.05h-.01s-.02-.02-.02-.03c-.01-.02-.02-.03-.03-.05-.03-.07,0-.15.04-.38-.01,0-.02.01-.04.02-.24.19-.29.29-.32.34-.02.05-.01.04.04,0,.04-.02.14,0,.19.09,0,.01.01.03.01.03,0,0,0,0,0,.01v.05s.02.07.03.1c.02.13.03.26.04.38.01.24-.01.45-.08.6.16-.18.36,1.09.49,1.78l.08-.64-.33-.86c-.09-1.91.57.05.73.12.25,1.24.18,1.94.11,2.68-.05.74-.1,1.53.27,2.93.21.04.11-.42.32-.25.27.76.42.57.66,1.84.02.68.25,1.24.5,1.81.09.2.18.41.26.62.12-.04.27-.07.47-.07-.67-2.5-1.27-5.5-1.99-8.09.22-.32-.09-1.29-.02-1.68.12.14.16-.05.19-.3,0-.04,0-.08.01-.13.18,1.14.38,2.25.6,3.35.02.08.03.17.05.25.09.45.18.9.28,1.34.03.12.05.23.08.35.09.42.19.83.28,1.24.03.12.05.23.08.35.1.42.21.84.31,1.26.02.09.05.18.07.27.1.39.21.78.32,1.17.22-.31.69-.59,1.23-.75-.1,2.89,3.46,3.66,5.32,4.99-1.88-4.97-3.31-10.84-4.15-17.13,1.99-.22,3.96-.49,5.9-.81l2.71,1.02s-.09-.03-.14-.05c-.45-.16-.9-.33-1.35-.5l-.68-.25-.34-.12-.17-.06-.04-.02s-.03,0-.04,0l-.09.02c-1.88.33-3.85.6-5.69.81-.02,0,0,.02,0,.03v.04s.02.08.02.08l.02.16.05.32.09.65c.07.44.14.87.21,1.31.15.89.31,1.77.49,2.66.35,1.77.76,3.53,1.22,5.28.47,1.75,1,3.49,1.61,5.2.15.43.31.85.47,1.28.02.07.05.13.08.2.26.2.47.41.63.65v-.05s.68.28.68.28l-.27-.54c-1.07-2.72-1.95-5.58-2.65-8.55-.35-1.48-.67-2.99-.94-4.53-.07-.38-.13-.77-.2-1.16-.07-.39-.13-.78-.18-1.17l-.07-.46c-.01-.09-.02-.18-.03-.27-.02-.17-.05-.36-.06-.52.19-.02.39-.04.58-.05l.28-.03c.22-.03.44-.05.66-.08.89-.11,1.78-.23,2.68-.37l.2-.03h.07s.05-.02.07,0l.37.15c.42.16.85.33,1.27.49.85.33,1.71.66,2.57.99.86.33,1.73.67,2.61,1.01.44.17.88.34,1.32.51.22.08.44.17.66.26l.19.07.2.07c.14.04.27.09.41.12.55.15,1.13.23,1.71.25.58,0,1.16-.04,1.74-.16,1.14-.24,2.24-.77,3.16-1.52-.97.88-2.04,1.4-3.1,1.68-1.07.27-2.17.31-3.3.06-.28-.06-.57-.14-.85-.24-.12-.05-.25-.09-.38-.14-.12-.04-.24-.09-.36-.13-.48-.19-.99-.38-1.55-.6-1.11-.43-2.38-.94-3.93-1.57-5.25-1.46-2.69-.57,1.76.99,1.11.39,2.34.82,3.6,1.27.16.06.31.11.47.17.14.05.36.13.56.19.4.12.82.21,1.24.27.84.12,1.69.08,2.49-.06.8-.15,1.56-.41,2.24-.77.67-.35,1.26-.78,1.76-1.24Zm-37.52-1.56c-.95.27-1.65.26-2.46.25,0-.28,0-.56-.07-.63-.23.1-.46.3-.7.57.03-.22.06-.44.09-.66,2,.11,4.01.16,6.04.16.59,0,1.18,0,1.78-.01,1.77-.03,3.54-.1,5.29-.21-3.25.37-6.71.31-9.96.53Zm9.97-.53s0,0,0,0c0,.01,0,.03,0,.04,0-.01,0-.03,0-.04Zm17.81-3.86l.94.73-1.67.2.73-.94Zm-4.44,4.43c-.96-.02-1.23.14-1.13-.74-.46-.37-1.22.1-1.69-.26,1.86-.78,1.75.63,2.82,1.01.25,0,.53.02.89.08-.39.05-.65,0-.89-.08Zm6.06-.72c-.5-1.77-3.99-.71-4.77-1.17,1.82-.39,5.95-.8,4.77,1.17Zm-39.1-3.08s.12.02.16.02c-.01,0,0-.02-.01-.02-.05,0-.09,0-.15,0Z"/>
  <path class="cls-5" d="m32.21,112.83c-.06-.03-.25-.17-.5-.34-.12-.09-.26-.19-.4-.29-.15-.09-.3-.19-.44-.28-.28-.18-.55-.32-.69-.39,1.24.78,2.34,1.7,3.1,2.42.07.06.13.12.19.18.04.03.07.06.1.08.03.02.06.05.09.07.01,0,.03.02.04.03,0,0,.01,0,.02,0,.04,0,.06,0,.07-.04-.02-.02-.03-.04-.05-.06-.05-.05-.1-.11-.15-.17l-.04-.04-.02-.02-.02-.02-.03-.03c-.08-.08-.16-.16-.24-.24-.16-.16-.32-.33-.49-.48-.67-.64-1.42-1.2-2.04-1.65l.61.45c.2.15.39.32.59.48.3.26.36.36.3.33Zm-26.64,10.59c0-.28-.02-.33-.11-.03-.08.3-.21.95-.27,2.09.01.56.05,1.12.12,1.67.13,0,.26,0,.4-.01,0-.02,0-.05,0-.07-.23-1.55-.13-3.07-.13-3.64Zm44.82-5.85c.16.2.34.39.49.5.15.12.27.17.3.13-.17-.2-.41-.51-.56-.74.05.08.1.16.14.23.1.28-.24-.1-.39-.12Zm16.19-9.28c-.2-.49-.32-1-.44-1.46-.13-.45-.26-.83-.48-1.05.12.58.26.96.42,1.32.15.36.31.7.51,1.19Zm43.65,13.18c-.03-.16-.08-.32-.12-.48-.05-.16-.09-.33-.14-.49-.11-.32-.21-.66-.34-.98-.24-.66-.55-1.31-.91-1.96-.35-.65-.77-1.28-1.23-1.9-.46-.62-.99-1.21-1.56-1.77-1.14-1.13-2.52-2.11-4.05-2.88-1.54-.76-3.24-1.3-5.03-1.52-.89-.11-1.8-.15-2.71-.12-.91.05-1.82.15-2.73.35-.9.2-1.79.47-2.66.82-.86.36-1.7.78-2.49,1.28-.79.5-1.54,1.07-2.24,1.7-.84.79-.96.96-1.08,1.09-.05-.03-.11-.07-.16-.1-.03,0-.07-.02-.1-.03-.02,0-.03,0-.05-.01,0,0,0,0-.01,0l-.05-.02s-.07-.03-.1-.04c-.26-.1-.49-.18-.7-.25-.21-.07-.4-.12-.56-.16-.16-.04-.3-.08-.42-.1-.47-.1-.57-.07-.4,0,.17.08.63.23,1.24.49.16.06.32.14.49.21.09.04.17.08.26.12l.07.03.03.02h.01s.05.03.05.03c.15.08.31.18.48.29.08-.07.16-.17.24-.27.12-.13.24-.25.37-.38.22-.21.46-.44.69-.66.25-.21.49-.42.74-.62,1.02-.81,2.13-1.47,3.15-1.94.26-.11.5-.23.74-.32.24-.09.47-.18.68-.26.22-.07.42-.13.61-.19.09-.03.18-.06.27-.08.09-.02.17-.04.25-.06.31-.07.54-.13.67-.15.13-.02.17-.02.09.01.21,0,.16.03-.08.1-.12.04-.28.09-.49.15-.2.06-.44.13-.7.22-.26.09-.55.18-.84.31-.15.06-.3.12-.45.19-.15.06-.31.14-.46.22-.15.08-.31.15-.47.23l-.46.25-.23.13c-.07.05-.15.09-.22.14-.15.09-.29.18-.43.27-.79.49-1.54,1.06-2.23,1.66-.17.16-.33.31-.5.47l-.12.12-.08.09-.16.17-.16.16c-.05.06-.09.1-.13.14l-.12.13-.06.07-.03.03v.02s-.02.01-.03,0c-.25-.16-.49-.3-.71-.42-.1-.05-.21-.1-.31-.15-.11-.05-.22-.1-.32-.14-.21-.09-.42-.18-.63-.25-.83-.31-1.61-.52-2.27-.66-.17-.04-.33-.07-.48-.09-.15-.03-.3-.05-.43-.07-.14-.02-.26-.04-.38-.06-.06,0-.12-.02-.17-.02-.03,0-.05,0-.08-.01h-.04s0,0,0-.01c-.16-.05-.23-.09-.22-.14l-.2.04c-.06-.06-.12-.15-.18-.23l-.1-.13s-.1-.17-.15-.28l-.36-.69-.35-.7c-.89-2.25-1.64-4.6-2.27-7.03-.31-.01-.62-.03-.94-.04,0,.02,0,.04.01.06.47,1.75,1,3.49,1.61,5.2.15.43.31.85.47,1.28.16.43.33.84.5,1.27.17.42.35.83.53,1.25.08.2.18.39.26.58l.13.29.07.14.03.07.02.04v.02s.02,0,.03,0c.29,0,.59-.03.88-.02.07,0,.15,0,.22,0h.24c.16.02.32.03.48.05.63.06,1.26.16,1.88.31.62.15,1.22.35,1.81.59.15.06.29.12.44.19.13.06.26.12.39.18.26.13.51.27.76.41.01.01.02,0,.02,0l.02-.03.04-.05.08-.11.17-.21.17-.21.19-.21c.13-.14.24-.27.37-.41l.42-.42c.57-.54,1.18-1.06,1.83-1.5.32-.23.66-.43,1-.64.17-.1.35-.19.52-.28l.26-.14.27-.13c.71-.35,1.45-.62,2.2-.86,3.02-.91,6.3-.86,9.25.14.84.25,1.63.57,2.36.93.73.36,1.41.78,2.04,1.24,1.26.91,2.31,1.98,3.18,3.17.87,1.18,1.57,2.49,2.08,3.92.25.72.47,1.46.61,2.24.15.78.24,1.6.28,2.44.02-1.14-.09-2.38-.39-3.67Zm.3,3.67c-.06.22-.12.47-.17.76-.03.15-.07.3-.11.46-.04.16-.07.34-.12.52-.14.58-.33,1.24-.58,1.96,0,0,0,0,0,0,.03-.14.06-.27.09-.41,0-.04.02-.09.02-.13.02-.1.04-.19.05-.29,0-.05.02-.1.02-.14.02-.1.03-.2.04-.3,0-.04.01-.09.02-.13.02-.14.03-.28.05-.42,0,0,0,0,0,0,.01-.14.03-.28.04-.42,0-.04,0-.09,0-.13,0-.1.01-.2.02-.3,0-.05,0-.1,0-.15,0-.1,0-.2,0-.3,0-.04,0-.09,0-.13,0-.14,0-.29,0-.43-.19-8-6.84-14.49-14.84-14.49h-.05c-4.68.01-8.95,2.17-11.72,5.78-1.98-1.18-4.24-1.82-6.59-1.82-.22,0-.44,0-.66.02-1.43-3.02-2.66-6.51-3.67-10.32-1.57-.07-3.3-.14-5.13-.22.09.38.19.76.28,1.13.02.09.05.18.07.27.13.48.26.96.39,1.43,0,.02,0,.03.01.05.29,1.03.6,2.03.93,3.02h0c-.39-.92-.78-2.35-.98-1.64-.38-1.28-.73-2.76-1.09-4.29-.22,0-.44-.02-.67-.03.07.19.14.45.22.87.02.68.25,1.24.5,1.81.25.58.53,1.17.64,1.95-.21.74-.74-1.55-.93-1.21.01.25.03.5.05.74.13.39.19.87.29,1.33.09.46.21.89.46,1.15l-.15.08c.52,1.03,1.11,2.84,1.62,3.35.07.2.13.4.2.6l.03.08v.04s.02,0,.02,0v.03s.02.07.02.07c.01.04.02.09.04.13l.02.06v.03s.02.02.02.02h0s0,.01,0,.01c-.06.03-.12.06-.18.1l-.09.06h-.01s0,0,0,.01l-.11.08-.23.16c-.6.43-1.16.92-1.68,1.45-.52.53-1,1.11-1.42,1.69l-.13.21-.09.15-.09.16c-.03.05-.05.12-.09.16-.08-.06-.16-.12-.24-.18-.03-.08-.06-.15-.07-.22l-.04-.19s-.03-.03-.04-.04l-.02-.02h0s-.02-.02-.02-.02l-.04-.03c-.11-.07-.22-.13-.32-.19-.2-.11-.37-.18-.52-.24-.29-.11-.49-.14-.65-.15-.33,0-.5.07-1.05-.03-.23-.13-.09-.23-.21-.35-.31-.07-.45-.07-.48-.05-.03.02.04.06.13.11.18.1.44.23.2.22-.6-.18-1.31-.28-1.96-.35-.65-.08-1.25-.12-1.65-.24-.13.19-.26.38-.38.58.51.14.95.35,1.23.57-.09,0-.17,0-.26-.01-.13,0-.25,0-.38,0-.19,0-.38,0-.57.02,0,0-.02,0-.03,0-.18,0-.36.02-.54.04,0,0,0,0,0,0-.01,0-.03,0-.04-.01-.36-.11-.88-.16-.34-.4-.64.02-1.11.08-1.48.12-.36.05-.62.08-.84.1-.11,0-.22.01-.32.01-.1,0-.21,0-.32,0-.23,0-.49-.01-.87,0-.18.11-.33.2-.45.29-.12.09-.21.17-.28.24-.04.04-.07.07-.09.1,0,.02-.01.04-.01.07,0,.04,0,.09,0,.13,0,.17.05.32-.03.52-.25.25-.53.47-.75.62-.05-.07-.08-.17-.12-.26-.04-.09-.07-.18-.11-.26-.07-.17-.14-.33-.2-.47l-.1-.2-.03-.05s0,0-.01-.02l-.03-.04-.11-.15c-.15-.2-.3-.39-.49-.56.32.08.41,0,.34-.22-.07-.21-.31-.55-.65-.91-.34-.36-.78-.75-1.24-1.09-.06-.04-.12-.08-.17-.13l-.03-.02h-.01s-.03-.02-.03-.02c-.03-.02-.07-.04-.1-.06-.07-.04-.13-.08-.19-.11-.03-.02-.06-.04-.08-.05,0,0,0,0-.01,0h0s0-.03,0-.03c0-.01,0-.02,0-.04,0-.02,0-.04,0-.06,0-.04-.02-.07-.04-.09-.04-.05-.11-.09-.17-.14-.06-.05-.11-.12-.11-.25,0-.02,0-.03,0-.05,0,0,0-.02,0-.03,0-.02,0-.03.01-.05.02-.07.04-.14.07-.22.06-.16.14-.36.24-.6.37-.45.27.12.18.65-.02.13-.04.26-.06.37,0,.01,0,.03,0,.04,0,0,0,.01,0,.02,0,0,0,.02.02.03.01.02.02.03.04.04.03.02.06.03.11.03.02,0,.04,0,.07,0,0,0,.01,0,.02,0,0,0,0,0,.02-.02.02-.03.05-.06.08-.1.09-.34.18-.67.26-1.01-.02-.72-.17-1.34-.1-2.14.16-.43.38-1.09.49-1.07-.18.9.17.73.63-.13.04-.46.04-.58,0-.81-.67.76-.52.29-.22-.54.15-.42.34-.93.48-1.42.15-.49.23-.97.21-1.32.19-1.92.52-2.35.9-2.76.16-.18.34-.36.5-.65-2.37-.11-4.61-.22-6.61-.34-.47,2.12-1.04,4.1-1.7,5.97-.17.48-.34.95-.53,1.41-.09.23-.18.46-.27.69-.1.23-.19.45-.29.68-.19.45-.39.89-.59,1.33-.07.16-.15.3-.22.45l-.11.22-.05.11-.03.05v.03s-.03,0-.04,0c-.24-.04-.48-.07-.72-.09h-.09s-.13-.01-.13-.01h-.28c-.19-.01-.38-.02-.56-.01-.75.01-1.5.09-2.24.23-.74.14-1.46.34-2.17.6-.17.07-.35.13-.52.21l-.22.09s-.1.04-.14.07c-.19.09-.38.19-.56.3,0,0-.01,0-.02,0l-.02-.02-.03-.04-.06-.08-.13-.16-.07-.08-.08-.09-.17-.18-.09-.09-.04-.05s-.03-.03-.05-.05l-.27-.26c-.18-.17-.35-.34-.55-.5.08.05.16.11.23.15.07.05.13.1.19.14.12.08.22.15.3.21.16.1.27.16.29.14.08-.01-.11-.28-.5-.71-.2-.21-.46-.47-.77-.75-.16-.13-.33-.28-.52-.43-.18-.15-.39-.29-.61-.45-.86-.61-1.97-1.25-3.27-1.75-2.59-1.03-5.99-1.41-9.15-.69-1.58.34-3.08.93-4.38,1.67-.66.36-1.26.77-1.82,1.18-.27.21-.55.42-.79.63-.12.11-.25.21-.37.32-.12.11-.23.22-.35.32-.58.55-1.07,1.08-1.47,1.59-.41.5-.73.98-1,1.41-.54.87-.86,1.57-1.09,2.14-.11.28-.19.53-.27.75-.07.22-.12.42-.16.6-.09.35-.12.64-.17.93-.04.29-.07.58-.12.96-.02.19-.05.4-.08.64-.02.24-.05.52-.08.84-.04.63-.09,1.44-.03,2.49.02.26.03.54.06.83,0,.04,0,.09.01.13.79-.04,1.56-.12,2.27-.27,1.09.1,1.52.81.58.95l3.23.87c-.02-.06-.05-.13-.07-.19-.01-.05-.03-.09-.04-.14-.02-.08-.05-.17-.07-.25-.02-.06-.03-.13-.05-.19-.02-.08-.04-.15-.05-.23-.02-.08-.03-.16-.05-.25-.01-.06-.02-.12-.04-.18-.02-.14-.04-.28-.06-.42,0-.05-.01-.11-.02-.16-.01-.1-.02-.2-.03-.3,0-.06,0-.11-.01-.17,0-.1-.01-.21-.02-.31,0-.05,0-.1,0-.15,0-.15,0-.31,0-.46,0-.15.01-.3.02-.44,0-.03,0-.07,0-.1.01-.14.02-.27.04-.4,0-.04.01-.09.02-.13.01-.1.03-.2.05-.3.01-.07.02-.14.04-.21.02-.09.03-.17.05-.26.01-.07.03-.13.04-.2.02-.1.05-.21.08-.31.23-.59.51-1.16.84-1.68-.36.92-.66,1.94-.81,3.03-.15,1.09-.15,2.26.05,3.42.06.34.14.68.24,1.01l1.71.46c-.11-.22-.2-.44-.29-.67-.37-.96-.56-1.99-.56-3.04,0-1.04.18-2.09.56-3.08.75-1.98,2.29-3.69,4.23-4.65.97-.48,2.02-.77,3.1-.85.13-.02.27-.01.4-.02.13,0,.27,0,.41,0,.13,0,.27,0,.4.01l.4.04c.13,0,.27.03.4.06.13.02.27.04.4.07.26.07.53.12.78.21.5.24.96.56,1.39.89,1.04.62,1.65,1.19,2.08,1.61.11.1.2.21.29.29.09.09.17.17.24.24.14.15.26.28.38.38.11.11.2.2.29.3.05.05.1.09.14.14.05.05.09.1.14.16.05.06.1.12.15.18.03.03.05.07.08.11.01.02.03.04.04.06.02.03.04.06.06.1.18.28.41.58.77.89.16.16.26.26.33.34.07.08.1.13.13.17.05.09.05.16.25.31.52.24.92.29,1.18.31.27.02.41,0,.46,0,.1-.03-.17-.04-.51-.11-.34-.07-.74-.23-.94-.35-.1-.06-.15-.1-.14-.11.02,0,.1.03.3.09.49.2,1.04.29,1.6.24.55-.05,1.11-.24,1.58-.55.12-.08.23-.16.34-.25.11-.09.22-.21.27-.25l.19-.18.2-.17c.27-.22.56-.43.85-.61.3-.17.6-.32.9-.44.3-.11.6-.21.89-.27.57-.13,1.1-.14,1.51-.08.27-.2.55-.36.86-.54-1.14-.27-2.26-.27-3.04-.23.09-.03.19-.06.29-.09,0,0,0,0,.01,0,.27-.07.54-.13.82-.18.02,0,.05,0,.07-.01.06-.01.13-.02.19-.03.05,0,.11-.01.16-.02.05,0,.11-.01.16-.02.07,0,.14-.01.21-.02.04,0,.09,0,.13,0,.12,0,.23,0,.35,0s.23,0,.34,0c.04,0,.07,0,.11,0,.08,0,.16.01.23.02.04,0,.08,0,.12.01.1,0,.19.02.29.04.06,0,.13.02.19.03.04,0,.07.01.11.02.25.04.49.1.73.17.04.01.07.03.11.05.21.11.43.22.62.33.19.12.35.24.45.32.19.17.11.21-.53,0,1.36.66,2.16,1.43,2.67,2.07.25.33.45.61.59.89.16.26.25.51.34.73.02.06.04.11.06.16.02.05.03.11.05.16.03.11.05.21.08.31.06.2.07.42.1.64.04.22.02.46.02.73,0,.08,0,.17-.01.26.15.06.31.12.46.18.6-1.42,2.23-2.24,2.93-3.21,2.59-.16,5.22-.29,8.06-.44,3.86,1.14,7.65,2.23,11.63,2.69.01-.01.03-.02.05-.04.04-.19.1-.41.17-.68.08-.19.16-.41.27-.65.06-.11.13-.24.2-.36.04-.06.07-.13.11-.2.04-.06.09-.13.13-.19.22-.24.33-.35.39-.35.06,0,.02.07-.03.22-.03.07-.07.16-.12.26-.04.1-.11.2-.15.33-.09.24-.22.51-.29.79-.04.14-.09.26-.11.39.18-.14.36-.28.54-.42.16-.43.37-.84.63-1.24.08-.15.16-.31.23-.46.02-.03.04-.07.06-.1.15-.34.3-.68.47-1.04.12-.03.23-.06.34-.09,0,0,.02-.02.02-.03.15-.17.32-.34.51-.5-.01,0-.02-.02-.03-.03-.2-.01-.36-.05-.48-.12.15-.33.31-.66.47-.99.81-.06,1.06.13,1.27.34.07-.03.14-.07.21-.1.53-.14,1.21-.3,1.77-.29.56-.03.98.06.99.11-.27,0-.49,0-.67.02-.18.03-.32.06-.42.08-.2.05-.24.11-.15.16.09.05.31.09.63.13.32.05.75.13,1.25.26.48.04.79.11,1.03.15.24.05.42.09.66.14-.43-.32-.73-.48-.87-.59-.14-.1-.13-.14,0-.12.07,0,.17.03.3.07.12.04.28.09.45.16.34.14.76.36,1.2.66.11.08.22.15.33.24,0,0,.01,0,.02.01.37,0,.72.05,1.08.14-.39-.05-.37.2-.52.34.03.03.05.05.08.08.02.02.05.05.08.08.74-.04,1.45-.04,2.05.01-.42-.59,1.35-.29,1.8-.69l.11.06c-.02-.19.54-.35.96-.46.04-.09.08-.18.12-.26.02-.06.05-.11.07-.17.03-.05.05-.1.08-.15.05-.1.09-.2.14-.29.07-.13.14-.25.22-.37.08-.12.15-.24.22-.35.16-.21.31-.43.47-.61.32-.37.64-.69.94-.95.61-.53,1.18-.84,1.66-1.07.48-.22.89-.33,1.25-.4.18-.03.35-.05.5-.07.16,0,.31-.01.47-.02.08,0,.15,0,.23,0,.08,0,.15,0,.23.01.16,0,.32,0,.49.02.17.01.36.03.56.03.2.02.42.04.66.05.48.05,1.06.11,1.77.27.35.08.74.18,1.16.32.42.15.87.33,1.36.57-.5-.47-.45-.55,0-.4.45.16,1.28.61,2.1,1.37.41.38.82.82,1.19,1.32.37.49.69,1.04.95,1.58.52,1.09.78,2.19.91,2.94.11,1.28-.07,2.17-.29,2.9-.04.14-.09.27-.14.39,1.93.8,3.93,1.52,5.98,2.15.14-.53.27-1.1.36-1.65.11-.74.18-1.46.17-2.03,0-.14,0-.28,0-.4,0-.12-.01-.24-.02-.34-.01-.2-.03-.35-.05-.44Zm-41.27-14.17c.14.4.28.8.43,1.19,0,0,0,0,0,.01.15.39.3.78.45,1.17,0,0,0,0,0,0-.02-.02-.03-.03-.04-.04-.28-.7-.69-1.61-.83-2.33,0,0,0,0,0,0Zm1.4,5.19s-.08.05-.13.07c-.16.09-.31.18-.46.27-.02.01-.05.03-.07.04-.37.23-.74.48-1.09.75-.23.09-.45.19-.68.3.31-.41.75-.77,1.26-1.06.14-.08.23-.13.36-.19.12-.05.24-.11.37-.16.14-.05.27-.11.41-.16l.44-.16h.03s0-.03,0-.03v-.05s-.04-.11-.04-.11l-.06-.22s-.03-.1-.05-.15c.08.19.17.39.25.58-.19.09-.37.18-.55.28Z"/>
  <path class="cls-8" d="m109.89,120.27c-.02-.06-.04-.13-.06-.19-.09.07-.1.14.06.19Zm-23.89,1.47l-.88.41c.13,0,.29.04.45.06.04-.13.19-.3.43-.47Zm-3.48,1.02c.22.12.45.21.69.27l1.91-.88c-1.35-.1-1.08.56-2.6.61Zm27.74-1.17s-.02-.07-.02-.11c-.02-.11-.05-.23-.08-.34-.06,0-.13,0-.19,0,.05.17.1.34.15.51.05-.02.1-.04.15-.06Zm-24.53.87l.15-.21c-.12-.02-.2-.03-.3-.04-.03.11,0,.2.16.25Zm-37.24-2.11c-1.14.36-3.01.57-5.01.57.94.56,1.54,1.17,1.96,1.69.25.33.45.61.59.89.16.26.25.51.34.73.02.06.04.11.06.16.02.05.03.11.05.16.03.1.05.19.07.29.38-.15.71-.28.94-.37,1.51-.09,3.12-.07,4.05.08l-.47.09c-7.13-.03-4.12.94.15,2.22-1.49-.05-3.02-.14-4.57-.22,0,0,0,0,0,0,0,.07-.02.15-.02.23,0,.08-.02.13-.02.32.05.37.14.7.27.98.06.15.13.27.2.4.08.12.15.24.23.34.32.41.65.67.95.85.6.34,1,.37,1.25.37.13,0,.23-.02.31-.05.08-.02.16-.05.24-.08.16-.06.34-.11.67-.2.63-.1,1.19-.39,1.63-.78.22-.2.41-.43.56-.67.08-.12.14-.25.2-.38.05-.12.1-.24.14-.36.3-.79.8-1.45,1.39-1.97.3-.25.62-.47.95-.65.34-.17.68-.33,1.05-.43.36-.1.73-.19,1.1-.22.19-.03.38-.03.56-.04.09,0,.19,0,.28,0,.1,0,.19,0,.29.01-.59.14-.54.29-.15.38.1.03.21.07.35.1.07.02.14.04.22.07.08.02.16.04.24.08.33.11.71.28,1.1.51.39.23.78.54,1.12.92.34.38.64.82.84,1.3.05.14.11.27.16.41.05.12.09.24.15.36l.09.17.1.16c.27.43.62.81,1.02,1.08.79.57,1.74.77,2.54.69.52-.04.97-.19,1.34-.37.37-.19.67-.42.91-.65.47-.46.7-.92.82-1.28.13-.37.15-.65.15-.88,0-.11-.01-.22-.02-.31v-.04s0-.02,0-.02v-.04s-.03-.08-.03-.08c-.03-.11-.05-.22-.07-.37-.03-.15-.02-.33,0-.58,0-.2.07-.44.15-.73-1.09.06-2.05.1-2.5-.34,1.09-.28,1.97-.4,2.8-.46.01-.02.02-.05.03-.07.06-.11.13-.24.2-.36.04-.06.07-.13.11-.2.01-.01.02-.03.03-.05-1.59-.05-3.13-.07-4.57-.06l3.23-4.52c0-.06.06-.16.22-.3l-.22.3c0,.19.69.02,1.45-.11-.16.2-.33.45.58.42,1.82.35,2.82-.56,4.14-.47l-.41.08c1.24.2,2.83.15,3.79-.22,1,.78-3.59.18-1.66.86-1.37-.26-3.33.31-4.39.34.67.07,1.31.22,1.81.41.02,0,.03-.02.05-.02.53-.14,1.21-.3,1.77-.29.56-.03.98.06.99.11-.27,0-.49,0-.67.02-.18.03-.32.06-.42.08-.2.05-.24.11-.15.16.09.05.31.09.63.13.17.03.38.06.61.11.21-.52-.68-1.1,1.51-1.31l2.3.16.8-.87c1.39,0-.85.7,1.27.64.58-.41,1.95-.03,2.37-.3-.06.2-.09.41,1,.43.07-.1-.03-.44.83-.43.59.86-2.2.17-1.2.95.51,0,.87-.03,1.13-.08,0,0,0,0,0,0,.08-.12.15-.24.22-.35.16-.21.31-.43.47-.61,0,0,0,0,.01-.01-.08,0-.2-.03-.37-.04.01-.14.29-.15.54-.16.07-.07.13-.14.2-.21-.34,0-.68.07-.98.14.74-.27-1.21-.57-1.95-.58-1.7.43-5.18.23-7.51.34.2-.04.61-.12.35-.25-3.31.04-4.68-.22-8.47,0l-.45.62c-3.31.04-1.59,1.74-2.4,1.91-.73.05-1.36.45-1.99.13l.35-.25c-2.07.23-.65.66-2.49.58-1.49.39,1.31.09.36.46-1.97-.14-1.22,1.22-4.29.68.15-.21-.34-.73,1.46-.82l-1.76-.45c2.07-.23.81-.16,2.93-.23.98-.64.75-1.04,1.65-1.57-.8.16-.64.66-1.84.64-1.44-.16.23-.31.37-.52-1.91.74-2.13-.64-3.84.05.33.74,0,.71,1.23,1.18-1.21.24-2.76-.25-2.64-.9l-.25.58c-.28-.14-1.25-.15-1.31-.3l-.41.29c.89.44,1.61.66,3.14.44-.62.39.85.99-1.14,1.12-.86,0-.1-.33-.16-.5-4.47.45-4.49-.97-8.02-.63.88-.26,3.03.11,4.72-.32-.47-.23-.97-.22-1.47-.14-.09.07-.19.14-.27.2-.03-.04-.05-.09-.07-.14-.48.09-.94.21-1.37.18.88-.27,1.03-.47,0-.71l-.43.35c-.62,0-1.73.04-1.82-.13-.03.13.25.23.81.34Zm19.6,5c.47,0,.73.03.86.08-.34-.02-.68-.04-1-.06.06,0,.08,0,.14-.02Zm4.34-6.3l-1.21-.09c.47-.05.92-.06,1.21.09Zm-7.17,5.67c.39.13.5.31.61.52-.32-.02-.63-.04-.94-.05l.33-.47Zm-11.72-.3c.12-.65,2.04-.67,2.61-1.23.48-.18,2.73-.19,2.23.27-1.57-.22-1.42,1.26-2.88.4-.23.4.15.56.72.64-.19.08-.3.17-.32.27-.57-.02-1.11-.04-1.62-.05-.45-.05-.86-.12-.74-.28Zm33.14-3.04c-.26.11-.49.23-.68.36l.65-.3s.02-.04.03-.06Zm-31.68-1.37l.29-.21c-.25.1-.32.16-.29.21Zm47.37-.33s0,0,0,0l1.19-.16-.12-.06-1.08.21Zm6.91-.4c.09,0,.18,0,.26,0-.19-.49-.42-.98-.68-1.46-.11.01-.22.03-.34.04.27.47.53.95.75,1.45v-.02Zm.07,2.17c-.03-.1-.06-.2-.09-.3-1.07,0-2.15-.02-3.03-.01.22-.3-1.16-.36-.94-.83-.8.07-1.6.13-2.26.28.22.34.42.69.58,1.05.06.13.12.26.17.39,1.87-.04,4.44.23,4.34-.64.62-.04.97,0,1.22.07Zm-.42-1.26c-.08-.21-.17-.42-.26-.62-.66.45-1.8.6-2.98.7.8.03,2.16.05,3.18.07l.06-.15Zm-61.23-.23s.02-.03.04-.05c-.03.02-.03.03-.04.05Zm0,0s-.02.04,0,.05c0-.02,0-.03,0-.05Zm.04-.05c.07-.06.18-.12.35-.2-.19.08-.29.14-.35.2Zm57.57.33s-.01.03-.02.05c.13-.01.27-.03.4-.04-.14,0-.29-.01-.39-.02Zm-5.94-2.48c-.5-.47-.45-.55,0-.4.45.16,1.28.61,2.1,1.37.21.19.42.4.62.63.49-.14.99-.27,1.51-.38.15.48,3.29.37,5,.47-.24-.54-.52-1.06-.82-1.56-1.42.04-3.03-.14-4.32-.39.25.13.71.21.44.36-1.34.18-2.35-.33-1.73-.72-.85.4-2.69.07-4.36,0,.07.02.13.04.2.06.42.15.87.33,1.36.57Zm-88.35,7.83c-.17-.21-1.14-.11-1.65-.16.61.12,1.11.69,1.65.16Zm-1.25-.91l-.4.08c.91-.04,1.69-.03,2.37,0,0-.01,0-.02,0-.03.01-.14.02-.27.04-.4,0-.04.01-.09.02-.13.01-.1.03-.2.05-.3.01-.07.02-.14.04-.21.02-.09.03-.17.05-.26.01-.07.03-.13.04-.2.02-.1.05-.21.08-.31.08-.21.17-.41.26-.61-.39.13-1.36.24-1.21.49-.45-.93-3.49-1.21-4.71-1.77,0,.06-.02.12-.03.18-.04.29-.07.58-.12.96,0,.09-.02.18-.03.28.05-.01.1-.02.16-.04-.06.04-.12.07-.16.1-.01.09-.02.19-.04.3,0,.04,0,.09-.01.13.51.24,2.07.25,2.18.6-.63.09-1.47,0-2.22-.14,0,.08-.02.17-.02.26-.02.32-.04.69-.05,1.11,1.27-.22,2.48-.44,3.72-.09Zm-3.66,2.16s0,.08.01.12c.27-.01.44-.03.37-.12-.14,0-.26,0-.38,0Zm3.64-5.28c3.03.47-.23-.63,2-.56-1.31-.15-1.95-.72-1.82-.9-1.36.45,2.16,1.08-.19,1.46Zm2-.56c.19.02.4.04.62.04-.25-.02-.45-.03-.62-.04Zm70.3,1.43c.06.05.12.09.18.14.09.06.19.12.29.18.43-.04.57-.22.64-.32h-1.11Zm-76.36,4.44c-.14.02-.27.05-.38.08,0,.03,0,.06,0,.08.13-.03.26-.04.39-.05,0-.04,0-.07-.01-.11Zm104.85-3.63s-.06,0-.09,0c.09.61.16,1.24.18,1.9.01-.6-.02-1.24-.09-1.89Zm0,1.89c-.06.22-.12.47-.17.76-.03.15-.07.3-.11.46-.04.16-.07.34-.12.52-.14.58-.33,1.24-.58,1.96,0,0,0,0,0,0,.03-.14.06-.27.09-.41,0-.04.02-.09.02-.13.02-.1.04-.19.05-.29,0-.05.02-.1.02-.14.02-.1.03-.2.04-.3,0-.04.01-.09.02-.13.02-.14.03-.28.05-.42,0,0,0,0,0,0,.01-.14.03-.28.04-.42,0-.04,0-.09,0-.13,0-.1.01-.2.02-.3,0-.05,0-.1,0-.15,0-.1,0-.2,0-.3,0-.04,0-.09,0-.13,0-.14,0-.29,0-.43-.02-.66-.08-1.31-.18-1.94-.99-.03-2.07-.04-3.48.04-.59.21-1.1.62-1.82.89.03.15.06.29.08.42.11,1.28-.07,2.17-.29,2.9-.23.73-.55,1.34-1.02,2.06-.11.32-.4.9-.73,1.4-.09.12-.16.25-.24.36-.08.11-.16.22-.22.32-.14.19-.24.34-.27.41.37-.09.91-.36,1.53-.89,0,0,0,0,0,0-.08.11-.16.22-.24.33,0,.01-.02.03-.03.04-.07.1-.15.19-.23.29-.03.04-.07.08-.1.12-.06.07-.12.14-.18.21-.1.11-.2.23-.31.34-1.89,1.93-4.41,2.99-7.11,2.99h-26.13c8.47-.17,17.44-.04,25.85-.34.1-.01.19-.02.29-.03.09-.01.18-.03.27-.04.18-.02.35-.06.53-.09.34-.06.67-.14.98-.22.63-.17,1.2-.37,1.75-.62,1.09-.5,2.11-1.15,3.06-2.15-.73.6-1.64,1.2-2.73,1.63-1.08.43-2.34.68-3.64.65-.73-.03-1.48-.06-2.24-.08-.77-.03-1.55-.05-2.34-.08-1.58-.05-3.18-.08-4.75-.11-4.86.49,5.55.43,5.02.6.36.14-1.14.12-2.31.18-2.71-.07-5.48-.26-5.6-.54l-1.67.29c-5.67,0-11.74-.26-18.63-.32,1.98-.26,2.86-.29,5.91-.13,4.96-.97-4.96.27-7.31-.36.38.19-2.91.18-4.69.19l1.57.19,2.31-.18c4.86.21-.36.56-.6.7-6.53.08-6.91-.81-14.32-.7-.21.2.98.19.45.36-2.05.09-1.67.29-4.98.21-3.4-.3-6.12.33-10.1.09-1.67-.41,4.36-.27,3.65-.55l-1.86-.16c-2.07.04-4.91-.32-6.58-.03l-.07-.17c-.73.04-1.57.07-2.46.09-.44,0-.9.02-1.35.03-.23,0-.45,0-.68.01-.1,0-.19,0-.29,0-.09,0-.19,0-.28,0-.74-.03-1.44-.15-2.03-.31-.59-.16-1.08-.33-1.43-.44-.86-.5-1.65-1.15-2.32-1.92-.66-.77-1.2-1.65-1.56-2.61-.25-.66-.42-1.36-.5-2.07-.44.01-.87.04-1.28.09.02.39.07.79.14,1.18.21,1.16.62,2.31,1.24,3.33.03.04.05.08.08.13-.29-.42-.55-.86-.77-1.31,0-.02-.02-.03-.02-.05-.05-.1-.1-.21-.14-.31,0-.02-.02-.04-.02-.05-.13-.31-.25-.63-.35-.95-.01-.05-.03-.09-.04-.14-.02-.08-.05-.17-.07-.25-.02-.06-.03-.13-.05-.19-.02-.08-.04-.15-.05-.23-.02-.08-.03-.16-.05-.25-.01-.06-.02-.12-.04-.18-.02-.14-.04-.28-.06-.42,0-.05-.01-.11-.02-.16,0-.04,0-.08-.01-.12-1.87.23-3.58.71-5.6.76,0,.04,0,.09.01.13.02.16.05.31.07.48.1.65.25,1.37.49,2.16.05.2.09.37.13.52.04.15.08.28.11.38.05.21.08.34.08.39,0,.11-.11-.07-.28-.44-.04-.09-.09-.2-.14-.31-.05-.12-.09-.25-.14-.38-.05-.14-.11-.28-.16-.44-.05-.16-.1-.32-.15-.49-.17-.61-.33-1.3-.43-1.99-.13,0-.27,0-.4,0,.2,1.49.59,2.94,1.18,4.31.44.91.95,1.72,1.51,2.46.56.74,1.18,1.42,1.85,2.05.67.64,1.41,1.23,2.25,1.78.83.55,1.75,1.07,2.8,1.52.61.29,1.32.58,2.05.81.73.22,1.48.41,2.15.52.34.06.66.09.95.14.29.03.55.05.77.08.44.03.71.05.74.08-.67,0-1.23-.01-1.69-.04-.23-.02-.43-.03-.61-.05-.18-.02-.33-.03-.46-.05-.26-.02-.42-.03-.49-.02-.07,0-.05.04.05.09.21.09.77.26,1.64.41.22.03.46.06.71.09.26.03.53.04.83.06.55.03,1.16.05,1.84.07,2.5-.12,3.13-.15,4.33-.26-10.53-.79,11.06-.05,18.47-.51,21.61-.65,11.32.93,32.55.59-3.26-.34.25-.43,5.44-.47,2.6-.01,5.61-.03,8.41-.04.7,0,1.39-.01,2.05-.02.33,0,.67-.01,1-.02.33-.01.65-.05.96-.08,1.25-.15,2.33-.44,3.17-.74,1.45-.46,2.59-1.05,3.55-1.64.96-.59,1.74-1.2,2.43-1.81.69-.62,1.3-1.25,1.88-1.96.57-.71,1.12-1.5,1.64-2.46.17-.39.39-.98.61-1.64.2-.67.39-1.43.51-2.17.11-.74.18-1.46.17-2.03,0-.14,0-.28,0-.4,0-.12-.01-.24-.02-.34-.01-.2-.03-.35-.05-.44Zm-88.9,10.31c-.17,0-.34,0-.51-.01-.03,0-.07,0-.1,0-.14,0-.27-.02-.41-.03-.03,0-.06,0-.09-.01-.14-.02-.28-.03-.42-.05-.02,0-.04,0-.06-.01-.15-.02-.3-.05-.44-.08-.01,0-.02,0-.03,0-.16-.03-.31-.07-.47-.11,0,0,0,0,0,0-.49-.13-.96-.29-1.43-.5.05.01.1.03.13.03.55.23,1.17.42,1.82.55.65.13,1.34.19,2,.19.89,0,1.74.02,2.49.06h-2.48Zm5.16,0c2.58-.08,6.33-.04,4.73-.44,7.17.03,16.48.19,24.42-.09.71.28,3.33.13,4.29.26-.47.12.25.19,1.02.27H26.79Zm-13.57-9.72s0-.04,0-.05l-.43.09.44-.03Zm-7.64-2.32c0-.05,0-.09,0-.13-.02,0-.05-.01-.07-.02-.01.03-.02.07-.04.11-.06.25-.17.73-.23,1.52.11-.02.21-.03.32-.05,0-.64.02-1.15.02-1.43Zm6.78-1.21s.02-.04.03-.06c-.05-.02-.13-.05-.23-.08,0,0,.08.07.2.14Zm46.97,3.19s0,0-.01,0c.06.02.12.04.17.07-.05-.02-.1-.05-.16-.06Zm-.19-.18c.09,0,.21,0,.31.03.1.01.19.02.25.02-.11-.03-.21-.07-.32-.1-.11-.02-.21-.04-.31-.06-.1,0-.2-.01-.3-.02-.09,0-.18,0-.26,0-.16,0-.29.04-.37.07-.09.03-.13.06-.12.09.11,0,.23,0,.35-.01.13.01.26.01.39.04.13.03.27.04.39.08.06.02.11.03.17.05-.08-.03-.16-.05-.24-.08-.11-.05-.14-.07-.12-.08.02-.02.09-.02.18-.01Zm11.23,0c-.02.13-.05.26-.07.37,0,.06-.02.11-.03.16,0,.05,0,.1,0,.14,0,.09,0,.16,0,.21.01.1.05.12.11.03.03-.05.07-.12.11-.23.04-.11.12-.24.2-.41.03-.12.06-.23.1-.34-.14,0-.27.01-.41.02,0,.02,0,.03-.01.05Zm1.05-1.47c-.17,0-.34-.01-.51-.02-.04.09-.1.18-.14.3-.04.11-.09.23-.14.34.15,0,.31-.01.46-.01.1-.21.21-.41.33-.61Zm-26.44-3.33l1.92-.03c-.49-.53-.53.02-1.64-.12l1.23-.51c-.99-.07-1.76.53-1.5.66Zm-2.06-.17c.77-.09,1.31-.15.25-.45-.26.03-.51.1-.76.18.15.08.3.16.44.23.02.01.05.03.07.04Zm-10.15,13.46c2.65-.09,5.41.09,6.77-.22-3-.04-4.12.13-6.77.22Zm-17.78-13.52c-1.22.28-2.15.74-2.93,1.26.33-.07.58-.11.77-.13.02-.03.04-.06.06-.09-.01.03-.02.06-.03.09,1.29-.13-.32.73.87.95-.47.24-.91.14-1.2,0-.19.63-.35,1.29-.45,1.98-.02.17-.04.34-.06.51.45.03.85.08,1.21.14.05-.86.23-1.72.54-2.54.2-.52.45-1.02.75-1.5-.09,0-.19-.02-.29-.02.1-.04.23-.07.37-.09.13-.19.26-.38.4-.56Zm13.44.13s-.07,0-.11,0c.01.01.02.02.03.03l.08-.02Zm.53.64s.1.09.14.14c.05.05.09.1.14.16.05.06.1.12.15.18.03.03.05.07.08.11.01.02.03.04.04.06.02.03.04.06.06.1.18.28.41.58.77.89.16.16.26.26.33.34.07.08.1.13.13.17,0,0,0,0,0,0,.44-.03.84-.09,1.12-.19,1.11,0,1.63.16,2,.34.23-.09.45-.2.65-.33.12-.08.23-.16.34-.25.11-.09.22-.21.27-.25l.19-.18.2-.17c.27-.22.56-.43.85-.61.3-.17.6-.32.9-.44.3-.11.6-.21.89-.27.57-.13,1.1-.14,1.51-.08.11-.09.23-.16.35-.24-.29,0-.6-.04-.95-.11.41-.21.2-.32-.11-.41-.55-.03-1.06-.02-1.47,0,.09-.03.19-.06.29-.09,0,0,0,0,.01,0,.16-.04.32-.08.49-.12-.05-.03-.08-.06-.08-.1l-2.72.9c-1.24-.09-2.67-.14-3.84.06.37-.05.84-.06,1.39-.02-1.52.74-2.84.07-4.55,0,.04.04.08.07.11.11.11.11.2.2.29.3Z"/>
  <g>
    <path class="cls-1" d="m195.78,70.38v-27.44h-30.86v27.44h-6.75V9.71h6.75v27.18h30.86V9.71h6.66v60.67h-6.66Z"/>
    <path class="cls-1" d="m262.85,40.48c0,10.81-1.73,18.65-5.17,23.5-3.45,4.85-9.72,7.28-18.81,7.28s-15.36-2.48-18.81-7.45c-3.45-4.97-5.17-12.79-5.17-23.45s1.75-18.59,5.26-23.76c3.51-5.17,9.73-7.76,18.68-7.76s15.18,2.57,18.72,7.72c3.54,5.14,5.31,13.12,5.31,23.94Zm-41.04-.18c0,8.89,1.17,15.27,3.51,19.16,2.34,3.89,6.85,5.83,13.55,5.83s11.19-1.9,13.5-5.7c2.31-3.8,3.46-10.17,3.46-19.11s-1.2-15.46-3.6-19.55c-2.4-4.09-6.88-6.14-13.46-6.14s-11.05,2.03-13.42,6.09c-2.37,4.06-3.55,10.54-3.55,19.42Z"/>
    <path class="cls-1" d="m275.21,70.38V9.71h12.19l17.18,51.29,17.19-51.29h12.19v60.67h-6.75V16.9h-1.23l-17.62,51.29h-7.54l-17.62-51.29h-1.23v53.49h-6.75Z"/>
    <path class="cls-1" d="m394.37,40.48c0,10.81-1.73,18.65-5.17,23.5-3.45,4.85-9.72,7.28-18.81,7.28s-15.36-2.48-18.81-7.45c-3.45-4.97-5.17-12.79-5.17-23.45s1.75-18.59,5.26-23.76c3.51-5.17,9.73-7.76,18.68-7.76s15.18,2.57,18.72,7.72c3.54,5.14,5.31,13.12,5.31,23.94Zm-41.04-.18c0,8.89,1.17,15.27,3.51,19.16,2.34,3.89,6.85,5.83,13.55,5.83s11.19-1.9,13.5-5.7c2.31-3.8,3.46-10.17,3.46-19.11s-1.2-15.46-3.6-19.55c-2.4-4.09-6.88-6.14-13.46-6.14s-11.05,2.03-13.42,6.09c-2.37,4.06-3.55,10.54-3.55,19.42Z"/>
    <path class="cls-1" d="m398.67,15.76v-6.05h43.84v6.05h-18.5v54.62h-6.66V15.76h-18.68Z"/>
    <path class="cls-1" d="m451.1,70.38V9.71h36.92v5.96h-30.16v20.96h24.9v5.87h-24.9v21.92h30.16v5.96h-36.92Z"/>
    <path class="cls-1" d="m535.53,69.42c-6.02,1.23-11.43,1.84-16.22,1.84s-8.67-.66-11.62-1.97-5.23-3.36-6.84-6.14c-1.61-2.78-2.72-5.96-3.33-9.56-.61-3.6-.92-8.08-.92-13.46s.31-9.89.92-13.54c.61-3.65,1.72-6.88,3.33-9.69,1.61-2.81,3.87-4.85,6.79-6.14,2.92-1.28,6.72-1.93,11.4-1.93s10.17.64,16.48,1.93l-.26,5.7c-5.91-1.05-11.17-1.58-15.78-1.58-6.43,0-10.68,1.92-12.76,5.74-2.08,3.83-3.11,10.36-3.11,19.59,0,4.62.19,8.33.57,11.14s1.13,5.33,2.24,7.59c1.11,2.25,2.73,3.86,4.87,4.82,2.13.96,5.26,1.45,9.38,1.45s8.99-.53,14.6-1.58l.26,5.79Z"/>
    <path class="cls-1" d="m584.2,70.38v-27.44h-30.86v27.44h-6.75V9.71h6.75v27.18h30.86V9.71h6.66v60.67h-6.66Z"/>
    <path class="cls-1" d="m622.51,14.7c-8.77,0-13.15,3.3-13.15,9.91,0,3.68,1.01,6.21,3.02,7.59,2.02,1.37,6.11,2.75,12.27,4.12,6.17,1.38,10.54,3.15,13.11,5.35,2.57,2.19,3.86,5.8,3.86,10.83,0,12.45-6.46,18.67-19.38,18.67-4.27,0-9.62-.5-16.05-1.49l-3.16-.44.7-5.61c7.95,1.05,14,1.58,18.15,1.58,8.65,0,12.97-4.06,12.97-12.19,0-3.27-.95-5.62-2.85-7.06-1.9-1.43-5.45-2.64-10.65-3.64-6.84-1.46-11.69-3.35-14.56-5.66-2.86-2.31-4.3-6.18-4.3-11.62,0-10.87,6.52-16.31,19.55-16.31,4.27,0,9.38.44,15.34,1.31l2.98.44-.61,5.7c-8.12-.99-13.88-1.49-17.27-1.49Z"/>
    <path class="cls-1" d="m659.6,52.14c0,8.77,4.73,13.15,14.2,13.15,4.91,0,8.61-1.04,11.09-3.11,2.48-2.08,3.72-5.42,3.72-10.04V9.71h6.66v42.26c0,6.78-1.8,11.69-5.39,14.73-3.59,3.04-8.9,4.56-15.91,4.56s-12.29-1.52-15.83-4.56c-3.54-3.04-5.31-7.95-5.31-14.73V9.71h6.75v42.44Z"/>
    <path class="cls-1" d="m703.79,70.38l16.66-60.67h14.73l16.66,60.67h-6.66l-4.38-15.61h-25.95l-4.38,15.61h-6.66Zm21.74-54.89l-9.21,33.23h22.97l-9.21-33.23h-4.56Z"/>
    <path class="cls-1" d="m794.8,70.38h-33.41V9.71h6.75v54.62h26.66v6.05Z"/>
  </g>
  <g>
    <path class="cls-1" d="m647.66,109.47c0,10.16-2.49,17.93-7.46,23.3-4.97,5.38-12.12,8.06-21.46,8.06h-15.37v-61.55h17c8.63,0,15.33,2.65,20.11,7.96,4.78,5.3,7.17,12.71,7.17,22.23Zm-6.83.25c0-8.03-1.81-14.08-5.44-18.15-3.63-4.07-9.02-6.1-16.18-6.1h-9.37v49.18h7.85c7.69,0,13.47-2.1,17.34-6.29,3.87-4.2,5.8-10.41,5.8-18.63Z"/>
    <path class="cls-1" d="m703.12,110.5c0,10.81-1.73,18.65-5.17,23.5-3.45,4.85-9.72,7.28-18.81,7.28s-15.36-2.48-18.81-7.45c-3.45-4.97-5.17-12.79-5.17-23.45s1.75-18.59,5.26-23.76c3.51-5.17,9.73-7.76,18.68-7.76s15.18,2.57,18.72,7.72c3.54,5.14,5.31,13.12,5.31,23.94Zm-41.04-.18c0,8.89,1.17,15.27,3.51,19.16,2.34,3.89,6.85,5.83,13.55,5.83s11.19-1.9,13.5-5.7c2.31-3.8,3.46-10.17,3.46-19.11s-1.2-15.46-3.6-19.55c-2.4-4.09-6.88-6.14-13.46-6.14s-11.05,2.03-13.42,6.09c-2.37,4.06-3.55,10.54-3.55,19.42Z"/>
    <path class="cls-1" d="m749.28,139.43c-6.02,1.23-11.43,1.84-16.22,1.84s-8.67-.66-11.62-1.97-5.23-3.36-6.84-6.14c-1.61-2.78-2.72-5.96-3.33-9.56-.61-3.6-.92-8.08-.92-13.46s.31-9.89.92-13.54c.61-3.65,1.72-6.88,3.33-9.69,1.61-2.81,3.87-4.85,6.79-6.14,2.92-1.28,6.72-1.93,11.4-1.93s10.17.64,16.48,1.93l-.26,5.7c-5.91-1.05-11.17-1.58-15.78-1.58-6.43,0-10.68,1.92-12.76,5.74-2.08,3.83-3.11,10.36-3.11,19.59,0,4.62.19,8.33.57,11.14s1.13,5.33,2.24,7.59c1.11,2.25,2.73,3.86,4.87,4.82,2.13.96,5.26,1.45,9.38,1.45s8.99-.53,14.6-1.58l.26,5.79Z"/>
    <path class="cls-1" d="m775.69,84.81c-8.77,0-13.15,3.3-13.15,9.91,0,3.68,1.01,6.21,3.02,7.59,2.02,1.37,6.11,2.75,12.27,4.12,6.17,1.38,10.54,3.15,13.11,5.35,2.57,2.19,3.86,5.8,3.86,10.83,0,12.45-6.46,18.67-19.38,18.67-4.27,0-9.62-.5-16.05-1.49l-3.16-.44.7-5.61c7.95,1.05,14,1.58,18.15,1.58,8.65,0,12.97-4.06,12.97-12.19,0-3.27-.95-5.62-2.85-7.06-1.9-1.43-5.45-2.64-10.65-3.64-6.84-1.46-11.69-3.35-14.56-5.66-2.86-2.31-4.3-6.18-4.3-11.62,0-10.87,6.52-16.31,19.55-16.31,4.27,0,9.38.44,15.34,1.31l2.98.44-.61,5.7c-8.12-.99-13.88-1.49-17.27-1.49Z"/>
  </g>
</svg>