<?xml version="1.0" encoding="utf-8"?>
<!-- Generator: Adobe Illustrator 26.0.2, SVG Export Plug-In . SVG Version: 6.00 Build 0)  -->
<svg version="1.1" id="Layer_1" xmlns="http://www.w3.org/2000/svg" xmlns:xlink="http://www.w3.org/1999/xlink" x="0px" y="0px"
	 viewBox="0 0 800 150" style="enable-background:new 0 0 800 150;" xml:space="preserve">
<style type="text/css">
	.st0{fill:#E83C3A;}
	.st1{fill:#F9E911;}
	.st2{fill:#F59C0E;}
	.st3{fill:#87BD3B;}
	.st4{fill:#009DDE;}
	.st5{fill:#006BB5;}
	.st6{fill:#904493;}
	.st7{fill:#0A0A0A;}
</style>
<path class="st0" d="M62.6,8.6L62.6,8.6c-0.1,0.1-0.2,0.2-0.2,0.3C62.5,8.8,62.6,8.7,62.6,8.6z M64.8,19.4c-0.1-0.1-0.2-0.2-0.3-0.3
	C64.4,19,64.3,19,64.2,19c0.4,0.4,0.8,0.8,1.3,1.1C65.2,19.9,65,19.6,64.8,19.4z M81.9,28.5c-1.1-2-2.4-4-3.9-5.8v-0.2
	c-1-1.3-2.1-2.8-3.4-4.3S72,15,70.7,13.5c-0.1-0.1-0.2-0.2-0.2-0.3L70.3,13L70,12.7l-0.3-0.3c-0.2-0.2-0.4-0.4-0.6-0.5
	s-0.4-0.3-0.6-0.5c-0.8-0.6-1.6-1.1-2.4-1.5l-0.6-0.3L65,9.3l-0.5-0.2c-0.5,0-1-0.1-1.4-0.2l0.2-0.2l0,0L62.5,9
	c-0.1,0-0.2-0.1-0.2-0.2c-0.9,0.6-3.1,0-4.7,0.3c0,0.9,1.6,0,2.4,0.1c0.2,0.2,1.8,0.6,1,1.2c-2.1,0-3.5,1.1-5.8,1l0.7,0.3
	c-0.7,0.6-1.8,0.3-2.9,0.4c-2-0.6,1.5-1.2,0.3-1.7c0.8-0.8,2.2,0.1,2.4-1l-1.1-1c-0.4,0.1-0.7,0.2-1,0.3c-0.8,0.2-1.5,0.5-2.3,0.9
	l0.2,0.5c1.2,0.2,2-1,2.8-0.2c-1.8,0.4-1.7,1.2-3.2,1.5l-0.4,0.2h-0.1c-0.2,0.1-0.3,0.2-0.5,0.3l0,0l-0.5,0.3l0,0l-0.5,0.3l-0.1,0.1
	c-0.2,0.1-0.3,0.2-0.4,0.4l0,0l-0.4,0.4l-0.1,0.1L48,13.7l-0.1,0.1l-0.4,0.4L47,14.8l-0.1,0.2l-0.3,0.4l-0.2,0.2l-0.3,0.4l-0.1,0.2
	l-0.4,0.5l0,0L45,17.2l0,0l-0.5,0.6l-0.1,0.1L44,18.4l-0.1,0.1l-0.5,0.6l0,0c-0.5,0.7-1,1.3-1.6,2l0,0c-1,1.4-2,2.7-2.8,3.9
	l-0.2,0.2c-0.7,1-1.5,2-2.2,3.1c2.5-4.3,5.4-8.3,8.7-12c0.4-0.5,0.9-1,1.3-1.5c0.4-0.5,0.9-1,1.4-1.4c0.5-0.4,1-0.9,1.5-1.2
	c0.5-0.3,1-0.7,1.6-0.9c-0.3,0-0.6,0.1-0.9,0.1c-0.1-0.5,0.5-0.2,0.7-0.6c-0.7-0.3-1.5,0.4-2.5,0.4c-0.8,0.6-1.6,1.3-2.2,2
	c-0.1,0.1-0.2,0.2-0.3,0.4l-0.3,0.4L45,14.8c-0.5,0.5-0.9,1-1.3,1.6c-0.9,1-1.7,2.1-2.5,3.2c-1.7,2.2-3.2,4.4-4.7,6.8
	c-1.3,2.1-2.6,4.3-3.7,6.5c0.8-0.1,1.5-0.4,2.2-0.8c-1,0.2-1.1-0.1-0.9-0.5c2.4-0.1,1.7,0.9,4,0.2c0.6,0.8-2.5,0.4-2.3,1.2
	c1.5,0,3-0.1,4.4-0.5l0,0l0.3-0.5l0.2-0.3l0.3-0.5l0.2-0.2c0.2-0.2,0.3-0.5,0.5-0.8l1-0.2l-0.4,0.1l-0.5,0.1
	c-0.1,0.1-0.2,0.3-0.3,0.5l-0.5,0.9c-0.2,0.3-0.3,0.6-0.5,0.9l0.4-0.1c0.2,0.3-0.2,0.3-0.5,0.3l0,0.1l0.3,0.1l0.5-0.1
	c0.2-0.2,0.3-0.2,0.2,0l0.7-0.1l0,0l0.4-0.6l0.1-0.1v-0.1l0,0l0,0c0,0,0,0,0.1,0h0.1c0,0,0.1,0,0.2-0.1l0.2-0.1l0.1,0.2
	c1.4-0.4,2.8-0.6,4.2-0.9c1.1-0.1,2.3-0.3,3.4-0.6c1.9-0.1,3.8-0.2,5.8-0.2c2,0,4,0,6,0c2,0,4,0.1,6.1,0.3c1,0.1,2,0.2,3,0.3
	l1.5,0.2l1,0.1c0,0,0,0.1,0,0.1c0,0,0,0.1,0,0.1v0.1l0,0c0.7,0,1.3-0.1,2-0.1c3.8,0.8,1.4-1,4.8-1c-0.1-0.1-0.1-0.2-0.2-0.3l0-0.2
	c-0.3-0.6-0.7-1.1-1-1.7l-0.1-0.2c-0.2-0.2-0.3-0.5-0.4-0.7l-0.1-0.1c-0.2-0.3-0.3-0.5-0.5-0.8l-0.1-0.1l-0.4-0.7
	c0-0.1-0.1-0.1-0.1-0.2l-0.5-0.8l0.6,0.8c1,1.5,2.1,3.2,3,4.7l0.2,0.3h0.2c0,0.8,0.9,0.9,2.1,0.8C83,30.4,82.4,29.4,81.9,28.5z
	 M60.9,14.7L60.9,14.7l0.4,0.1l0.2,0.1l0.3,0.1h0.1l0.4,0.2l0.1,0.1l0.3,0.1l0.1,0.1l0.4,0.2l0.1,0.1l0.3,0.2l0.1,0.1l0.4,0.2
	l0.1,0.1l0.3,0.2l0.1,0.1l0.3,0.3l0,0c0.1,0.1,0.2,0.2,0.3,0.3l0.1,0.1l0.3,0.3l0.6,0.7c0.1,0.1,0.2,0.2,0.2,0.3s0.2,0.3,0.4,0.4
	l0.3,0.3l0.3,0.4l0.3,0.3l0,0c-0.5-0.5-1.1-1.2-1.1-0.6l-0.9-1.1c-0.3-0.4-0.7-0.8-1.1-1.2c-0.8-0.7-1.7-1.1-2.6-1.4
	c0-0.3-0.7-0.4-0.9-0.6C61.2,15,61.1,14.9,60.9,14.7L60.9,14.7L60.9,14.7z M50,29c-1.6,0.1-3.7,0.5-5.3,0.6l0,0l1.3-0.2l0,0
	c0.9-0.1,1.7-0.2,2.6-0.3h0.1C49.2,29.1,49.6,29,50,29L50,29z M57.8,28.8c-1,0-2-0.1-3.1-0.1h1.2H56h1.2h2.2H61h0.8l0,0l1.5,0.2
	C61.4,29,59.6,29,57.8,28.8L57.8,28.8z M67.9,22.6c-0.1,0-0.3,0.1-0.4,0.1h-0.3h-0.5l-0.5-0.3c-1.5-0.2-1.2,0.2-1.8,0.4
	c-0.2-0.1-0.1-0.2-0.2-0.3c-0.8,0.1,0.2,0.2-0.1,0.3c-0.8,0.1-1.5,0-2.3-0.2l-0.3,0.6c0.3,0.2,0.6,0.4,0.8,0.6h-1.2
	c-0.2-0.1-0.6-0.3-0.2-0.5c-0.9,0-1.7-0.3-2.3-0.9c-1,0.1-0.7,0.5-1,0.7c-1.1,0.2-1.9-0.3-2.8-0.1c0.3-0.4,0-0.5-0.7-0.5
	c-0.7,0-1.3,0-2,0.1c-1.4,0.1-0.4,0.7-1.9,0.7c-0.8-0.3,1.5-0.6,0.5-0.9L50,22.6l-0.1,0.1c0,0,0,0,0,0.1c0,0,0,0.1,0,0.1
	c0,0.1-0.1,0.2-0.2,0.2c-0.1,0.2-0.3,0.3-0.5,0.5c-0.2,0-0.6,0.1-0.5,0c0.5-0.2,0.5-0.5,0.4-0.6l-0.5,0.3c-0.1,0.2-0.1,0.3-0.2,0.4
	c-0.1,0.1-0.2,0.1-0.3,0.1h-0.5c-0.2,0-0.4,0.1-0.6,0.1h-0.1l0,0l0,0c0,0-0.1,0-0.1,0c0-0.1,0-0.3,0.1-0.4c0.1-0.1,0.2-0.3,0.3-0.4
	c0.2-0.2,0.5-0.4,0.8-0.5c0.3-0.1,0.5-0.2,0.8-0.4c0.1-0.1,0.2-0.1,0.3-0.2c0.1-0.1,0.1-0.2,0.2-0.3c-0.5,0-0.4-0.1-0.1-0.6
	c0.4-0.5,0.8-1,1.1-1.5c0.3-0.4,0.8-0.7,1.3-0.8c0.1-0.2,0.4-0.6,0.3-0.8C51.4,18,51.1,18,50.9,18l0.3-0.3c1.9-2.1,4.5-3.3,7.3-3.3
	h0.4H59c-0.8,0-1.7,0.1-2.5,0.3c-1.4,0.3-2.6,0.9-3.7,1.8c-0.1,0.2-0.2,0.3-0.3,0.5c-0.1,0.1-0.2,0.3-0.3,0.4l-0.3,0.4
	c-0.1,0.1-0.2,0.2-0.3,0.4c0.5-0.2,1-0.5,1.7-0.9c0.6-0.3,1.3-0.6,2-0.8c0.2-0.2,0.2-0.3,0.2-0.4c-0.2,0-0.3,0-0.5,0
	c-0.4,0.1-1,0.4-0.9,0.3c-0.2-0.1,0.2-0.2,0.4-0.4c0.3-0.1,0.6-0.2,0.9-0.2c0.3,0,0.5,0.1,0.5,0.2c0.1-0.1,0.2-0.3,0.3-0.4
	c0.6-0.1,1.3-0.2,1.9-0.1c0.7,0.1,1.5,0.2,2.2,0.4c-0.4,0.2-0.9,0.1-1.3-0.1c-0.3,0.2-0.3,0.3-0.3,0.4s0.1,0,0.2,0H59h0.4
	c0.1,0,0.1,0,0.2,0h0.2c0.2,0,0.4,0.1,0.5,0.3c0-0.2,0.7,0,1,0.1l-0.2-0.3h-0.5c-0.5-0.2-0.4-0.4-0.2-0.5s0.5-0.1,0.6-0.2
	c0.5,0.1,1,0.5,1.3,0.9c0.1,0.2,0.3,0.4,0.5,0.6l0.3,0.3c0.1,0.1,0.3,0.2,0.4,0.3c0.2-0.1-0.1-0.3,0.1-0.4c0.2,0.1,0.3,0.1,0.5,0.2
	c0.2,0.1,0.4,0.2,0.5,0.4c0,0.1,0.1,0.2,0.2,0.3c0,0,0.1,0.1,0.1,0.1l0.1,0.1c0.2,0.1,0.3,0.3,0.5,0.4c0.4,0.3,0.7,0.6,0.9,1
	c0,0.6-0.9-0.7-1-0.4l0.2,0.5c0.4,0.4,0.6,1.1,1.1,1.3l-0.1,0.1c0.2,0.1,0.3,0.3,0.5,0.4L67,22l0,0l0,0l0,0c0.1,0.1,0.3,0.1,0.4,0.1
	c0,0.1,0,0.2,0.1,0.2l0.1,0.1l0.1,0.1C67.7,22.6,67.9,22.6,67.9,22.6L67.9,22.6z M69.3,21.9c-0.4-0.4-0.7-0.8-1-1.3l0.5,0.6l0.1,0.1
	L69.3,21.9L69.3,21.9z M70.7,24.4L70.7,24.4l-0.8-0.2c0.1-0.1,0.3-0.1,0.6,0h0.1l0,0c0,0,0-0.1,0-0.1l-0.1-0.2l-0.1-0.4
	c0-0.1-0.1-0.2-0.1-0.3l0.5,0.6c0.2,0.2,0.4,0.5,0.6,0.7L70.7,24.4z M72.2,17.7L72.2,17.7L71.6,17v0c-0.4-0.4-0.7-0.8-1.1-1.2
	l-0.1-0.1c-0.1-0.2-0.3-0.3-0.4-0.5L69.8,15l-0.5-0.6L69,14.1V14l-0.2-0.2l-0.1-0.1l-0.2-0.2l-0.1-0.1l-0.2-0.2l-0.1-0.1l-0.3-0.2
	l-0.1-0.1c-0.2-0.2-0.4-0.4-0.7-0.5l0,0L66.6,12h-0.1l-0.3-0.2l-0.1-0.1l-0.3-0.2l0,0c-0.5-0.3-1-0.6-1.6-0.8l0,0l-0.4-0.2l0,0
	l-0.4-0.1l0,0l0.2,0.1c0.6,0.2,1.2,0.5,1.8,0.9c0.3,0.2,0.6,0.3,0.9,0.5c0.3,0.2,0.6,0.4,0.9,0.6c0.6,0.4,1.1,0.9,1.6,1.4l0.4,0.4
	l0.4,0.4c0.2,0.3,0.5,0.6,0.7,0.8c1.2,1.4,2.4,2.9,3.4,4.2C73.3,19.1,72.7,18.4,72.2,17.7L72.2,17.7z M54.4,22h0.2
	c0.2,0.1-0.1,0.1-0.2,0.2c0.3,0,0.6-0.1,0.6-0.2C54.8,22,54.6,22,54.4,22z"/>
<path class="st1" d="M53.4,33.7c0.2-0.1,0.5-0.2,0.8-0.3l0.4-0.1l0.4-0.1l0.7-0.2c0.2,0,0.3-0.1,0.5-0.2c-0.3,0-0.6,0.1-0.8,0.1
	l-0.6,0.2C54.2,33.3,53.9,33.4,53.4,33.7z M69.1,39.7c0.6,0.8,1.2,1.6,1.6,2.5c0.5,0.9,0.8,1.8,1.1,2.8c0.3,0.5,0.5,1,0.6,1.5
	c0,0.2,0.1,0.5,0.1,0.7l0.1,0.8c0.2-1,0.3-2,0.2-3c-0.1-1.3-0.5-2.5-1-3.6c-0.3-0.4-0.5-0.4-0.5-0.3c0.1,0.3,0.1,0.5,0.2,0.8
	c0.2,0.5,0.4,1,0.5,1.5c0,0.1-0.1,0-0.2-0.2c-0.1-0.2-0.2-0.4-0.3-0.6c-0.1-0.2-0.2-0.5-0.2-0.7s-0.2-0.5-0.2-0.7
	c-0.1-0.4-0.2-0.7-0.1-0.8l-0.6-0.4c-0.6-1-1.4-1.9-2.2-2.7c-0.4-0.5-0.9-0.9-1.4-1.3c-0.2-0.2-0.5-0.4-0.8-0.6s-0.3-0.2-0.4-0.3
	S65.4,35,65.2,35c0.2,0,0.4,0.1,0.5,0.1c0.2,0.1,0.3,0.1,0.5,0.2c0.2,0.1,0.3,0.2,0.5,0.3c0.2,0.1,0.4,0.3,0.6,0.5
	c0.5,0.1,0.7,0.1,0.6,0c-0.2-0.2-0.5-0.4-0.8-0.5l-0.3-0.2l-0.3-0.2L65.8,35l-0.3-0.2c-0.1-0.1-0.2-0.1-0.3-0.2
	c-0.1-0.1-0.3-0.2-0.4-0.4c0,0.1-0.3,0-0.6-0.1L63.6,34L63,33.8c0.2,0.1,0.4,0.2,0.5,0.4s0.6,0.1,0.9,0.2c0.3,0.1,0.5,0.3,0.7,0.5
	c0,0.1-0.1,0.1-0.2,0.1l-0.6-0.1c-0.1,0-0.2,0-0.4,0c-0.3-0.1-0.6-0.2-0.8-0.3s-0.4-0.2-0.6-0.3S62.2,34.1,62,34l-0.5-0.3
	c-0.2-0.1-0.4-0.2-0.5-0.3c-0.2-0.1-0.4-0.2-0.6-0.2c-0.3-0.1-0.5-0.1-0.8-0.2L59.1,33h-0.5c-0.1,0.2,0.4,0.2,0.2,0.4
	c-0.3,0-0.5,0.1-0.8,0.2c-0.1,0-0.2,0-0.4,0.1h-0.7c-0.3,0-0.7,0-1,0.1c-0.2,0-0.3,0.1-0.5,0.1L54.9,34c-0.6,0.3-1.3,0.5-1.9,0.7
	c-0.4-0.1,0-0.3,0.4-0.5l0.6-0.3c0.2-0.1,0.2-0.2,0.2-0.2l-0.8,0.1l-0.7,0.2L52.4,34L52,34.2l-0.3,0.1c-0.1,0-0.2,0.1-0.3,0.2
	c-0.2,0.1-0.3,0.2-0.5,0.4l-0.1-0.1c-0.5,0.4-1.1,0.8-1.7,1.3l-0.4,0.3l-0.3,0.3c-0.2,0.2-0.3,0.4-0.4,0.6c-1.5,1.3-2.7,2.9-3.3,4.8
	c-0.7,1.9-1,3.9-1,5.9c-0.1,0.2-0.2,0.5-0.3,0.8s0,0.5,0,0.7c0,0.2,0,0.3,0.1,0.5c0,0.2,0.1,0.3,0.2,0.5c2.4-0.5,4.8-0.9,6.5-1.2
	l0.3,0.4c0-0.2,0-0.3,0-0.5c0-0.1,0.1-0.2,0.1-0.3l0-0.1l0.1-0.1c-0.1-0.2-0.2-0.6-0.3-0.7c-0.2,0.1-0.4,0.2-0.6,0.4
	c0-0.1,0-0.3,0-0.4s0-0.3,0-0.5s0-0.1,0-0.2V47v-0.2c0-0.1,0-0.2,0-0.3v-0.2c0-0.1,0-0.2,0.1-0.3L50,46c0.1-0.3,0.2-0.6,0.3-0.9
	c0,0,0-0.1,0-0.1c0-0.1,0.1-0.2,0.1-0.3l0.1-0.1l0.2-0.3l0.1-0.1l0.2-0.3l0.1-0.1c0.2-0.3,0.3-0.5,0.5-0.8l0,0l0.3-0.3l0.1-0.1
	l0.3-0.3c0,0,0,0,0.1-0.1c0.1-0.1,0.2-0.2,0.3-0.3l0,0c0.2-0.2,0.5-0.4,0.7-0.6l-0.3,0.3l-0.3,0.3c-0.1,0.1-0.2,0.2-0.3,0.3
	l-0.3,0.4l-0.2,0.2c0,0.1-0.1,0.1-0.1,0.2c-0.8,1-1.2,2.2-1.4,3.4c0,0.2,0.1,0.3,0.1,0.5c0,0.1,0,0.3,0,0.4c0,0.3,0,0.6,0,0.9
	c0.1-0.2,0.2-0.5,0.3-0.7s0.1-0.3,0.2-0.4s0.1-0.3,0.2-0.4s0.1-0.3,0.2-0.4l0.1-0.2l0.1-0.2l0.2-0.4c0.1-0.1,0.2-0.3,0.2-0.4
	c0-0.5-0.2-0.4-0.5,0c-0.1,0.1-0.1,0.2-0.2,0.3l-0.1,0.2c-0.1,0.2-0.1,0.2-0.2,0.2s0-0.3,0-0.5c0.1-0.2,0.3-0.5,0.5-0.6
	c0.1-0.1,0.3-0.2,0.5-0.2c0-0.1,0-0.3-0.1-0.4c0.1-0.1,0.2-0.2,0.3-0.3l0.1-0.2c0-0.1,0.1-0.1,0.2-0.2c0.2-0.2,0.5-0.4,0.7-0.6
	c0.5-0.4,1.1-0.7,1.7-1c-0.1,0.1-0.1,0.2-0.2,0.3c0,0.1-0.1,0.1-0.2,0.2c-0.1,0.1-0.1,0.1-0.2,0.1c-0.1,0-0.2,0.1-0.3,0.2
	c0,0.3,0,0.5,0,0.4s0.2-0.1,0.3-0.3c0.2-0.3,0.7-0.8,1-0.5c-0.1-0.1,0-0.2,0.2-0.3s0.4-0.2,0.5-0.2l-0.3-0.1
	c-0.1,0.1-0.2,0.2-0.3,0.3c-0.5,0.1-0.5,0-0.4-0.2s0.3-0.4,0.3-0.5c0.2-0.1,0.5-0.2,0.8-0.2c0.2,0,0.4,0.1,0.6,0.1l0.3,0.1l0.3,0.1
	c0.3,0,0.6,0,0.8,0c0-0.2-0.2-0.2-0.1-0.4l0.2-0.1l0.2-0.1c0.2-0.1,0.4-0.1,0.6,0c0.1,0.1,0.3,0.1,0.5,0.2H60c0.2,0,0.4,0,0.5,0
	c0.2,0.1,0.4,0.1,0.5,0.2c0.2,0.5-0.9,0-0.9,0.3c0.1,0.1,0.2,0.2,0.3,0.3c0.1,0,0.2,0.1,0.3,0.1l0.1,0.1l0.1,0.1
	c0.1,0.1,0.2,0.1,0.3,0.2c0.1,0,0.2,0,0.3,0l-0.1,0.2c0.1,0,0.3,0.1,0.4,0.2c0.1,0,0.2,0.1,0.2,0.1l0.2,0.1l0.2,0.1l0.2,0.1
	c0.1,0.1,0.2,0.1,0.3,0.1c0.6,0.7,1.1,1.5,1.6,2.3c0.5,0.8,0.9,1.8,0.9,2.7l-0.3,0.4c0,0.1,0,0.2,0,0.3s0,0.2,0,0.2
	c0,0.1,0,0.2,0.1,0.3c0.1,0.2,0.2,0.2,0.2,0.5l0,0c2.4,0,4.6-0.3,7-0.6l0,0c0-0.2,0-0.4-0.1-0.7c0-0.2,0-0.4-0.1-0.5
	c-0.3,0.2-0.5,0.4-0.6,0.6l0,0c0-0.2,0-0.4,0-0.6s0-0.4,0-0.6v-0.1c0-0.2,0-0.4,0-0.6c0,0,0-0.1,0-0.1c0-0.2-0.1-0.4-0.1-0.6v0
	c0-0.2-0.1-0.4-0.1-0.6c0,0,0-0.1,0-0.1c0-0.2-0.1-0.4-0.1-0.5v-0.1l-0.2-0.5c0,0,0-0.1,0-0.1c0-0.2-0.1-0.3-0.2-0.5v-0.1
	c-0.1-0.2-0.1-0.3-0.2-0.5c0-0.1,0-0.1-0.1-0.2c-0.1-0.2-0.1-0.3-0.2-0.5l-0.1-0.2l-0.2-0.4l-0.1-0.2c-0.1-0.1-0.1-0.3-0.2-0.4
	L70.1,41l-0.3-0.4l-0.1-0.2c-0.1-0.1-0.2-0.2-0.2-0.3l-0.2-0.2C69.2,39.8,69.2,39.7,69.1,39.7l-0.1-0.2l-0.3-0.3l-0.2-0.2L68,38.6
	l-0.2-0.2l-0.2-0.2L67.3,38L67,37.7l-0.2-0.2l-0.3-0.3l0,0l0.4,0.3C67.7,38.2,68.4,38.9,69.1,39.7L69.1,39.7z M47.4,40.2L47.4,40.2
	c-0.2,0.4-0.4,0.7-0.6,1l-0.1,0.1l-0.3,0.5L46.3,42l-0.1,0.3l0,0l-0.5,0.5c0.2-0.8,0.6-1.6,1.2-2.2c0.3-0.3,0.6-0.7,0.9-1
	C47.7,39.8,47.5,40,47.4,40.2L47.4,40.2z M49.2,38.1l0.5-0.5c0.2-0.2,0.4-0.3,0.6-0.5c0.2-0.1,0.4-0.3,0.6-0.4l0.2-0.1L50.6,37l0,0
	l-0.5,0.3l0,0l-0.4,0.3l0,0L49.2,38.1C49.2,38.1,49.2,38.1,49.2,38.1L49.2,38.1z M51.8,38.4c-1,0.2-1.8,0.8-2.8,0.1
	c0.1,0,0.2-0.1,0.2-0.1c0.6-0.2,1.6-0.3,2.5-0.5C51.8,37.9,51.9,38.2,51.8,38.4L51.8,38.4z M62.3,40.4l-0.6-0.2l-0.2-0.1h-0.2
	c-0.1,0-0.1,0.1-0.1,0.3c-0.2-0.1-0.4-0.2-0.6-0.2L60.1,40c-0.4-0.1-0.9-0.2-1.4-0.2c-0.9-0.1-1.9,0.1-2.7,0.5
	c-0.1-0.1-0.3-0.1-0.5,0c-0.2,0.1-0.3,0.1-0.5,0.1c0-0.2-0.1-0.2-0.3-0.2l0,0l0.4-0.2h0.1l0.3-0.1h0.1l0.3-0.1h0.1l0.3-0.1h0.2
	l0.3-0.1H57h0.3h0.2h0.3h0.6h0.5H59h0.3h0.2l0.3,0.1H60l0.5,0.1l0,0l0.5,0.1h0.1l0.3,0.1l0.2,0.1l0.3,0.1H62l0.4,0.2l0,0L62.3,40.4z
	 M62.8,35.3l-0.3-0.1l-0.3-0.1L61.9,35l-0.2,0l-0.4-0.1H61l-0.5-0.1h-0.2l-0.5-0.1h-0.1l-0.6,0H59h-0.6h-0.6h-0.1l-0.6,0h-0.1
	l-0.5,0.1h-0.1l-0.6,0.1h-0.2L55,35h-0.1l-0.5,0.1h-0.2l-0.5,0.2l-0.2,0.1l-0.4,0.2l-0.2,0.1l-0.5,0.2l-0.2,0.1L52,36.1l0,0
	c0.3-0.2,0.7-0.4,1-0.5c0.5-0.3,0.9-0.5,0.4-0.6c0.7-0.2,1.4-0.4,2.1-0.6c0.8-0.1,1.5-0.2,2.3-0.3c1.6,0,3.1,0.1,4.7,0.4
	c0.2,0.2,0.4,0.4,0.7,0.4c0.3,0.1,0.5,0.2,0.7,0.4c-0.2,0,0,0.2,0.2,0.4l0,0l-0.3-0.2l-0.3-0.1l-0.3-0.1L62.8,35.3z M64.1,41.7
	l-0.3-0.3l-0.4-0.3l-0.3-0.3c0,0-0.1-0.1-0.1-0.1l0,0l0.3,0.2l0,0c0.1,0.1,0.2,0.1,0.3,0.2l0,0l0.3,0.2l0,0L64.1,41.7L64.1,41.7z
	 M66.1,44.8c-0.2-0.2-0.3-0.4-0.4-0.6c0-0.1,0-0.1-0.1-0.2c0-0.1-0.1-0.1-0.1-0.2c-0.1-0.1-0.1-0.3-0.2-0.4s0-0.1-0.1-0.2l-0.1-0.2
	l-0.2-0.4l0,0c0.1,0.1,0.2,0.2,0.3,0.4l0,0l0.3,0.4l0,0c0.2,0.3,0.3,0.6,0.5,0.9C66.1,44.5,66.1,44.7,66.1,44.8L66.1,44.8z
	 M50.8,30.4c1.9-0.1,3.8-0.2,5.8-0.2c1.2,0,2.4,0,3.6,0c-4.2-0.3-8.5-0.5-12.5-0.9c-1.1,0.1-2.2,0.3-3.1,0.4l0,0l1.3-0.2l0,0
	c0.5-0.1,1-0.1,1.5-0.2c-1.2-0.1-2.4-0.2-3.6-0.4l-0.2,0.4c-2.8-0.8-5.7-0.5-8.8-0.5c-1.4,2.4-2.6,4.8-3.7,7.3v0.3H31
	c-0.7,1.6-1.3,3.2-1.9,4.8c-0.9,2.6-1.6,5.3-2.1,8c-0.1,0.7-0.3,1.5-0.4,2.2c0.5,0,1,0,1.6,0c-0.1-0.3-1.5-0.7-0.7-1
	c1.1-0.4,2.3,0,3,1c0.8-0.1,1.7-0.3,2.5-0.5c0.1-0.4,0.2-0.9,0.3-1.3l0,0c0-0.3,0.1-0.5,0.2-0.8v-0.1c0.1-0.3,0.1-0.5,0.2-0.8v0
	c0.4-1.7,0.9-3.3,1.5-4.9V43c0.1-0.2,0.2-0.5,0.2-0.7l0.1-0.2l0.2-0.6c0-0.1,0.1-0.1,0.1-0.2c0.1-0.2,0.2-0.4,0.2-0.6l0.1-0.2
	l0.2-0.6l0.1-0.2c0.1-0.2,0.2-0.4,0.2-0.6l0.1-0.2c0.1-0.2,0.2-0.4,0.3-0.6l0.1-0.2c0.3-0.6,0.6-1.3,0.9-1.9l0.2-0.3
	c0.1-0.2,0.1-0.3,0.2-0.4s0.1-0.2,0.2-0.4l0.2-0.4l0.2-0.4l0.2-0.4c0.1-0.1,0.2-0.3,0.2-0.4s0.1-0.2,0.2-0.4l0.2-0.4l0.2-0.3
	l0.3-0.5l0.2-0.3l0.3-0.5l0.2-0.2c0.2-0.2,0.3-0.5,0.5-0.8l1-0.2l-0.4,0.1l-0.5,0.1c-0.1,0.1-0.2,0.3-0.3,0.5l-0.5,0.9
	c-0.6,1.2-1,2-0.4,1.4c-0.4,0.6-0.7,1.3-1.1,2c-0.2,0.3-0.4,0.7-0.6,1s-0.4,0.7-0.6,1.1c-0.4,0.7-0.7,1.5-1.1,2.3
	c-0.2,0.4-0.4,0.8-0.5,1.2l-0.5,1.2c-0.2,0.4-0.3,0.8-0.5,1.2s-0.3,0.8-0.4,1.2c-0.3,0.8-0.5,1.7-0.8,2.5l-0.2,0.6
	c0,0.2-0.1,0.4-0.2,0.6c-0.1,0.4-0.2,0.8-0.3,1.2s-0.2,0.8-0.2,1.2l-0.1,0.6c0.2-0.1,0.5-0.2,0.7-0.3l0.2-0.5
	c-0.4,0-0.4-0.3-0.3-0.8c0.2,0,0.4,0,0.6,0c0.1-0.3,0.2-0.6,0.3-0.8l0.2-0.6l0.2-0.6c0.3-0.9,0.7-2,1.2-3.4
	c-0.1-0.2-0.5,0.7-0.5,0.2c0.2-0.8,0.3-1.1,0.4-1.6c0.1-0.3,0.2-0.6,0.3-0.8c0.1-0.2,0.1-0.4,0.2-0.6l0.2-0.4c0-0.1,0.1-0.3,0.2-0.4
	c0.6-1.2,1.2-2.3,1.7-3.6c0.3-0.6,0.5-1.2,0.8-1.8c0.2-0.3,0.3-0.6,0.5-1s0.4-0.7,0.6-1c0.5-0.5,0.1,0.3-0.3,1.2s-0.9,1.8-0.7,1.7
	l0.9-1.2c0.2-0.4,0.4-0.8,0.7-1.2l0.4-0.6l0.4-0.6l0.1-0.1v-0.1l0,0l0,0c0,0,0,0,0.1,0h0.1c0,0,0.1,0,0.2-0.1l0.2-0.1l0.1,0.2
	c1.4-0.3,2.8-0.6,4.2-0.7C48.6,30.9,49.7,30.7,50.8,30.4z M40,36.8l0.5-1.1c0.2-0.4,0.4-0.8,0.6-1.3c-1,1.9-2.1,3.8-2.3,4.9
	C39.3,38.3,39.6,37.5,40,36.8z M59.8,41.4c0,0-0.1,0-0.2,0c-0.1,0-0.2,0-0.2,0.1c0.1,0,0.2,0.1,0.3,0c0.1,0,0.2,0,0.3,0
	c0.2,0,0.4,0,0.6,0l-0.7-0.2L59.8,41.4z M89.5,45.3l-0.3-0.9l-0.3-0.9c-0.1-0.3-0.2-0.5-0.3-0.8l-0.3-0.8c-0.2-0.5-0.4-1-0.6-1.5
	s-0.4-1-0.7-1.6c-0.5-1.1-1-2.2-1.6-3.6c1.3,2.6,2.3,5.3,3.2,8.1c0.5,1.5,0.9,2.9,1.2,4.1H90C89.8,46.6,89.6,45.9,89.5,45.3
	L89.5,45.3z M87.7,47.8l0.3-0.2c0-0.1,0-0.2,0-0.2c-0.1-0.3-0.2-0.7-0.2-1v-0.1l-0.2-0.9c0-0.1,0-0.2-0.1-0.3
	c-0.1-0.3-0.2-0.6-0.2-0.8c0,0,0-0.1,0-0.1c-0.1-0.3-0.2-0.6-0.3-1c0-0.1,0-0.2-0.1-0.2c-0.1-0.3-0.2-0.5-0.2-0.8
	c0-0.1-0.1-0.2-0.1-0.2L86,41.1v-0.1l-0.3-0.8c0-0.1-0.1-0.2-0.1-0.2L85.2,39v-0.1L84.8,38c0-0.1-0.1-0.2-0.1-0.2L84.4,37l-0.1-0.2
	c-0.1-0.3-0.3-0.6-0.4-0.9l-0.1-0.2c-0.1-0.2-0.2-0.5-0.4-0.8c0-0.1-0.1-0.2-0.1-0.2l-0.4-0.9l0,0L82.4,33c0-0.1-0.1-0.1-0.1-0.2
	L82,32.1l-0.1-0.2l-0.4-0.8c-2.2,0-4.5,0-6.6,0l-0.6-0.1c0,0,0,0.1,0,0.1c0,0,0,0.1,0,0.1v0.1v0.1l0.1,0.4c0.3,0.5,0.5,0.9,0.7,1.3
	s0.4,0.7,0.5,0.9c0.2,0.4,0.4,0.7,0.7,1c0.4,0.5,0.8,1,1.2,1.5c0.2,0.5,0,0.4,0,0.6c1.1,2.1-0.2-0.8,0.3,0l0.4,0.8
	c0.1,0.3,0.3,0.6,0.4,0.9l0.4,0.9l0.2,0.4l0.2,0.5c0.1,0.3,0.2,0.6,0.3,0.9c0.1,0.3,0.2,0.5,0.3,0.8c0.2,0.4,0.3,0.9,0.4,1.4
	c0.3,0.2,0.5,0.4,0.8,0.5c0-0.3-0.1-0.5-0.1-0.8s-0.1-0.5-0.1-0.7c-0.1-0.4-0.1-0.8-0.1-1.2l0,0c0.1,0.3,0.2,0.5,0.3,0.8
	c0,0,0,0.1,0,0.1c0.3,0.9,0.6,1.8,0.9,2.7l0,0v0.1c0.1,0.8,0.2,1.8-0.2,0.7c0.3,1.2,0.4,2,0.6,2.7c1.6,0.2,4.4-0.9,5.5-0.6l0,0
	L87.7,47.8z M75.9,29.4l1.6,0.5c1.2-0.6,2.8-0.4,1.8-1.6c-0.8,0.1-0.8,0.7-1.1,1l-0.9-0.7c-0.9,0.5-3.6,0.9-3.3,1.8
	c-1.9-0.7-4.1,0.1-5.8-0.6c0.6,0.3,0.5,0.6,0.3,0.9h0.1c1,0.1,2,0.2,3,0.3l1.5,0.2l1,0.1C74.2,30.5,75.1,29.9,75.9,29.4z M85.6,37.6
	C84.8,35.9,84,34,83,32.1c-0.3-0.9-0.2-0.8,0.2-0.2c0.2,0.3,0.4,0.7,0.7,1.2l0.4,0.8l0.4,0.9c0.6,1.2,1.2,2.5,1.6,3.4s0.6,1.4,0.6,1
	c-0.4-1.3-1-2.6-1.5-3.9s-1.3-2.7-2-4.1h-1.8c0.6,1.1,1.1,2,1.4,2.5s0.5,0.7,0.1-0.4C85,37,86.6,41,87.7,45c0.2,0.8,0.5,1.7,0.7,2.6
	c0.2-0.1,0.4-0.1,0.7-0.1c-0.4-1.6-0.9-3.1-1.4-4.6S86.4,39.4,85.6,37.6z"/>
<path class="st2" d="M17.4,70.9c-0.3-0.1-0.6-0.1-0.8-0.5l-0.1,1v0.4c0.1,0,0.2-0.3,0.6-0.4c0.3,0.6-0.5,1,0.2,1
	S17.2,71.3,17.4,70.9z M16.5,72.7c0.1,0.7,0.5,0.7,0.8,0.7C17.3,72.6,16.9,72.6,16.5,72.7z M50.5,47.2c0,0.3,0,0.6,0,0.9
	c0.1-0.2,0.2-0.5,0.3-0.7s0.1-0.3,0.2-0.4l0.2-0.3c-0.1-0.1-0.2-0.2-0.3-0.2c-0.2,0-0.3,0-0.5,0c0,0.1,0.1,0.3,0.1,0.4
	C50.5,46.9,50.5,47,50.5,47.2L50.5,47.2z M24.2,75.1c0,0.2,0.1,0.3,0.2,0.4c0-0.1,0-0.3-0.1-0.4L24.2,75.1z M22.4,72.9l0.1-0.1
	c-0.1-0.1-0.1-0.3-0.1-0.4C22.4,72.6,22.4,72.7,22.4,72.9z M83.8,43.5c0.4-0.1,1.1,0.5,1.1-0.3c-1.1,0-2-0.5-2.2,0.8
	C83.2,44.1,83.4,43.7,83.8,43.5z M89.4,45.3L89.3,45h-0.2c0.5,1.8,0.9,3.4,1.3,4.6C90.1,47.9,89.8,46.5,89.4,45.3z M88.1,44
	c0-0.1-0.1-0.2-0.1-0.3h-0.6l0.1,0.3C87.7,44,87.9,44,88.1,44z M60.5,54.8c0.2,0,0.4-0.2,0.3-0.3c-0.1,0-0.3,0.1-0.4,0.1h0.1
	C60.7,54.6,60.5,54.7,60.5,54.8z M87.6,44.5l0.2,0.5c0.6,2.2,1.1,4.4,1.4,6.6c0.2,1.1,0.3,2.3,0.4,3.4c0,0.6,0.1,1.2,0.1,1.7v0.7
	v0.2l0,0l0,0l0.1,0l0.3,0.2l1.3,1l0.7,0.5c0.2,0.2,0.5,0.3,0.7,0.5l0.7,0.6c0.2,0.2,0.4,0.4,0.7,0.6l0.3,0.3l0.3,0.3l0.6,0.7
	l0.6,0.7c0.1,0.1,0.2,0.2,0.3,0.3l0.3,0.4l0.2,0.4c0.1,0.1,0.2,0.2,0.2,0.4l0.2,0.3h1.4c0-0.1-0.1-0.2-0.1-0.2
	c-0.9-1.7-2.2-3.2-3.6-4.6c-0.2-0.1,0.1,0.3,0.5,0.7s0.5,0.7,0.1,0.3c-0.2-0.2-0.4-0.4-0.6-0.6L94.1,60l-1-0.7l-1.5-1
	c-0.3-0.2-0.5-0.4-0.8-0.6l-0.3-0.2l-0.1-0.1c0-0.1,0-0.1,0-0.2v-0.5v-0.5v-0.5c0-0.3,0-0.7-0.1-1.1s-0.1-0.8-0.1-1.3
	c-0.2-1.8-0.4-3.6-0.9-5.4c-0.2-0.9-0.5-1.8-0.7-2.7h-0.2c-0.1-0.3-0.2-0.4-0.1-0.7C88,44.4,87.8,44.4,87.6,44.5z M72.6,44.4l0-0.4
	c-0.1,0-0.2,0.1-0.3,0.2C72.4,44.2,72.5,44.3,72.6,44.4L72.6,44.4z M82.5,42.8c-0.3,0.1-0.7,0.1-1.1,0.1c0.1,0.1,0.1,0.3,0.2,0.4
	C82.1,43.4,82.6,43.5,82.5,42.8L82.5,42.8z M24.2,72.2L24.2,72.2c0.1-0.1,0.1-0.2,0.1-0.3C24.2,72,24.2,72.1,24.2,72.2z M30.5,72.7
	c0.5,0.1,0.8,0.9,1.4,0.7C31.9,72.3,30.5,72.6,30.5,72.7z M36.2,74.4C36.2,74.4,36.2,74.5,36.2,74.4l0.1,0l0,0
	C36.2,74.2,36.2,74.3,36.2,74.4z M52.8,62.2c0.2,0.1,0.6,0.2,0.8,0.4l-0.2-0.1c-0.2-0.2,0.2,0,0.4-0.1c-0.2-0.1-0.4-0.2-0.6-0.2
	C52.9,62.1,52.8,62.2,52.8,62.2z M72.7,44.5c-0.2,0-0.7-0.1-1,0.1l0.1,0.4c0.3,0.5,0.5,1,0.6,1.5c0,0.2,0.1,0.5,0.1,0.7l0.1,0.8
	c0.2-1,0.3-2,0.2-3C72.7,44.8,72.7,44.7,72.7,44.5z M72.5,48c-0.3,0.2-0.5,0.4-0.6,0.6l0,0c0-0.2,0-0.4,0-0.6s0-0.4,0-0.6v-0.1
	c0-0.2,0-0.4,0-0.6c0,0,0-0.1,0-0.1c0-0.2-0.1-0.4-0.1-0.6v0c0-0.2-0.1-0.4-0.1-0.6c0,0,0-0.1,0-0.1c0,0,0-0.1,0-0.1
	c-0.2-0.4-0.4-0.9-0.8-0.9c-0.1,0.3-0.4,0.3-0.4,0.8c0-0.2-0.1-0.5-0.1-0.7c-0.5-0.1-0.3,0.8-0.7,0.8c0.1-1.3-1-0.5-1.1-0.5
	c0.2,0,0.3,0.3,0.4,0.5c-0.8-0.2,0,0.5-0.3,0.8c-0.3-1.2-0.4,0.1-0.7,0c-0.3-0.7-0.8-1.2-1.5-1l0,0l0,0H66c0.3,1-0.3,0.7-0.4,1
	c-0.1-0.3-0.1-0.7,0-1h-0.9c0.1,0.1,0.1,0.2,0.2,0.3c0.5,0.9,0.7,1.8,0.8,2.8l-0.3,0.4c0,0.1,0,0.2,0,0.3s0,0.2,0,0.2
	c0,0.1,0,0.2,0.1,0.3c0.1,0.2,0.2,0.2,0.2,0.5c-0.1,0.1-0.2,0-0.3,0.1c0,0.6,0.2-0.1,0.3,0.1c-0.1,0.3-0.1,0.6-0.2,0.9
	c-0.1,0.3-0.3,0.5-0.5,0.7l0.4,0.5l0.2-0.1l0.2-0.1l0.4-0.2l0,0c-0.2,0.3-0.3,0.6-0.5,0.9l0,0l0,0c-0.2,0.1-0.5,0.2-0.5-0.1
	c-0.2,0.2-0.5,0.4-0.6,0.5c-0.1,0.1-0.3,0.2-0.4,0.2c-0.1,0-0.2,0.1-0.4,0.1h-0.5c-0.1,0.1-0.2,0.2-0.2,0.4C63,53.8,63,53.9,63,54
	c0,0.2,0.1,0.3,0.1,0.5c-0.1,0.1-0.1,0.2-0.2,0.2c-0.1,0.1-0.2,0.1-0.3,0.2c-0.1,0-0.2,0.1-0.3,0.1c-0.1,0-0.2,0.1-0.3,0.1l-0.5,0.1
	l-0.3,0.1c-0.1,0-0.2,0.1-0.2,0.1c0.1-0.2,0-0.3-0.1-0.4c-0.1,0-0.2,0-0.2,0h-0.2h-0.2c-0.1,0-0.2,0-0.4,0.1h-0.2h-0.2
	c-0.2,0.1-0.5,0.1-0.7,0.1c-0.2,0-0.4,0-0.5,0.1c-0.1,0-0.2,0.1-0.2,0.2c-0.1,0.1-0.1,0.2-0.2,0.2c-0.2,0.1-0.4,0.1-0.6,0
	c-0.3-0.2,0-0.3,0.3-0.4s0.5-0.2,0.2-0.4c-0.2,0-0.3,0.1-0.5,0.1c-0.2,0.1-0.4,0.3-0.5,0.4c-0.2,0.1-0.4,0.2-0.6,0.2
	c-0.1,0-0.3-0.1-0.4-0.1c-0.1,0-0.2-0.1-0.2-0.2c0.5,0.1,0.4-0.3,0-0.6c-0.2,0-0.3,0-0.5,0.1c0.1,0.3,0.2,0.4,0.1,0.4
	c-0.2,0-0.3-0.1-0.5-0.2c-0.1,0-0.1-0.1-0.2-0.1l-0.2-0.1c-0.1-0.1-0.2-0.2-0.4-0.2h-0.1h-0.1l-0.2-0.1c-0.1-0.1-0.2-0.1-0.3-0.1
	c-0.1,0-0.2-0.1-0.3-0.2l-0.3-0.2l-0.2-0.2c0-0.1-0.1-0.1-0.1-0.2c-0.1-0.2-0.1-0.4-0.1-0.6c0-0.2,0-0.4,0-0.6c0-0.1,0-0.1-0.1-0.2
	c0,0,0-0.1,0-0.1v-0.1c-0.1-0.2-0.2-0.3-0.4-0.5c-0.1,0.2-0.2,0.3-0.3,0.2c-0.2-0.1-0.3-0.3-0.4-0.5l-0.1-0.2c0-0.1-0.1-0.1-0.1-0.2
	l-0.2-0.4c0-0.1-0.1-0.1-0.1-0.2c0-0.1,0-0.1-0.1-0.2c0-0.1-0.1-0.2-0.2-0.3c-0.1-0.2-0.1-0.5,0-0.7c0-0.1,0.1-0.2,0.1-0.3l0-0.1
	l0.1-0.1c-0.1-0.2-0.2-0.6-0.3-0.7c-0.2,0.1-0.4,0.2-0.6,0.4c0-0.1,0-0.3,0-0.4s0-0.3,0-0.5s0-0.1,0-0.2v-0.3v-0.2
	c0-0.1,0-0.2,0-0.3v-0.2l0,0c-0.1,0-0.2,0-0.2,0c-0.2,0,0,0.4-0.2,0.5c-0.5-0.8-0.7,0-1.2,0c-0.3,0-0.4-0.2-0.6-0.2
	c-0.4-0.1-0.7,0.3-1.1,0.3s-0.5-0.4-0.8-0.5c-0.7-0.1-1.4-0.2-2.1-0.2c0,0.6-0.1,1.2-0.1,1.7c-0.1,0.2-0.2,0.5-0.3,0.8s0,0.5,0,0.7
	c0,0.2,0,0.3,0.1,0.5c0,0.2,0.1,0.4,0.2,0.6c0.2,0.3,0.4,0.5,0.5,0.8c0,0.2-0.2,0.2-0.2,0.3c0.4,1.1,0.1-0.4,0.3,0
	c0.2,0.6,0.5,1.2,0.8,1.7c0.1,0.3,0.2,0.5,0.3,0.8c0.1,0.2,0.2,0.4,0.2,0.7h0.7l-0.1-0.4c0-0.1,0-0.2,0-0.3c0-0.2,0-0.4,0-0.6
	c0,0.1,0.1,0.2,0.2,0.3c0,0,0,0.1,0,0.1c0.2,0.3,0.4,0.7,0.6,1l0,0c0.1,0.4,0.2,0.8-0.2,0.5c0.1,0.3,0.3,0.5,0.4,0.7l0.3,0.5
	c0.1,0.2,0.3,0.5,0.4,0.7c0.1,0.2,0.2,0.4,0.2,0.5c0.1,0.2,0.2,0.4,0.3,0.8c0.2,0.2,0.4,0.3,0.7,0.5c0.1,0.1,0.3,0.1,0.4,0.1
	c0.2,0,0.3-0.2,0.5-0.1c0.6,0.4,1.2,0.8,1.8,1.2c0.5,0.4,1.1,0.7,1.8,0.9c-0.6,0.2-0.1,0.5,0.8,0.8l0.3,0.1l0.4,0.1
	c0.3,0.1,0.5,0.1,0.8,0.2c0.5,0.1,1,0.1,1.5,0.2c1.1,0.1,1.3-0.1,1.5-0.3s0.4-0.3,1.5-0.4c0.6,0.1,0,0.3-0.5,0.5s-1,0.3-0.2,0.5
	c0.3-0.1,0.7-0.2,1-0.3c0.6-0.4,1.1-0.8,1.7-1.3c0.4-0.1,1.1-0.4,1.1-0.3c-0.1,0.1-0.3,0.2-0.4,0.3c-0.1,0.1-0.1,0.1,0,0.2
	c0.1,0,0.2,0,0.3,0c0.2,0,0.4,0,0.6-0.1c0.2-0.2,0.4-0.3,0.6-0.5c-0.5,0-0.7,0-0.6-0.1c0.3-0.2,0.5-0.3,0.8-0.4l0.3-0.2l0.3-0.2
	c0.2-0.1,0.4-0.2,0.7-0.4c0.4-0.2,0.7-0.5,1-0.9c0.2-0.2,0.3-0.3,0.4-0.5l0.2-0.2l0.2-0.2c0.1-0.1,0.2-0.2,0.3-0.3
	c0.1-0.1,0.2-0.2,0.3-0.2c0.2-0.2,0.5-0.4,0.8-0.5c0.1-0.1,0.3-0.1,0.4-0.2c0.2-0.1,0.3-0.2,0.5-0.3c0.4-0.4,0.8-0.9,1-1.4
	c-0.3,0.2-0.4,0.1-0.3-0.1c0-0.1,0.1-0.3,0.1-0.4l0.2-0.6l0.1-0.3c0-0.1,0.1-0.2,0.1-0.3l0.1-0.3l0.1-0.3c0.1-0.2,0.1-0.5,0.2-0.7
	s0-0.2,0.1-0.3s0-0.2,0-0.3c0.2-0.7,0.4-1.4,0.8-2c0-0.2,0-0.4-0.1-0.7C72.6,48.5,72.5,48.2,72.5,48z M44.2,48.2
	c-0.6,0.3,0.1-0.8-0.5-1c0-0.3,0.2-0.2,0.4-0.2C44.2,47.8,44.3,48,44.2,48.2z M81.2,44.2l0.2,0.1c0-0.2-0.1-0.4-0.1-0.6
	C81.2,43.9,81.2,44.1,81.2,44.2L81.2,44.2z M32.7,75.3h1C33.6,74.3,32.6,74.9,32.7,75.3z M81.2,42.9h-0.8c0.1,0.2,0.1,0.3,0.1,0.5
	h0.7l0,0L81.2,42.9z M82.5,64.2c0,0.2-0.1,0.4-0.1,0.7h0.2C82.6,64.5,82.5,64.2,82.5,64.2z M100.3,70l-0.2-0.9
	c-0.1,0-0.3,0.1-0.4,0.1c-0.1-0.5,0.2-0.3,0.3-0.6c-0.3-1.1-0.7-2.3-1.3-3.3h-1.4l0.1,0.1l0.1,0.2l0.1,0.2l0.2,0.4
	c0.1,0.3,0.3,0.5,0.4,0.8l0.3,0.8l0.3,0.8c0.2-0.2,0.4-0.2,0.6-0.2c-0.1,0.3-0.6,1-0.2,1.2c0,0.1,0,0.1,0,0.2c0,0.2,0.1,0.3,0.1,0.5
	v0.1c0.2-0.1,0.3-0.1,0.4-0.3c0.2,0.2,0.4,0.3,0.7,0.4C100.4,70.3,100.4,70.2,100.3,70z M96.5,65.3C96.4,66.2,97,65.4,97,66
	c-0.5,0.2-1.3-1.2-1.4,0c0.3,0.1,0.5,0.3,0.8,0.5c-0.2,0.4-0.5-0.2-1,0c0.1-0.9-0.2-0.6-0.4-1.5c0.1-0.1,0.3-0.2,0.5-0.2h1.2
	c-1.1-1.8-2.6-3.5-4.3-4.8l-3-2.3c0-0.3,0-0.7,0-1c0-0.1,0-0.2,0-0.3c0-0.3,0-0.6,0-0.8c0-0.1,0-0.2,0-0.2c0-0.3-0.1-0.7-0.1-1
	c0-0.1,0-0.2,0-0.2c0-0.3-0.1-0.5-0.1-0.8v-0.3c0-0.3-0.1-0.7-0.1-1V52l-0.2-1c0-0.1,0-0.2,0-0.3l-0.2-0.8c0-0.1,0-0.1,0-0.2
	c-0.1-0.3-0.1-0.7-0.2-1c0-0.1,0-0.2,0-0.2L88,47.7v-0.3c-0.1-0.3-0.2-0.7-0.2-1v-0.1l-0.2-0.9c0-0.1,0-0.2-0.1-0.3l-0.2-0.6
	c-0.3,0.1-0.6,0.1-0.8-0.1c0.2,0.7-0.1,0.8-0.4,0.8c-0.1-0.4,0-0.8,0.2-1.2c0.3,0,0.5,0,0.8,0c0-0.1,0-0.2-0.1-0.2
	c-0.5,0.1-1,0-1.4-0.2c0.3,1-0.2,0.7-0.6,0.8c-0.3,0.4,0.4,0.8-0.2,0.8c-0.2-0.2,0-0.4-0.4-0.7h-1c-0.2,0-0.1,0.4-0.2,0.5
	c-0.3-0.4-0.8-0.7-1.3-0.7c0.2,0.4,0.3,0.9,0.4,1.3l0,0v0.1c0.1,0.8,0.2,1.8-0.2,0.7c0.4,1.5,0.7,3,0.8,4.6c0,0.2,0,0.4,0,0.6
	s0,0.4,0,0.6c0,0.4,0,0.9-0.1,1.5c0.1,0.5,0.2,1.1,0.3,1.6c0,0.2,0.1,0.5,0.2,0.7c0.2,0.3,0.3,0.3,0.5,0.7c0,0.2,0.1,0.4,0.1,0.6
	v0.6c0,0.4,0,0.8,0,1.2c0,0.2,0,0.4,0,0.6V60l-0.1,0.5c0,0.2,0,0.4,0,0.5l-0.1,1l-0.1,0.5l-0.1,0.5c0,0.3-0.1,0.7-0.1,1l-0.1,0.7
	h1.2l0.1,0.1c-0.2,0.1-0.4,0-0.4,0.3c0.1,0,0.2,0.2,0.3,0.2c0.3,0,0.1-0.3,0.2-0.5l0.1-0.1H86c0,0.1,0,0.2,0,0.3
	c-1.1-0.5-1.1,0.6-1.8,1c0-1.4-1-0.2-1.1-1.3l0,0c-0.1-0.2-0.1-0.1-0.2,0l0,0c0.1,0,0.1,0.1,0.2,0.2c0,0.3,0.2,0.7,0,0.7
	c0-0.2-0.1-0.4-0.2-0.6c-0.1,0.2-0.1,0.4-0.2,0.7s-0.2,0.8-0.3,1.2c-0.1,0.2-0.1,0.5-0.2,0.7L82,68.6l-0.2,0.8
	c-0.1,0.3-0.1,0.5-0.2,0.8s-0.1,0.6-0.2,0.9c0.1,0.1,0.2,0.1,0.3,0.2c0.3,0,0.4-0.3,0.7-0.3c0.6,0.1,1.4,0.6,2,0.2
	c-0.2,0-0.4-0.2-0.4-0.3c0.3-0.3,0.8,0.1,1.3,0.2c0.2,0,0.1-0.2,0.2-0.2s0.3,0.3,0.5,0.2s0.3-0.7,0.4-0.7s0.3,0.4,0.5,0.5
	s0.5-0.1,0.7,0c0.1,0,0.7,0,0.7,0s0,0,0.1,0.1l0,0c0.2-0.2,0.4-0.4,0.5-0.6c0.2-0.4,0.3-0.9,0.3-1.4c-0.8,0.7,0-1.9-0.2-2.9
	c0.1-0.3,0.1-0.5,0.2-0.7l0.1,0.1c0.2,0.3,0.4,0.6,0.6,0.9l0.2,0.2l0.1,0.1l0.1,0.1c0.1,0.2,0.2,0.3,0.3,0.5
	c0.2,0.4,0.4,0.7,0.6,1.1c0.5,0.4,0.4,0.1,0.2-0.4s-0.6-1-0.5-1s0.1,0,0.2,0s0.2,0.2,0.3,0.3s0.1,0.2,0.1,0.2c0,0.1,0.1,0.2,0.1,0.2
	c0.1,0.2,0.1,0.3,0.1,0.5c0.1,0.3,0,0.5-0.1,0.6l0.4,0.3c0.2,0.6,0.4,1.2,0.6,1.8c0.1,0,0.1,0,0.2,0c0.2-0.2,0.5-0.3,0.8-0.3
	c0-0.1,0-0.2-0.1-0.2l-0.1-0.3c-0.1-0.2-0.1-0.4-0.2-0.6c-0.5-1.4-1.4-2.7-2.6-3.8c-0.2-0.1-0.4-0.2-0.6-0.3
	c-0.1-0.1-0.3-0.2-0.4-0.3s0,0.1-0.1,0.1c-0.3,0-0.4-0.2-0.6-0.5h0.3h-0.1c0,0.1,0.1,0.1,0.2,0.1c0.1-0.2,0.2-0.3,0.3-0.6l0,0
	c1,0.9,1.9,1.9,2.6,3.1l0,0c0.3,0.5,0.6,1,0.8,1.5l0,0c0.2,0.5,0.4,1.1,0.6,1.6l0,0c0,0,0,0,0,0.1c0.7-0.1,1.5,0.1,2.2,0
	c0.1,0.4,0.2,0.6,0.5,0.5c0.3-1-0.8-1-0.5-1.5c0.5,0,0.7,0.9,1.1,1.2c0.7-0.1,1.3-0.4,1.9,0c-0.3-2-1-3.9-2-5.6L96.5,65.3z
	 M82.6,46.5c-0.2-0.7,0.2-0.5,0.1-1s-0.6-0.5-0.6-1.2c0.2,0.1,0.3,0.8,0.7,0.5C82.8,45.9,83.5,46.6,82.6,46.5z M89.2,63.8L89.2,63.8
	L89.2,63.8L89.2,63.8z M87,65c-0.5-0.2-0.2,0.6-0.4,0.8c-0.3-0.4-0.3-0.7-0.1-0.8H88c0.1,0.1,0.2,0.2,0.2,0.3
	C88.2,65.8,87.2,66.4,87,65z M87.6,69.4c-0.1-0.7,0.7-0.6,1-0.3C88.4,69.7,87.9,68.8,87.6,69.4L87.6,69.4z M88.3,64.9h0.4
	c0.3,0.3,0.4,0.6,0.4,1C88.9,65.5,88.4,65.4,88.3,64.9L88.3,64.9z M89.1,64.3v-0.1c0,0,0-0.1,0-0.2l0.1-0.1l0.2,0.2h0.1L89.1,64.3z
	 M94.3,70.5c-0.4-0.3-0.7-0.7-0.6-1.2c0.2,0,0.3-0.2,0.3-0.5c0.4,0.2,0.7,0.7,0.7,1.2C94.4,69.9,94.2,70.1,94.3,70.5L94.3,70.5z
	 M93.5,65.9c-0.2,0.1-0.1,0.6-0.4,0.3c0-1.1,1.1-0.6,1.6-1C94.9,66.1,94,65.7,93.5,65.9L93.5,65.9z M94.8,68.6
	c0.3,0.5,0.5,0.9,0.7,1.4C95,70.3,95,69.2,94.8,68.6L94.8,68.6z M82.1,65.9l0.1-0.5c0.2-0.5,0.1,0.4,0.1,0.7c0.1-0.3,0.1-0.7,0.2-1
	h-0.2C82.3,65.3,82.2,65.6,82.1,65.9z M35.8,73.1l-0.7-1.2c-0.7-2.3-1.1-4.6-1.4-7c-0.1-1.2-0.2-2.5-0.3-3.8c0-0.3,0-0.7,0-1v-1
	l0.1-2c0.1,0.7,0.2,1.3,0.2,2c0,0.3,0,0.7,0,1.1c0,0.2,0,0.5,0,0.7v0.8c0.1,0.3,0.2,0.6,0.3,0.9c0.1,0.2,0.1,0.2,0.1,0
	S34.1,61.9,34,61c-0.2-1.7-0.3-4.2,0.1-5c-0.2,0.3,0-2.3,0.3-3.7c-0.1,0.4-0.3,0.8-0.4,1.2v1.8c-0.2,1.9-0.4,1.8-0.5,1.2
	c0-0.3-0.1-0.7-0.1-1.1c0-0.2,0-0.5-0.1-0.7c0.2-1.8,0.6-3.7,1.3-5.4c0.1-0.3,0.2-0.6,0.3-0.9h-1L33.9,49c-0.1,0.4-0.2,0.8-0.2,1.2
	s-0.1,0.8-0.2,1.2c-0.2,0.5-0.4,1.1-0.5,1.7c-0.1,0.6-0.2,1.2-0.3,1.8c0-0.2-0.1-0.2-0.1,0l-0.1,0.2c0,0.1,0,0.2-0.1,0.3l-0.1,0.3
	l0,0c0.2-2,0.5-4.1,0.9-6.1l0,0c0-0.3,0.1-0.5,0.2-0.8v-0.1c0-0.1,0-0.2,0.1-0.3h-6.4c0,0.3-0.1,0.5-0.2,0.8
	c-0.2,1.4-0.5,2.7-0.6,4.1c0,0.3-0.1,0.7-0.1,1l-0.1,1V56v0.5v0.5v0.1l0,0h-0.1l-0.2,0.1l0,0h0l-0.1,0.1l-0.2,0.1l-0.4,0.3l-0.9,0.6
	l-0.4,0.3c-0.1,0.1-0.3,0.2-0.5,0.3c-1.2,0.9-2.2,1.9-3.1,3l-0.5,0.7l-0.5,0.7c-0.3,0.4-0.5,0.8-0.7,1.2c-0.2,0.3-0.4,0.7-0.5,1
	l-0.2,0.5c-0.1,0.2-0.1,0.3-0.2,0.4l-0.3,0.8l-0.1,0.2v0.2L17,68c-0.2,0.7-0.3,1.4-0.4,2.2v0.3c0.2-0.3,0.6-0.3,0.8-0.2
	c0.1,0,0.1,0.1,0.2,0.2c-0.3,1,0.6,1.2,0.8,2c-0.2,0-0.5,0.1-0.2,0.2c0.5,0.1,0.2-0.8,0.8-0.5c0.1,1.2,1,0.7,1.5,1
	c0.1-0.6,0.6-1,1.3-1c0.2,0,0.3,0.1,0.5,0.2c0.2,0.8-0.6,0.2-0.6,0.8c0.3,0.1,0.6,0,0.9-0.2c0-0.1,0-0.1,0-0.2l0,0
	c0-0.1,0-0.2,0-0.3c-0.1-0.4-0.2-0.7-0.4-1c0.1,0.3-0.3,0.3-0.4,0c0-1.5,0.7,0.3,1.1,0.5s0.2-0.5,0.7-0.3c0,0.3-0.1,0.5,0.2,0.5
	c0-0.8-0.3-0.9-0.4-1.5c0.2,0,0.3-0.1,0.4-0.3c0.3,0.2,0.4,0.7,0.6,1c0-0.2,0.1-0.5,0.3-0.7c0.1-0.2,0.1-0.5,0-0.7
	c0.1-0.2,0.2-0.5,0.4-0.7l0.2-0.3c0.1-0.1,0.1-0.2,0.2-0.3l0.2-0.3c0.1-0.1,0.1-0.2,0.2-0.3l0,0l0,0l0,0l0,0l0,0l0-0.1
	c0.1-0.3,0.3-0.6,0.4-0.9c0.1-0.1,0.2-0.2,0.2-0.3l0.1-0.1l0,0l0,0v0.1c0,0.1,0,0.2,0,0.3c-0.1,0.2-0.1,0.4-0.2,0.5
	c0,0.4,0.3,0,0.5,0.4c0,0.2-0.2,0.1-0.2,0.3c0.3,0.8,0.1-0.3,0.3,0s0.1,0.4,0.1,0.7s0.1,0.5,0.2,0.7c0.1,0.3,0.1,0.7,0.1,1
	c0.2,0,0.5-0.1,0.7-0.2c0,0,0-0.1,0-0.1c0.1-0.2,0.1-0.3,0.2-0.4l0,0c0,0.2,0.1,0.4,0.1,0.6v0.1c0,0.1,0.1,0.3,0.1,0.4
	c0.1-0.2,0.3-0.2,0.5-0.1c0,0.5,0.3,0.5,0.3,1c0.5,0.1,0.2-0.8,0.8-0.5c0.4,0,0.4,1.2,0.9,1c0.1-0.6-0.2-0.8,0-1c0.3,0,0.7-0.7,1,0
	c0.4,1.3-0.4,1.7,0,2.5c0.8-0.2,1.3,0.7,1.8,1.2c0.4-0.1,0.8,0,1.1,0.2c-0.1-0.1-0.1-0.3-0.2-0.4l-0.2-0.4l-0.2-0.4
	c0-0.1-0.1-0.3-0.1-0.4l-0.1-0.4l-0.1-0.4c0-0.2-0.1-0.3-0.1-0.4s-0.1-0.3-0.1-0.4l-0.1-0.4l-0.1-0.4l-0.1-0.5
	c-0.1-0.3-0.1-0.5-0.2-0.8s-0.1-0.3-0.1-0.4s-0.1-0.3-0.1-0.5s-0.1-0.3-0.1-0.4S33,67.8,33,67.7s0-0.3-0.1-0.4s0-0.3-0.1-0.5
	s0-0.3-0.1-0.4s0-0.3-0.1-0.5l-0.1-0.4c0-0.2,0-0.3-0.1-0.5s0-0.2,0-0.4l-0.1-0.5c0-0.1,0-0.2,0-0.4s0-0.3,0-0.5s0-0.2,0-0.4
	s0-0.3,0-0.5v-0.3v-0.5l0.1,0.8c0,0.3,0.1,0.5,0.1,0.8c0.3,2.2,0.7,4.4,1.2,6.6c0.4,1.7,0.9,3.4,1.5,5c0-0.1,0-0.2,0.1-0.2
	c0.2,0.2,0.4,0.2,0.7,0.1l0,0C35.8,73.8,35.7,73.2,35.8,73.1z M18,71.4c0.3-0.3,0.4-1.4,0.9-0.8c0,0.4-0.3,0.7-0.7,0.8
	C18.1,71.4,18.1,71.4,18,71.4z M19.4,72.1c0.4-0.1,0.8,0,0.9,0.7C19.9,72.9,19.5,72.9,19.4,72.1L19.4,72.1z M20.5,71.1
	c-0.1-0.5,0.3-0.5,0.6-0.5C21.4,71.5,20.8,71.5,20.5,71.1L20.5,71.1z M23,70.6C23,71,23,71.4,22.6,71.3l0,0v0.1c0,0,0-0.1,0-0.1
	c-0.2-0.3-0.3-0.7-0.3-1c0.2-0.1,0.3,0.2,0.5,0.2c0.1-0.3,0.2-0.7,0.3-1l0,0c-0.1,0.3-0.2,0.7-0.3,1C22.9,70.6,23,70.6,23,70.6
	L23,70.6z M25,66.6l-0.1,0.2l-0.1,0.2l-0.2,0.2l-0.2,0.2c-0.1,0.1-0.2,0.3-0.3,0.4l-0.3,0.4l0,0l0,0c0.2-0.4,0.4-0.7,0.6-1l0,0
	c0.2-0.3,0.5-0.7,0.7-1c0.1-0.1,0.3-0.1,0.4-0.2C25.4,66.1,25.3,66.4,25,66.6L25,66.6z"/>
<path class="st3" d="M94.5,61.5l0.3,0.3l0.4,0.4c0.5-0.1,1.2,0,1.6-0.1c-0.4-0.5-0.8-0.9-1.2-1.3h-0.2c0.2,0.3,0.4,0.5,0,0.2
	l-0.2-0.2c-0.4,0-0.8,0.1-1.2,0.1l0.3,0.2L94.5,61.5z M88.5,70l0.7,0.1c0.1-0.1,0.1-0.3,0.1-0.4C88.9,69.6,88.5,69.7,88.5,70
	L88.5,70z M92.7,70.1l0.9-0.2c0-0.1,0-0.2-0.1-0.2l0,0l-0.8,0.1l-0.1,0.1L92.7,70.1z M91.4,68.4L91.4,68.4c0.1,0,0.2-0.1,0.3-0.1
	c0-0.1-0.1-0.2-0.1-0.4s-0.2-0.4-0.3-0.6h-0.5c0.2,0.3,0.3,0.6,0.5,0.9c0.1,0,0.1-0.1,0.2-0.1L91.4,68.4L91.4,68.4z M86.8,61.8
	L86.4,62c1.3,0.4,2.6,0.2,3.8-0.3c1,1.2-3.6,0.3-1.7,1.4c-1.4-0.4-3.3,0.5-4.4,0.5c1.8,0.3,3.3,1.5,2.8,2.2c3.8-0.8,0-2.7,3.3-3.2
	l2.3,0.3l0.8-1.4c1.4,0-0.8,1.1,1.3,1c0.1-0.1,0.1-0.1,0.2-0.2c-0.4-0.5-0.9-0.9-1.4-1.4c-1.4,0-2.8,0-4,0.1
	c0.2-0.1,0.6-0.2,0.4-0.4c-2.4,0-3.8-0.2-5.9-0.2v0c0,0.2,0,0.4,0,0.5l-0.1,0.8c0,0,0.1,0,0.1,0.1h-0.1v0.2l-0.1,0.5v0.1
	C84.8,62.7,85.7,61.7,86.8,61.8L86.8,61.8z M89.3,67.4h-0.6c0.1,0.1,0.3,0.3,0.6,0.4L89.3,67.4z M59.5,63L59.5,63L59.5,63
	C59.4,63,59.4,63,59.5,63z M87.9,72.5c0-0.2,0-0.3,0-0.4c-0.5,0.1-1.1,0.2-1.7,0.2C86.8,72.4,87.3,72.5,87.9,72.5L87.9,72.5z
	 M84.2,71.5l1.8,0.3c-0.2-0.6,3.4-0.4,2.5-1.8c-2.3-0.3-4.5-0.5-6.7-0.6c-0.1,0.2-0.1,0.5-0.2,0.7l-0.1,0.4c1.4-0.2,2.8,0,4.8-0.2
	C87.9,71.3,84.3,70.9,84.2,71.5L84.2,71.5z M33.3,68.3c0.1,0.5,0.2,1,0.4,1.5c0,0.1,0.1,0.2,0.1,0.4l0.8-0.3c-0.2-0.7-0.3-1.3-0.4-2
	c-0.2-0.1-0.3-0.2-0.3-0.4C33.7,67.8,33.5,68,33.3,68.3z M97.5,66.2L97.5,66.2L97.5,66.2L97.5,66.2z M97.8,63.5
	c-0.1-0.2-0.2-0.3-0.3-0.5c0,0.1,0,0.2,0.2,0.5H97.8z M92.3,67.4h-0.7l0,0c0,0.1,0.1,0.2,0.1,0.2c0,0.1,0.1,0.2,0.1,0.2
	c0.1,0.1,0.1,0.3,0.1,0.4c0.9,0,1.3,1,0.6,1.3h0.1l0.6-0.4C93,68.6,92.7,67.9,92.3,67.4z M99.5,66.9L99.5,66.9L99.5,66.9L99.5,66.9z
	 M98.8,65.2l-0.2,0.1L98.8,65.2L98.8,65.2z M97.8,66l0.8-0.6C98.2,65.5,98,65.7,97.8,66L97.8,66z M95,69.5l-1.3,0.1l0.1,0.2
	C94.1,69.8,94.5,69.7,95,69.5z M93.8,67.9c0.3,0,0.6-0.2,0.8-0.5h-2c0,0,0,0.1,0.1,0.1l0,0c0.3,0.5,0.5,1,0.7,1.5l0,0
	c0,0,0,0.1,0.1,0.1l3.1-2.2C95.1,66.7,95.4,67.8,93.8,67.9L93.8,67.9z M97,67c0.1-0.3,0.2-0.5,0.4-0.7l-0.9,0.7
	C96.7,66.9,96.9,67,97,67z M97.2,67.4l0.1-0.3L97,67C96.9,67.1,97,67.3,97.2,67.4L97.2,67.4z M91.1,80c-0.2,0.6-0.3,1.2-0.4,1.9
	C90.9,81.1,91.3,80.4,91.1,80z M29.6,78.6c-0.1-0.4-0.3-0.6-0.4-0.6c0.1,0.2,0.1,0.4,0.1,0.6v-0.2C29.4,78.3,29.5,78.6,29.6,78.6z
	 M95.5,92.1l-0.3,0.6h0.1c0.2-0.6,0.6-1.2,0.9-2c0.4-1,0.9-2.2,1.4-3.4s0.8-2.3,1.2-3.2c-0.4,1.1-0.9,2.2-1.4,3.2
	C96.8,88.9,96.2,90.5,95.5,92.1z M76.3,93L76.3,93h-0.2l-0.8,0.1h1.4l-0.2-0.1L76.3,93z M22.4,72.4c-0.2-0.3-1.1-0.2-1.6-0.3
	C21.3,72.3,21.9,73.2,22.4,72.4z M29,90.9c0,0,0-0.1,0-0.1l0,0l0,0v-0.1l-0.1-0.3c-0.2-0.8-0.5-1.7-0.9-2.5
	c-0.5-0.5-0.5-0.1-0.3,0.4s0.4,1.2,0.3,1.1c-0.1,0.2-0.2-0.2-0.4-0.5c-0.3-0.7-0.4-1.5-0.2-1.7l-0.4-0.3c-0.6-1.6-1.1-3.3-1.6-5
	c0.4,0.4,0.7,1,0.7,1.5c0.7,0.5,0.5,0.2,0.2-0.3s-0.7-1.3-0.5-1.7c-0.2,0.2-0.4-0.7-0.6-1.2l0,0.5l0.4,0.6c0.2,1.4-0.6,0.1-0.7,0
	c-0.2-0.6-0.3-1.3-0.2-1.9c0.1-0.7,0-1.4-0.2-2.1c-0.2,0-0.1,0.3-0.3,0.2c-0.1-0.2-0.2-0.4-0.3-0.5c-0.1-0.1-0.1-0.2-0.1-0.3
	c0-0.1,0-0.1,0-0.2c0-0.1,0-0.2,0-0.3c0-0.1,0-0.2,0-0.3c0-0.1,0-0.2,0-0.3c0-0.2-0.1-0.4-0.2-0.6c-0.2-0.4-0.2-0.9-0.1-1.4
	c0.2-0.2,0.3,0.1,0.3,0.4c0,0.1,0.1,0.3,0.1,0.4c0,0.1,0.1,0.2,0.1,0.1s0.1-0.3,0.1-0.5c0-0.1,0-0.3,0-0.4c0-0.1,0.1-0.3,0.1-0.4
	c0-0.1,0.1-0.3,0.1-0.4l-1.8,0.3V73c0,0.4,0.1,0.8,0.4,0.5v0.4c0,0.1,0,0.3,0,0.4c0,0.3,0,0.5,0,0.8c0,0.3,0.1,0.6,0.1,0.8
	c0,0.3,0.1,0.6,0.2,0.9c0.3,1.2,0.6,2.3,1.1,3.4c-0.2,0.3,0.2,1,0.1,1.2c-0.1-0.1-0.2,0.1-0.2,0.4c-0.1-0.4-0.3-0.8-0.4-1.2
	c0-0.1,0-0.2-0.1-0.2c-0.1-0.3-0.2-0.7-0.3-1L23.3,79c-0.1-0.3-0.2-0.6-0.2-0.9l0-0.3c-0.1-0.4-0.2-0.8-0.3-1.2
	c0-0.2-0.1-0.3-0.1-0.5v-0.2l-0.1-0.4c0-0.1,0-0.1,0-0.2s0-0.3,0-0.4s0-0.1,0-0.1v-0.5l0,0c0-0.2,0-0.3,0-0.5v-0.1
	c0-0.1,0-0.3,0-0.4v-0.1v-0.3c-1.5,0.2-3.1,0.4-5,0.6c-0.3-0.2-0.6-0.4-1-0.6v0.4c0,0.4-0.1,0.7-0.1,1.1c-0.1,0.2-0.1,0.4-0.1,0.6
	v0.3v0.3l0.1,0.5c0,0.3,0.1,0.6,0.1,0.8c0.1,0.4,0.1,0.6,0.2,0.7s0-0.3-0.1-0.8c0-0.3,0-0.6-0.1-0.9v-0.4v-0.2v-0.2
	c0-0.4,0-0.4,0.1,0.2c0,0.4,0.1,0.9,0.2,1.3s0.2,0.9,0.3,1.3c0.2,0.8,0.4,1.7,0.7,2.6c0.5,1.7,1.1,3.4,1.6,5.1
	c0.8,2.3,1.7,4.5,2.5,6.2h0.8v-0.1c-0.4-1.1-0.7-2.1-0.9-2.9c0.3,0.7,0.6,1.5,1,2.2v0.1c0.1,0.2,0.2,0.4,0.3,0.6c2,0,4,0,5.9,0
	c-0.3-0.1-0.6-0.3-0.7-0.6c-1-2-1.9-4-2.7-6c-0.1-0.3-0.2-0.6-0.3-0.8L25,83.9c0.4,0.8,0.7,1.7,1.1,2.5c0.6,1.4,1.3,2.8,2.1,4.2
	l0.2,0.2l0.1,0.1l0,0.1l0,0c0.1,0.1,0.2,0.1,0.3,0.2c0.2,0.1,0.3,0.1,0.5,0C29.2,91.2,29.1,91.1,29,90.9z M63.6,92.6
	c-0.1,0-0.2,0-0.3,0.1C63.4,92.7,63.5,92.7,63.6,92.6z M100.6,71.9v-0.5c0-0.2,0-0.3-0.1-0.5c0-0.3-0.1-0.6-0.1-1l-0.1-0.4
	c-0.3-0.2-0.6-0.3-0.9-0.4c-0.2-0.3,0.2-0.4,0.7-0.5l0,0c-0.4,0-0.7,0.1-1.1,0.2l0,0.1l0.1,0.4c0.1,0.3,0.2,0.6,0.2,0.8
	c0.1,0.6,0.2,1.2,0.3,1.7v0.4c0,0.1,0,0.3,0,0.4v0.9v0.9c0,0.3,0,0.6-0.1,0.9l-0.1,0.9c0,0.2,0,0.3-0.1,0.4l-0.1,0.4
	c-0.1,0.6-0.2,1.1-0.4,1.7c-0.3,1.1-0.5,2.2-0.8,3.2c-0.4,0.7-0.9,2.4-1.6,4.2c-0.6,1.5-1.2,3-1.9,4.5c0.3-0.9-0.2,0.1-0.8,1.3
	l-0.3,0.6l0,0c0.1-0.2,0.2-0.3,0.2-0.5s0.1-0.2,0.1-0.3l0.2-0.4l0.2-0.3c0.1-0.1,0.1-0.3,0.2-0.4l0.2-0.3l0.2-0.4
	c0-0.1,0.1-0.3,0.2-0.4s0.1-0.2,0.2-0.4l0.2-0.4l0.1-0.3c0.1-0.2,0.1-0.3,0.2-0.5l0.1-0.3l0.3-0.8c1.2-3,2.1-6.2,2.9-9.3
	c0.7-2.9,0.6-5.9-0.3-8.8C98.2,69,98,69,97.8,69.1c-0.7,0.4-2.8,0.9-3.9,1.5l0,0c0.1,0.6,0.2,1.1,0.3,1.7v-0.2l-0.1-0.3L94,71.3
	l-0.2-0.6c0,0,0,0,0-0.1l-0.2,0.1l-0.4-0.1c0-0.1,0.1-0.1,0.2-0.2c-0.2,0-0.4,0.1-0.5,0.1h-0.1c0.1,0.3,0.1,0.6,0.2,0.8
	c0.1,0.8,0.1,1.7,0.1,2.5c-0.1-0.2-0.2-0.4-0.2-0.6c0-0.3,0-0.6,0-0.9c-0.1-0.1-0.2-0.2-0.3-0.3c-0.1,0-0.1,0-0.1,0
	c0,0.1,0,0.1,0,0.2c0,0.1,0.1,0.2,0.1,0.3c0,0.1,0.1,0.3,0.1,0.4c0,0.1,0,0.3,0.1,0.4c0,0.3,0,0.5-0.2,0.7c0.1,0,0.1,0.1,0.1,0.4
	s0,0.6-0.1,0.8c0.1-0.1,0.2-0.2,0.2-0.4l-0.1-0.3c0-0.1,0-0.2-0.1-0.3c0.1-0.6,0.3-0.6,0.4-0.4s0.2,0.6,0.3,0.6c0,0.2,0,0.4-0.1,0.6
	l-0.1,0.2l-0.1,0.2c-0.1,0.1-0.1,0.2-0.2,0.4l-0.1,0.2l-0.1,0.2c-0.4,0.6-0.7,1.3-0.8,2c0.2,0.1,0.3-0.2,0.4,0
	c-0.1,0.6,0.2,0.5-0.2,1.4c-0.6,0.8-0.2,1.8-0.8,2.8c-0.5,0.3,0.2-1.2-0.2-1.2l-0.3,0.4c-0.2,0.6-0.8,1.2-0.7,1.7H90
	c-0.3,0.8-0.5,1.7-0.6,2.6c-0.3,0.6-0.7,1.3-1,2l-0.3,1l-0.2,0.5v0.1V90v0.1c0,0.1-0.1,0.2-0.1,0.3c-0.1,0.1-0.2,0.1-0.3,0.1
	c0,0-0.1,0-0.2,0h-0.1H87l-1-0.4l-0.4-0.4c-1.5-0.7-1.3-0.1-2.1-0.3c-0.1-0.1,0-0.2-0.1-0.3c-0.8-0.2,0.2,0.3-0.2,0.3l-0.6-0.2
	l-0.2-0.1h-0.2c-0.2-0.1-0.4-0.2-0.3-0.3c-0.3,0.1-0.6,0.2-0.9,0.3c0,0.2,0.1,0.4,0.1,0.6l-1.1-0.4l0.1-0.2l0,0
	c0.1-0.1,0.3-0.3,0.5-0.4c0.1-0.1,0.2-0.1,0.2,0c0.3-0.3,0.5-0.5,0.6-0.7c0.1-0.1,0.2-0.2,0.3-0.3l0.1-0.1l0.2-0.1l0.6-0.3
	c0.5-1-0.1-1-0.1-1.3c0.2-0.5,0.4-1,0.8-1.4c0.3-0.4,0.6-0.8,0.8-1.3c0.2,0.5,0.5,0.2,0.8-0.4c0.2-0.3,0.3-0.7,0.5-1l0.4-1
	c0.3-0.7,0.2-0.9,0.1-1.1s-0.2-0.4,0.2-1.2c0.6-0.6-0.2,1.7,0.6,0.9l0.2-0.8c-0.2-0.5-0.3-1.1-0.3-1.7c0.1-0.3,0.3-0.8,0.4-0.8
	c-0.1,0.7,0.2,0.6,0.6,0c0-0.2,0-0.4-0.1-0.6c-0.6,0.5-0.5,0.2-0.3-0.4c0.1-0.3,0.3-0.7,0.4-1.1c0.1-0.2,0.1-0.4,0.1-0.5
	c0-0.2,0-0.3,0-0.5l0,0l-5.4-0.6c0.7-0.2,1.4-0.3,2.2-0.3c-1.1-0.4-2.3-0.5-3.4-0.3L80.8,73c-0.2,0.7-0.4,1.3-0.6,2
	c-0.1,0.3-0.1,0.6-0.1,0.8c0,0.3,0,0.6-0.1,0.9c-0.1,0.3-0.2,0.6-0.3,0.8c-0.1,0.3-0.3,0.8-0.6,1.3s-0.4,0.5-0.3,0.2
	c0-0.2,0.1-0.4,0.2-0.6l0.2-0.8c0.3-1,0.6-2-0.2-0.7c-0.2,0.7-0.4,1.3-0.7,2s-0.2,1.3-0.4,1.9c-0.2,0.7-0.4,1.4-0.6,2.1
	c-0.2,0.4-0.5,1-0.8,1.4s-0.5,0.7-0.5,0.7c0.8-1.7,0.3-1.3-0.8,0.3c-0.2,0.4-0.3,0.7-0.4,0.9s-0.1,0.2-0.1,0.3v0.2c0,0,0,0.1,0,0.1
	l0.1-0.1l0.1-0.1l0.2-0.2l0.3-0.2c0.1-0.1,0.2-0.1,0.1,0c-0.1,0.2-0.2,0.4-0.3,0.6l-0.2,0.4l-0.1,0.2l-0.1,0.1l0,0h-0.1l-2.9,0.4
	c-0.9,0.1-1.9,0.3-2.8,0.5c-1.4,0.3-2.8,0.4-4.2,0.5c-0.7,0-1.3-0.1-2-0.2c-0.6-0.2-1.3-0.3-1.9-0.3c-1.4-0.1-2.7-0.1-4.1,0
	c0.6,0.2,0.6,0.3,0.2,0.3c-0.7,0.1-1.5,0.1-2.2,0.1c-1.9,0-4.5-0.2-5.8-0.2c-1.5-0.1-3-0.5-4.5-0.9c-0.5,0-1.6-0.1-2.2-0.2
	c-0.7-1.5-1.6-3.3-2.6-5.4s-2-4.6-2.8-7c-0.1-0.3-0.3-0.6-0.5-0.8c-0.1-0.1-0.1-0.1-0.1,0c0,0.2,0.1,0.4,0.1,0.6
	c0.1,0.3,0.2,0.6,0.3,1c0.2,0.7,0.6,1.6,0.8,2.2l0.3,0.7c0.1,0.2,0.1,0.3,0,0.2c0,0.2-0.1,0-0.3-0.4s-0.4-0.8-0.6-1.3l-0.3-0.8
	L36.3,76c-0.2-0.5-0.3-1-0.4-1.4c-0.2-0.8-0.3-1.4-0.2-1.5l-0.7-1.2l-0.1-0.2h-0.1l-0.8-0.4l0.7-0.1c0-0.2-0.1-0.3-0.1-0.5
	c-0.3,0-0.6,0.1-0.9,0.1c1.1,4,2.7,7.9,4.8,11.5c0.4,0.5,0.7,1,1,1.5s0.6,0.9,0.9,1.4c0.5,0.8,1,1.6,1.6,2.5c-0.1,0-0.2,0-0.3,0
	c0.4,0.3,0.8,0.6,1.3,0.8l-1.4-0.2l-0.5-0.9L41,87c-0.1-0.2-0.2-0.4-0.4-0.6l-0.2-0.3l-0.3-0.5l-0.2-0.4l-0.3-0.5l-0.2-0.4l-0.3-0.5
	l-0.2-0.4c-0.1-0.2-0.2-0.3-0.3-0.5l-0.2-0.4c-0.1-0.2-0.2-0.3-0.2-0.5L38,81.6c-0.1-0.2-0.2-0.3-0.2-0.5l-0.2-0.4
	c-0.1-0.2-0.2-0.4-0.3-0.6s-0.1-0.2-0.2-0.3c-0.1-0.3-0.2-0.6-0.4-0.8l-0.1-0.3L36.4,78l-0.2-0.4L36,77.2c0-0.1-0.1-0.3-0.2-0.4
	s-0.1-0.3-0.2-0.5l-0.2-0.4l-0.2-0.4L35.1,75c-0.1-0.2-0.1-0.3-0.2-0.4l-0.2-0.4l-0.2-0.4c0-0.1-0.1-0.3-0.1-0.4l-0.1-0.4l-0.1-0.4
	c0-0.2-0.1-0.3-0.1-0.4S34,71.6,34,71.5l-0.1-0.4l-0.1-0.3c-0.2,0-0.4,0.1-0.7,0.1c-0.4-0.2-0.1-0.4,0.5-0.6l0,0
	c-0.1-0.3-0.1-0.5-0.2-0.8s-0.1-0.3-0.1-0.4s-0.1-0.3-0.1-0.5v-0.1c-0.3,0.4-0.6,0.6-1.1,0.8l-0.3-0.5c-1.9-0.3-2.4,0.6-3.3,1.2
	c0,0.2,0.1,0.3,0.1,0.5v0.1c0,0.2,0.1,0.4,0.1,0.6l0,0c-0.1,0.3-0.1,0.7-0.4,0.3c0,0.5,0.1,0.8,0.1,1.1c0,0.2,0,0.4,0,0.6
	c0,0.2,0,0.3-0.1,0.5l-0.2,0.6c0.4,1,0.7,0.6,1,0.9c0.3,0.5,0.4,1,0.5,1.6c0.1,0.5,0.2,1,0.4,1.5c-1-0.5,0.1,1.8,0.6,2.9
	c0.3,0.7,0.5,0.8,0.7,0.8s0.4,0.1,0.7,0.9c0,0.9-1.1-1.3-1-0.2l0.5,0.6c0.5,0.3,1,0.6,1.4,0.9c0.2,0.3,0.4,0.8,0.3,0.8
	c-0.2-0.3-0.3-0.3-0.4-0.2c-0.1,0.2-0.1,0.5,0,0.7c0.1,0.2,0.3,0.3,0.5,0.4c0-0.8,0.2-0.5,0.5,0.1c0.2,0.3,0.3,0.7,0.5,1
	c0.1,0.3,0.3,0.5,0.6,0.7c0.2,0.2,0.4,0.4,0.5,0.6c0.1,0.1,0.2,0.3,0.2,0.4c0,0.1,0,0.2,0,0.2c0,0,0,0-0.1,0.1h-0.2
	c-0.3,0-0.6-0.1-0.8-0.1c-0.1,0-0.2,0-0.3,0c-0.1,0-0.2,0.1-0.4,0.1c0.2,0.1,0.2,0.2,0.2,0.3c0,0,0,0.1-0.1,0.1l-0.2,0.1l-0.4,0.2
	c-0.6,0.2-1.3,0.5-1.9,0.9c-0.5,0.2-1.1,0.2-1.6,0.2c-0.2,0.2-0.7,0.4-0.8,0.6c0.2,0.2,0.4,0.3,0.7,0.4l-0.5,0.2h-0.1
	c3.5,0.1,6.8,0.3,10.1,0.6c1.5,0.8,5.8,0.3,7,1.2c4.9-1.5,10-1.5,14.9-1.3l-0.2,0.1l2.3-0.2c0.1,0.1,0.1,0.2,0,0.3
	c2.6-1.1,6.7,0,9.8,0.4l-0.2,0.1H75l1.2-0.1l0.5,0.2c6.1,0,12-0.3,17.9-0.5l0.1-0.3c0.4-0.9,0.7-1.7,0.7-1.8
	c1.4-3.3,2.4-5.9,3.2-8.2c0.4-1.1,0.7-2.2,1-3.2l0.2-0.8c0.1-0.2,0.1-0.5,0.2-0.8c0.1-0.5,0.3-1,0.3-1.6l0.1-0.8l0.1-0.8
	c0.1-0.6,0.1-1.1,0.1-1.7C100.6,72.5,100.6,72.2,100.6,71.9L100.6,71.9z M90.2,88c-0.3,0.8-0.7,1.5-1,2.2l-0.4,0.4
	C89.1,89.7,89.6,88.8,90.2,88z M91.3,85.3c-0.1,0.2-0.2,0.4-0.2,0.6s-0.2,0.4-0.2,0.6l0,0l0,0c0.2-0.6,0.4-1.2,0.7-1.7
	C91.5,84.9,91.4,85.1,91.3,85.3z M93.3,79.6l-0.2,0.5L93,80.6c0,0.2-0.1,0.4-0.2,0.6l-0.1,0.4l-0.2,0.6c0,0,0,0.1,0,0.2
	c-0.2,0.6-0.4,1.2-0.6,1.7l0,0c0.2-0.7,0.6-1.7,0-1.4c0.3-1,0.8-2.1,1.1-3.2c0.2-0.6,0.3-1.2,0.4-1.8c0.1-0.6,0.2-1.1,0.2-1.7
	c0.1,0,0.1-0.1,0.2-0.2c0-0.1,0.1-0.2,0.1-0.3c0-0.2,0.1-0.4,0.2-0.6c0.1,0.2,0.2-0.1,0.3-0.3l0,0c0,0.2,0,0.3,0,0.5V75
	c0,0.1,0,0.3,0,0.4s0,0.1,0,0.1L94.3,76v0.1c0,0.2-0.1,0.3-0.1,0.5c-0.1,0.3-0.2,0.7-0.2,1L93.7,78c0,0.2-0.1,0.4-0.2,0.6l-0.1,0.5
	L93.3,79.6z M24.1,73.9c0,0.2,0,0.3,0,0.5c0,0.2,0,0.3,0,0.5c0,0.3,0.1,0.5,0.3,0.7c0-0.3-0.1-0.6-0.2-0.8
	C24.2,74.4,24.1,74.2,24.1,73.9z M85.1,83.2c-0.2,0.3-0.2,0.7-0.1,0.7c0.1-0.2,0.2-0.4,0.3-0.5l-0.1,0.1
	C85,83.6,85.2,83.3,85.1,83.2z M98,68.8c-0.3,0.2-0.5,0.3-0.8,0.5c0.2-0.1,0.4-0.2,0.6-0.2C98.1,69,98.2,68.9,98,68.8z M28.2,65.6
	c1.1-0.6,3.5-0.7,4.3-1.2c0,0,0-0.1,0-0.1s0-0.2,0-0.4v-0.1c-0.9-0.1-1.9,0.1-2.7,0.6l0.5,0.1L28.2,65.6z M28.1,70.7
	c0-0.2,0.1-0.4,0.1-0.6l0.1-0.2c-0.3,0.1-0.5,0.2-0.8,0.3c0,0.1,0,0.2,0,0.3L28.1,70.7z M32.7,65.4c0.3,0,0.7,0,1,0l-0.1-0.5
	c-0.3,0.1-0.7,0.2-1,0.3L32.7,65.4z M21.1,66c3,0.8-0.2-1,2-0.9c-1.3-0.2-2-1.2-1.8-1.4C19.9,64.4,23.5,65.4,21.1,66z M32.7,65.4
	v-0.2c-0.4,0.1-0.9,0.2-1.3,0.4C31.8,65.5,32.3,65.4,32.7,65.4L32.7,65.4z M32.8,63.8h-0.3c0,0.2,0,0.4,0.1,0.5
	C32.8,64.3,32.9,64,32.8,63.8L32.8,63.8z M23.1,65.1c0.2,0,0.4,0.1,0.6,0.1L23.1,65.1z M21.1,71l-0.4,0.1c0.6,0,1.3,0,1.9,0
	c0.1-0.5,0.3-1,0.4-1.5l0,0c-0.1,0.4-0.3,1-0.4,1.4c0.6,0,1.1,0.1,1.7,0.2l0-0.3c0.1-0.3,0.1-0.7,0.1-1.1c0.1-0.2,0.2-0.5,0.4-0.7
	l0.2-0.3c0.1-0.1,0.1-0.2,0.2-0.3l0.2-0.3c0.1-0.1,0.1-0.2,0.2-0.3l0,0l0,0l0,0l0,0l0,0l0-0.1c0.1-0.2,0.3-0.5,0.4-0.7
	c0.1-0.1,0.2-0.2,0.2-0.3l0.1-0.1l0,0l0,0v0.1c0,0.1,0,0.2,0,0.3c-0.1,0.2-0.1,0.4-0.2,0.5c0,0.4,0.3,0,0.5,0.4
	c0,0.2-0.2,0.1-0.2,0.3c0.3,0.8,0.1-0.3,0.3,0s0.1,0.4,0.1,0.7s0.1,0.3,0.1,0.4c0.9-0.4,2.2-0.7,3.2-1c-1.3-1,2.8-0.5,1.2-2
	l-0.8,0.7c-0.8,0-0.8-0.5-0.4-0.6c-1,0.2-0.7,0-1.1,0.5c-4.4,0.1,0.5-1.4-3.8-1.9c0.5-0.3,1.7-0.2,1.4-0.9l2.3,0.3l0-0.9
	c-2.3-0.1-4.5,0.8-5.9,2.5c2-0.7,1.1,0.3,1.2,0.9c0.1-0.2,0.3-0.4,0.5-0.6c0.1-0.1,0.3-0.1,0.4-0.2c-0.1,0.3-0.3,0.5-0.5,0.7
	l-0.1,0.2l-0.1,0.2l0,0c0.1,0.1,0.2,0.1,0.3,0.2c-0.2,0.2-0.4,0.3-0.7,0.2l-0.3,0.3l-0.3,0.4l0,0l0,0c0.1-0.3,0.3-0.6,0.5-0.8
	c-0.1-0.1-0.3-0.1-0.4-0.2c-0.2,0.2-1.5,0.4-1.3,0.9C22,66.5,19.3,66,18,65.2c-0.1,0.1-0.1,0.3-0.2,0.4l-0.2,0.5
	c-0.1,0.2-0.1,0.3-0.2,0.4l-0.3,0.8l-0.1,0.2l0,0c0.2,0,0.4-0.1,0.6-0.2c-1.5,1.3,1.8,1,2,1.8c-1,0.1-2-0.1-2.9-0.5
	c-0.1,0.5-0.1,0.9-0.2,1.4l-0.1,1.2C18.1,71,19.6,70.3,21.1,71L21.1,71z M30.5,68.1l0.1,0.1L30.5,68.1z M23.5,66.8
	c0.1,0.1,0.2,0.2,0.3,0.3C23.9,67,23.8,66.9,23.5,66.8L23.5,66.8z M30.5,66.2h0.2C30.6,66.2,30.6,66.2,30.5,66.2L30.5,66.2z"/>
<path class="st4" d="M30.2,111.6L30.2,111.6L30.2,111.6L30.2,111.6z M32.2,112.9L32.2,112.9L32.2,112.9L32.2,112.9z M65.7,105.8
	c0.1,0.5,0.2,0.9,0.4,1.3c0.2,0.4,0.3,0.7,0.5,1.2c-0.2-0.5-0.3-1-0.4-1.5C66.1,106.5,65.9,106.1,65.7,105.8z M90,88.3l0.2-0.3l0,0
	C90.2,88.1,90.1,88.2,90,88.3c0.5-0.1,1-0.1,1.4-0.1c-0.5-0.8-1.5-1.3-2.4-1.2c-0.2,0.3-0.3,0.7-0.5,1.1
	C88.9,88.4,89.4,88.3,90,88.3z M45.2,112.2l-0.1-0.1H45L45.2,112.2z M66.6,107.5c0,0.2,0,0.5,0.1,0.8l0.1,0.2c0-0.3,0-0.5,0.1-0.8
	C66.8,107.5,66.7,107.4,66.6,107.5L66.6,107.5z M20.3,88.4L20.3,88.4l0.3,0.1L20.3,88.4z M26.5,110.1c0.2,0.7,0.3,1.4-0.9,2
	c-0.6-2.2-1.9-0.8-3.2-1c1.4,3.2,5.1,1.1,7.6,0.6c-0.8-0.5-1.7-0.9-2.5-1.3C27.1,110.3,26.8,110.2,26.5,110.1z M22.9,94.2
	c0.1,0.2,0.3,0.3,0.4,0.4c0.3,0.3,0.6,0.5,1,0.7c-0.2-0.3-0.5-0.6-0.7-0.9c-0.1-0.2-0.2-0.3-0.3-0.5s-0.1-0.3-0.2-0.5
	c-0.2-0.6-0.5-1.2-0.7-1.7s-0.5-1.3-0.6-1.9c-0.3,0.1-0.7,0-1-0.1c0.6,1.5,1.2,2.9,1.7,4L22.9,94.2z M28.3,90.8l0.1,0.1l0,0.1l0,0
	c0.1,0.1,0.2,0.1,0.3,0.2c0.2,0.1,0.3,0.1,0.5,0c-0.1,0-0.2-0.1-0.3-0.3c0,0,0-0.1,0-0.1l0,0l0,0v-0.1l-0.1-0.3
	c-0.1-0.3-0.2-0.7-0.3-1.1c-0.3,0.2-0.6,0.4-1,0.6c0.1,0.2,0.3,0.5,0.5,0.7L28.3,90.8z M28.5,89.2L28.4,89c-0.1-0.1-0.3-0.1-0.4-0.1
	V89L28.5,89.2z M80.7,89.4l-0.6-0.2l0.1-0.2l0,0c0.1-0.1,0.3-0.3,0.5-0.4c0.1-0.1,0.2-0.1,0.2,0c0.3-0.3,0.5-0.5,0.6-0.7
	c0.1-0.1,0.2-0.2,0.3-0.3l0.1-0.1l0,0c-0.3-0.2-0.6-0.5-0.6-0.8l-0.6,1.2c-0.6-0.2-2.2-1.1-1.1-1.5l-4.4,0.8
	C76.7,88.2,79.3,89.9,80.7,89.4z M49.6,109.6c0-0.1,0.1-0.2,0.1-0.3c-0.5,0-0.9-0.2-1.3-0.4c-0.8-1.6-2.3-2.7-4-3
	c-0.3,1.1-0.6,2.2-1,3.2c-0.2,0.5-0.3,1-0.5,1.4l-0.1,0.1c0.9,0.3,1.7,0.8,2.4,1.3c1.3,0,2.6-0.3,3.8-0.6c0.1-0.2,0.1-0.3,0.2-0.3
	s0,0.2,0,0.3l0.5-0.1c0.1-0.1,0.1-0.2,0.2-0.3c0-0.3,0-0.5,0-0.8C49.1,110.9,49.3,110.5,49.6,109.6z M95.5,111.6l0.3-0.5l-2.6-0.1
	L95.5,111.6z M96.8,109.5c-0.9-0.1-1.8-0.1-2.6-0.1H94l3.2,1.1c0.7,0.1,1.3,0.2,1.9,0.4C98.4,110.3,96.9,110.1,96.8,109.5z
	 M91.5,109.7h-0.1l-1.1,0.3c0.2,0.1,0.4,0.2,0.7,0.3c0.2,0,0.3-0.1,0.4-0.1s0.2,0,0.1,0c0.2,0,0.2,0-0.1,0.1h-0.2
	c0.7,0.2,1.4,0.1,2-0.2C92.6,110.3,91.7,110.2,91.5,109.7z M100.7,111.2c0.2-0.2,0.3-0.4,0.6-0.5c-0.4-0.2-0.8-0.3-1.2-0.5
	C99.7,110.6,99.7,111,100.7,111.2z M104.1,112.3h-1.2c0.2,0.1,0.4,0.2,0.6,0.3l1.6,0.3C104.7,112.8,104.4,112.6,104.1,112.3z
	 M93.7,109.6l-0.1-0.2h-0.1L93.7,109.6z M68.1,107.4L68.1,107.4c0.4,0.1,0.8,0.1,1.2,0.2C68.9,107.4,68.5,107.3,68.1,107.4z
	 M38.5,87.9l-0.3-1C38,87.2,38.2,87.6,38.5,87.9z M45.8,91c-0.4,0-0.8-0.1-1.2-0.2C44.9,91,45.3,91,45.8,91z M75.3,111.7l0.3,1.3
	C75.7,112.6,75.6,112.1,75.3,111.7z M73.2,88.1c-0.3,0.2-0.5,0.3-0.5,0.5C73,88.6,73.2,88.4,73.2,88.1z M93,96.3
	c0.5-0.4,0.9-0.9,1.2-1.4c0.2-0.2,0.3-0.5,0.4-0.7l0.3-0.5c-0.3,0.3,0.3-0.9,1.1-2.8H96l-0.4,1c-0.3,0.6-0.6,1.1-0.8,1.6l-0.2,0.3
	l-0.1,0.2l-0.1,0.2l-0.2,0.3L94,94.9c-0.2,0.3-0.4,0.6-0.7,0.8L93,96l-0.2,0.2c-0.1,0.1-0.2,0.1-0.2,0.1s0,0,0.1-0.1
	c0.1-0.1,0.2-0.2,0.2-0.3c0.1-0.2,0.2-0.3,0.4-0.5l0.2-0.3c0.1-0.1,0.1-0.2,0.2-0.3s0.1-0.2,0.2-0.4s0.1-0.3,0.2-0.4l0.6-1.4
	c0.2-0.5,0.4-1,0.5-1.4h-0.9c-0.2,0.3-0.4,0.7-0.6,1.1l-0.3,0.6l0,0c0.1-0.2,0.2-0.3,0.2-0.5s0.1-0.2,0.1-0.3l0.2-0.4l0.2-0.3
	l0.1-0.2c-2.2,0.2-4.5,0.1-6.7-0.3c0.3-0.2,0.4-0.6,0.2-0.9v0.1V90v0.1c0,0.1-0.1,0.2-0.1,0.3c-0.1,0.1-0.2,0.1-0.3,0.1
	c0,0-0.1,0-0.2,0h-0.1H87l-1-0.4l-0.4-0.4c-1.5-0.7-1.3-0.1-2.1-0.3c-0.1-0.1,0-0.2-0.1-0.3c-0.8-0.2,0.2,0.3-0.2,0.3l-0.6-0.2
	l-0.2-0.1h-0.2c-0.2-0.1-0.4-0.2-0.3-0.3c-0.3,0.1-0.6,0.2-0.9,0.3c0,0.1,0,0.1,0,0.2l0.1-0.1c1.3,1.3-1.8,0.9-0.7,2.3
	c-3-2-1.8,0.9-4.9,0.4c1.4-1.8-3.1-2.4-2.9-3.2c-0.8,0.1-1.7,0-2.5-0.3c-0.4,0.1-0.9,0.2-1.3,0.3c-1.4,0.3-2.8,0.4-4.2,0.5
	c-0.7,0-1.3-0.1-2-0.2c-0.6-0.2-1.3-0.3-1.9-0.3h-0.3c1,0.5,2.2,1.2,2,2.1C61,90,59.5,90,59.2,91.3c4.9,2.4,1.6-3,6.1-1.4
	c1.1,1.5,2.3,1.8,4.7,2.3c-1,0.8-0.6,1.2-1,2.2c-2.7-3.2-7.2-0.4-11-1.9c-1.6-0.9-0.4-2.9-3.9-3.2l1.1-0.3h-0.5l-1.8-0.1l0,0
	c-0.8,0.2-2,0.3-2.5-0.2H50c-0.1,0.2-0.1,0.4-0.1,0.6c-0.2-0.3-0.6-0.4-1.7-0.4c0.6,0.2,1.1,0.1,1.1,0.5c-4-0.4-0.9,1.7-3.5,1.6
	c0.3,0.3,0,0.6-0.6,0.8h-0.6c-0.2-2.3-5-2.6-6.2-3.9l0,0l-3.4-1c0.4,0.1,0.3,0.4-0.1,0.7l0.1,0.1c0.2,0.2,0.4,0.4,0.5,0.6
	c0.1,0.1,0.2,0.3,0.2,0.4c0,0.1,0,0.2,0,0.2c0,0,0,0-0.1,0.1h-0.2c-0.3,0-0.6-0.1-0.8-0.1c-0.1,0-0.2,0-0.3,0
	c-0.1,0-0.2,0.1-0.3,0.2c0.2,0.1,0.2,0.2,0.2,0.3c0,0,0,0.1-0.1,0.1L34,89.4c0,0.4-0.2,0.8-1.3,0.6c-0.4,0.1-0.7,0.3-1,0.5
	c-0.5,0.2-1.1,0.2-1.6,0.2c-0.2,0.2-0.7,0.4-0.8,0.6c0.2,0.2,0.4,0.3,0.7,0.4l-0.5,0.2c-0.6,0.2-1.2,0-1.5-0.6
	c-0.2-0.4-0.4-0.9-0.6-1.3c-2.2,0.6-4.2-1.8-6.8-0.9l0,0c0.3,0,0.7,0,1,0v-0.1c0,0,0,0.1,0,0.1c0.5,0.1,0.9,0.3,0.5,0.8
	c-0.1,0-0.1,0.1-0.2,0.1c0.2,0.4,0.4,0.9,0.6,1.3v0.1c0.1,0.3,0.3,0.6,0.4,1l0.1,0.2l0.5,1c0.1,0.1,0.1,0.2,0.2,0.4l0.1,0.1l0.1,0.2
	c0,0,0.1,0.1,0.1,0.1l0.2,0.2l0.1,0.1c0.1,0.1,0.2,0.2,0.2,0.3l0.1,0.1c0,0.1,0.1,0.1,0.2,0.2l0.1,0.1l0.1,0.1l0.1,0.1l0.2,0.1
	l0.3,0.2l0.1,0.1L26,96l0.1,0.1c0.3,0.1,0.5,0.3,0.8,0.4l0,0l0.3,0.1h0.1l0.3,0.1l0,0h0.2c0.5,0.1,1,0.2,1.5,0.3c0.4,0,0.8,0,1.2,0
	c0.3,0,0.4,0,0.3,0C30.6,97,30.4,97,30.3,97c-0.3,0.1-0.7,0.1-1,0.2c0.4,0,0.9-0.1,1.3-0.2c0.2,0,0.4-0.1,0.6-0.2l0.5-0.2l1.9-0.7
	l3.2-1l2.4-0.8l1-0.3h0.1h0.1h0.1c0.1,0,0.2,0,0.3,0l3,0.6l1.6,0.3c0.2,0.1,0.5,0.2,0.7,0.2c0,0.1-0.1,0.2-0.1,0.4v0.2v0.1v0.3
	c0,0.4-0.1,0.8-0.2,1.2c-0.1,0.7-0.2,1.3-0.3,1.8c-0.1,1-0.2,1.5-0.2,1.9c0,0.3,0,0.6,0,0.8c0,0.4,0,0.8-0.1,1.2v0.1
	c1.5,2,3.6,1.9,5.7,1.7c0.1-0.2,0.3-0.4,0.4-0.6c0.4-0.4,0.8-0.8,1-2.7c-0.5,0.5-0.4-0.1-0.3-1l0.2-1.5c0.1-0.4,0.1-0.8,0.1-1.3
	c0.1-0.7,0.4-1.4,0.8-2c0-0.1,0-0.2,0-0.4c1.9,0.4,3.9,0.7,5.9,0.7c1-0.3,0.4-0.4-0.3-0.4c-0.5,0-1.1-0.1-1.6-0.2
	c-0.1-0.1,0.5-0.1,0.9-0.2c1,0.1,2.1,0.2,2.2,0.5l0.6-0.3c0.8,0,1.5,0,2.4,0h0.9h0.5v0.7l0.1,0.6c-0.1-0.2-0.2-0.3-0.2-0.5l0,0l0,0
	l0,0l0,0c0,0,0-0.1,0-0.4l0,0c-0.1,0.1-0.2,0.2-0.3,0.3l0,0c0.1,0,0.2,0,0.2,0.1l0,0l0,0l0,0v0.1c0,0.1,0,0.3,0,0.4
	c0,0.2,0,0.4-0.1,0.6c0.2-0.2,0.4,1.1,0.5,1.8l0.1-0.6l-0.3-0.9c-0.1-1.9,0.6,0,0.7,0.1c0.2,0.9,0.2,1.8,0.1,2.7c-0.1,1,0,2,0.3,2.9
	c0.2,0,0.1-0.4,0.3-0.3c0.3,0.6,0.5,1.2,0.7,1.8c0,0.6,0.2,1.3,0.5,1.8c0.1,0.2,0.2,0.4,0.3,0.6c0.2,0,0.3-0.1,0.5-0.1
	c-0.7-2.5-1.3-5.5-2-8.1c0.2-0.3-0.1-1.3,0-1.7c0.1,0.1,0.2-0.1,0.2-0.3c0-0.1,0-0.1,0-0.1c0.2,1.1,0.4,2.2,0.6,3.3
	c0,0.1,0,0.2,0,0.2c0.1,0.4,0.2,0.9,0.3,1.3c0,0.1,0,0.2,0.1,0.3c0.1,0.4,0.2,0.8,0.3,1.2c0,0.1,0,0.2,0.1,0.3
	c0.1,0.4,0.2,0.8,0.3,1.3c0,0.1,0,0.2,0.1,0.3c0.1,0.4,0.2,0.8,0.3,1.2c0.3-0.4,0.8-0.6,1.2-0.8c-0.1,2.9,3.5,3.7,5.3,5
	c-2-5.5-3.4-11.3-4.2-17.1c2-0.2,4-0.5,5.9-0.8l2.7,1h-0.1l-1.3-0.5l-0.7-0.2l-0.3-0.1L76.3,93h-0.1h-0.1c-1.9,0.3-3.8,0.6-5.7,0.8
	l0,0V94v0.2v0.3l0.1,0.7l0.2,1.3c0.2,0.9,0.3,1.8,0.5,2.7c0.3,1.8,0.8,3.5,1.2,5.3s1,3.5,1.6,5.2c0.1,0.4,0.3,0.9,0.5,1.3
	c0,0.1,0,0.1,0.1,0.2c0.2,0.2,0.5,0.4,0.6,0.7l0,0L76,112l-0.3-0.5c-1.1-2.8-2-5.6-2.7-8.5c-0.3-1.5-0.7-3-0.9-4.5
	C72.1,98,72,97.6,72,97.2s-0.1-0.8-0.2-1.2l-0.1-0.5c0-0.1,0-0.2,0-0.3s0-0.4,0-0.5l0.6-0.1h0.3l0.7-0.1c0.9-0.1,1.8-0.2,2.7-0.4
	h0.2h0.1c0,0,0,0,0.1,0l0.4,0.1l1.3,0.5l2.6,1l2.6,1l1.3,0.5l0.7,0.3l0.2,0.1l0.2,0.1c0.1,0,0.3,0.1,0.4,0.1
	c0.6,0.2,1.1,0.2,1.7,0.2c0.5,0,1.1-0.1,1.6-0.2c1.2-0.2,2.2-0.8,3.2-1.5c-0.9,0.8-2,1.4-3.1,1.7c-1.1,0.3-2.2,0.3-3.3,0.1
	c-0.3-0.1-0.6-0.1-0.8-0.2l-0.4-0.1l-0.4-0.1l-1.6-0.6l-3.9-1.6c-5.2-1.5-2.7-0.6,1.8,1l3.6,1.3l0.5,0.2l0.6,0.2
	c0.4,0.1,0.8,0.2,1.2,0.3c1.6,0.2,3.3-0.1,4.7-0.8C91.9,97.3,92.5,96.8,93,96.3z M55.5,94.8C54.7,95,53.8,95.1,53,95
	c0-0.2,0-0.4-0.1-0.6c-0.3,0.1-0.5,0.3-0.7,0.6l0.1-0.7c2,0.1,4,0.2,6,0.2h1.8c1.8,0,3.5-0.1,5.3-0.2C62.2,94.6,58.7,94.5,55.5,94.8
	z M65.4,94.2L65.4,94.2L65.4,94.2z M83.3,90.4l0.9,0.7l-1.7,0.2L83.3,90.4z M78.8,94.8c-1,0-1.2,0.1-1.1-0.8
	c-0.5-0.4-1.2,0.1-1.7-0.3C77.8,93,77.7,94.4,78.8,94.8c0.3,0,0.6,0,0.9,0.1C79.4,94.9,79.1,94.9,78.8,94.8z M84.8,94.1
	c-0.5-1.8-4-0.7-4.8-1.2C81.9,92.5,86,92.1,84.8,94.1z M45.8,91h0.2l0,0C45.9,91,45.8,91,45.8,91z"/>
<path class="st5" d="M32.2,112.8c0,0-0.2-0.2-0.5-0.3l-0.4-0.3l-0.4-0.3c-0.2-0.1-0.4-0.3-0.7-0.4c1.1,0.7,2.1,1.5,3.1,2.4l0.2,0.2
	l0.1,0.1l0.1,0.1l0,0l0,0c0,0,0.1,0,0.1,0l0-0.1l-0.2-0.2l0,0l0,0l0,0l0,0l-0.2-0.2c-0.2-0.2-0.3-0.3-0.5-0.5
	c-0.6-0.6-1.3-1.1-2-1.7l0.6,0.4c0.2,0.2,0.4,0.3,0.6,0.5S32.3,112.9,32.2,112.8z M5.6,123.4c0-0.3,0-0.3-0.1,0
	c-0.2,0.7-0.2,1.4-0.3,2.1c0,0.6,0,1.1,0.1,1.7h0.4c0,0,0,0,0-0.1C5.6,125.9,5.5,124.7,5.6,123.4z M50.4,117.6
	c0.1,0.2,0.3,0.4,0.5,0.5c0.2,0.1,0.3,0.2,0.3,0.1c-0.2-0.2-0.4-0.5-0.6-0.7c0,0.1,0.1,0.2,0.1,0.2C50.9,118,50.5,117.6,50.4,117.6z
	 M66.6,108.3c-0.2-0.5-0.3-1-0.4-1.5c-0.1-0.4-0.2-0.7-0.5-1c0.1,0.5,0.2,0.9,0.4,1.3C66.2,107.5,66.4,107.8,66.6,108.3z
	 M110.2,121.5c0-0.2-0.1-0.3-0.1-0.5s-0.1-0.3-0.1-0.5s-0.2-0.7-0.3-1c-0.3-0.7-0.6-1.4-0.9-2c-0.4-0.7-0.8-1.3-1.2-1.9
	c-0.5-0.6-1-1.2-1.6-1.8c-2.5-2.4-5.6-4-9.1-4.4c-0.9-0.1-1.8-0.2-2.7-0.1c-1.9,0.1-3.7,0.5-5.4,1.2c-0.9,0.4-1.7,0.8-2.5,1.3
	c-0.8,0.5-1.5,1.1-2.2,1.7c-0.8,0.8-1,1-1.1,1.1l-0.2-0.1h-0.1h-0.1h-0.1h-0.1l-0.7-0.2l-0.6-0.2c-0.1,0-0.3-0.1-0.4-0.1
	c-0.5-0.1-0.6-0.1-0.4,0s0.6,0.2,1.2,0.5l0.5,0.2l0.3,0.1h0.1l0,0h0.1c0.1,0.1,0.3,0.2,0.5,0.3c0.1-0.1,0.2-0.2,0.2-0.3l0.4-0.4
	l0.7-0.7c0.2-0.2,0.5-0.4,0.8-0.6c1-0.8,2-1.4,3.2-1.9c0.3-0.1,0.5-0.2,0.7-0.3l0.7-0.3l0.6-0.2l0.3-0.1l0.2-0.1l0.7-0.2
	c0.1,0,0.2,0,0.1,0c0.2,0,0.2,0-0.1,0.1l-0.5,0.2c-0.2,0.1-0.4,0.1-0.7,0.2s-0.6,0.2-0.8,0.3l-0.4,0.2l-0.5,0.2l-0.5,0.2l-0.5,0.3
	l-0.2,0.1l-0.2,0.1l-0.4,0.3c-0.8,0.5-1.5,1.1-2.2,1.7l-0.5,0.5l-0.1,0.1l-0.1,0.1l-0.2,0.2l-0.2,0.2l-0.1,0.1l-0.1,0.1v0.1l0,0l0,0
	l0,0c-0.2-0.2-0.5-0.3-0.7-0.4l-0.3-0.1l-0.3-0.2c-0.2-0.1-0.4-0.2-0.6-0.2c-0.7-0.3-1.5-0.5-2.3-0.7l-0.5-0.1l-0.4-0.1l-0.4-0.1
	h-0.2h-0.1l0,0c0,0-0.2-0.1-0.2-0.1h-0.2c-0.1-0.1-0.1-0.2-0.2-0.2l-0.1-0.1c-0.1-0.1-0.1-0.2-0.2-0.3l-0.4-0.7l-0.3-0.7
	c-0.9-2.3-1.7-4.6-2.3-7h-0.9v0.1c0.5,1.8,1,3.5,1.6,5.2c0.1,0.4,0.3,0.9,0.5,1.3s0.3,0.8,0.5,1.3s0.3,0.8,0.5,1.2
	c0.1,0.2,0.2,0.4,0.3,0.6l0.1,0.3l0.1,0.1v0.1l0,0l0,0l0,0c0.3,0,0.6,0,0.9,0h0.5H78c0.6,0.1,1.3,0.2,1.9,0.3
	c0.6,0.2,1.2,0.4,1.8,0.6l0.4,0.2c0.1,0,0.3,0.1,0.4,0.2s0.5,0.3,0.8,0.4l0,0l0,0l0,0l0.1-0.1l0.2-0.2l0.2-0.2l0.2-0.2l0.4-0.4
	l0.4-0.4c0.6-0.5,1.2-1,1.8-1.5c0.3-0.2,0.7-0.4,1-0.6l0.5-0.3l0.3-0.1l0.3-0.1c0.7-0.3,1.4-0.6,2.2-0.9c3-0.9,6.3-0.9,9.2,0.2
	c0.8,0.2,1.6,0.5,2.4,0.9c0.7,0.4,1.4,0.8,2,1.2c1.2,0.9,2.3,2,3.2,3.2c0.9,1.2,1.6,2.5,2.1,3.9c0.3,0.7,0.5,1.5,0.6,2.2
	c0.2,0.8,0.2,1.6,0.3,2.4C110.5,123.9,110.5,122.7,110.2,121.5z M110.5,125.2c-0.1,0.2-0.1,0.5-0.2,0.8l-0.1,0.5
	c0,0.2,0,0.3-0.1,0.5c-0.2,0.7-0.3,1.3-0.6,2l0,0l0.1-0.4c0,0,0-0.1,0-0.1c0-0.1,0-0.2,0-0.3v-0.2c0-0.1,0-0.2,0-0.3s0-0.1,0-0.1
	s0-0.3,0-0.4l0,0v-0.4c0,0,0-0.1,0-0.1c0-0.1,0-0.2,0-0.3V126c0-0.1,0-0.2,0-0.3v-0.6c-0.2-8-6.8-14.4-14.8-14.5l0,0
	c-4.6,0-8.9,2.1-11.7,5.8c-2-1.2-4.3-1.8-6.6-1.8h-0.7c-1.5-3.3-2.8-6.8-3.7-10.3l-5.1-0.2c0.1,0.4,0.2,0.8,0.3,1.1
	c0,0.1,0,0.2,0.1,0.3c0.1,0.5,0.2,1,0.4,1.4v0.1c0.3,1,0.6,2,0.9,3l0,0c-0.4-0.9-0.8-2.3-1-1.6c-0.4-1.3-0.7-2.8-1.1-4.3h-0.7
	c0.1,0.3,0.2,0.6,0.2,0.9c0,0.6,0.2,1.3,0.5,1.8c0.3,0.6,0.5,1.3,0.6,2c-0.2,0.7-0.7-1.6-0.9-1.2c0,0.2,0,0.5,0.1,0.8
	s0.2,0.9,0.3,1.3c0,0.4,0.2,0.8,0.4,1.2l-0.2,0.1c0.4,1.2,1,2.3,1.6,3.3l0.2,0.6v0.1l0,0l0,0l0,0v0.1c0,0,0,0.1,0,0.1v0.1l0,0l0,0
	l-0.2,0.1l-0.1,0.1l0,0l-0.1,0.1l-0.2,0.2c-0.6,0.4-1.2,0.9-1.7,1.4c-0.5,0.5-1,1.1-1.4,1.7l-0.1,0.2l-0.1,0.2l-0.1,0.2
	c0,0.1,0,0.1-0.1,0.2l-0.2-0.2c0-0.1-0.1-0.2-0.1-0.2v-0.2l0,0l0,0l0,0l0,0l0,0l-0.3-0.2c-0.2-0.1-0.3-0.2-0.5-0.2
	c-0.2-0.1-0.4-0.1-0.7-0.2c-0.3,0-0.7,0-1,0c-0.2-0.1-0.1-0.2-0.2-0.3c-0.2,0-0.3,0-0.5,0c0,0,0,0.1,0.1,0.1s0.4,0.2,0.2,0.2
	c-0.7-0.2-1.3-0.3-2-0.3c-0.6,0-1.1-0.1-1.7-0.2c-0.1,0.2-0.3,0.4-0.4,0.6c0.4,0.1,0.9,0.3,1.2,0.6h-0.6h-0.6l0,0H57l0,0
	c-0.4-0.1-0.9-0.2-0.3-0.4c-0.6,0-1.1,0.1-1.5,0.1l-0.8,0.1h-0.3c-0.1,0-0.2,0-0.3,0c-0.2,0-0.5,0-0.9,0c-0.2,0.1-0.3,0.2-0.4,0.3
	c-0.1,0.1-0.2,0.2-0.3,0.2l-0.1,0.1c0,0,0,0,0,0.1v0.1c0,0.2,0,0.3,0,0.5c-0.2,0.2-0.5,0.4-0.7,0.6c-0.1-0.1-0.1-0.2-0.1-0.3
	l-0.1-0.3l-0.2-0.5l-0.1-0.2l0,0l0,0l0,0l-0.1-0.2c-0.1-0.2-0.3-0.4-0.5-0.6c0.3,0.1,0.4,0,0.3-0.2c-0.2-0.3-0.4-0.6-0.7-0.9
	c-0.4-0.4-0.8-0.8-1.2-1.1l-0.2-0.1l0,0l0,0l0,0l-0.1-0.1l-0.2-0.1h-0.1l0,0l0,0l0,0V116c0,0,0-0.1,0-0.1c0-0.1-0.1-0.1-0.2-0.1
	c-0.1-0.1-0.1-0.2-0.1-0.2v-0.1v-0.1c0-0.1,0-0.1,0.1-0.2c0.1-0.2,0.1-0.4,0.2-0.6c0.4-0.4,0.3,0.1,0.2,0.7c0,0.1,0,0.3-0.1,0.4v0.1
	l0,0l0,0c0,0,0.1,0,0.1,0h0.1l0,0c0,0,0.1-0.1,0.1-0.1c0.1-0.3,0.2-0.7,0.3-1c-0.1-0.7-0.1-1.4-0.1-2.1c0.2-0.4,0.4-1.1,0.5-1.1
	c-0.2,0.9,0.2,0.7,0.6-0.1c0-0.3,0-0.5,0-0.8c-0.7,0.8-0.5,0.3-0.2-0.5c0.2-0.4,0.3-0.9,0.5-1.4c0.1-0.4,0.2-0.9,0.2-1.3
	c0.2-1.9,0.5-2.3,0.9-2.8c0.2-0.2,0.4-0.4,0.5-0.7c-2.4-0.1-4.6-0.2-6.6-0.3c-0.4,2-1,4-1.7,6c-0.2,0.5-0.3,1-0.5,1.4l-0.3,0.7
	l-0.3,0.7c-0.2,0.4-0.4,0.9-0.6,1.3l-0.2,0.4l-0.1,0.2l0,0.1v0.1l0,0l0,0l-0.7-0.1h-1.1c-0.7,0-1.5,0.1-2.2,0.2
	c-0.7,0.1-1.5,0.3-2.2,0.6l-0.5,0.2l-0.2,0.1l-0.2,0.1c-0.2,0.1-0.4,0.2-0.5,0.3l0,0l0,0l0,0l-0.1-0.1l-0.1-0.2l-0.1-0.1l-0.1-0.1
	l-0.2-0.2L33,115l0,0c0,0,0,0,0-0.1l-0.3-0.3c-0.2-0.2-0.3-0.3-0.5-0.5l0.2,0.2l0.2,0.1c0.1,0.1,0.2,0.1,0.3,0.2
	c0.2,0.1,0.3,0.2,0.3,0.1s-0.1-0.3-0.5-0.7c-0.2-0.2-0.5-0.5-0.8-0.7l-0.5-0.4l-0.6-0.4c-1-0.7-2.1-1.3-3.3-1.8
	c-2.9-1.1-6.1-1.4-9.1-0.7c-1.5,0.3-3,0.9-4.4,1.7c-0.7,0.2-1.4,0.5-2,0.8c-0.3,0.2-0.5,0.4-0.8,0.6l-0.4,0.3l-0.3,0.3
	c-0.5,0.5-1,1-1.5,1.6c-0.8,1.1-1.5,2.3-2,3.6c-0.1,0.3-0.2,0.5-0.3,0.8c-0.1,0.2-0.1,0.4-0.2,0.6c-0.1,0.4-0.1,0.6-0.2,0.9l-0.1,1
	c0,0.2,0,0.4-0.1,0.7l-0.1,0.8c0,0.8,0,1.7,0,2.5c0,0.3,0,0.5,0.1,0.8v0.1c0.8,0,1.5-0.1,2.3-0.3c1.1,0.1,1.5,0.8,0.6,1l3.2,0.9
	l-0.1-0.2c0,0,0-0.1,0-0.1c0-0.1,0-0.2-0.1-0.2c0-0.1,0-0.1,0-0.2l-0.1-0.2c0-0.1,0-0.2,0-0.2c0-0.1,0-0.1,0-0.2
	c0-0.1-0.1-0.3-0.1-0.4c0-0.1,0-0.1,0-0.2v-0.3c0-0.1,0-0.1,0-0.2c0-0.1,0-0.2,0-0.3c0,0,0-0.1,0-0.2v-0.5V125v-0.1
	c0-0.1,0-0.3,0-0.4s0-0.1,0-0.1s0-0.2,0.1-0.3v-0.2l0.1-0.2c0-0.1,0-0.1,0-0.2c0-0.1,0-0.2,0.1-0.3c0.2-0.6,0.5-1.1,0.8-1.7
	c-0.4,1-0.7,2-0.8,3c-0.2,1.1-0.2,2.3,0,3.4c0.1,0.3,0.1,0.7,0.2,1l1.7,0.5c-0.1-0.2-0.2-0.4-0.3-0.7c-0.4-1-0.6-2-0.6-3
	c0-1.1,0.2-2.1,0.6-3.1c0.7-2.1,2.2-3.8,4.1-4.8c1-0.5,2-0.8,3.1-0.8h0.4c0.1,0,0.3,0,0.4,0h0.4h0.4c0.1,0,0.3,0,0.4,0.1l0.4,0.1
	c0.3,0.1,0.5,0.1,0.8,0.2c0.5,0.2,1,0.5,1.4,0.9c0.8,0.4,1.5,1,2.1,1.6c0.1,0.1,0.2,0.2,0.3,0.3s0.2,0.2,0.2,0.2
	c0.1,0.1,0.2,0.3,0.4,0.4l0.3,0.3l0.1,0.1l0.1,0.2l0.1,0.2l0.1,0.1v0.1l0.1,0.1c0.2,0.3,0.5,0.6,0.8,0.9l0.3,0.3
	c0,0.1,0.1,0.1,0.1,0.2c0.1,0.1,0.1,0.2,0.3,0.3c0.4,0.2,0.8,0.3,1.2,0.3c0.2,0,0.3,0,0.5,0c0.1,0-0.2,0-0.5-0.1
	c-0.3-0.1-0.6-0.2-0.9-0.4c-0.1-0.1-0.2-0.1-0.1-0.1l0.3,0.1c0.5,0.2,1,0.3,1.6,0.2c0.6,0,1.1-0.2,1.6-0.5c0.1-0.1,0.2-0.2,0.3-0.2
	l0.3-0.2l0.2-0.2l0.2-0.2c0.3-0.2,0.6-0.4,0.9-0.6c0.3-0.2,0.6-0.3,0.9-0.4c0.3-0.1,0.6-0.2,0.9-0.3c0.5-0.1,1-0.1,1.5-0.1
	c0.3-0.2,0.6-0.4,0.9-0.5c-1-0.2-2-0.3-3-0.2l0.3-0.1l0,0c0.3-0.1,0.5-0.1,0.8-0.2h0.1H39h0.2h0.2h1.5h0.3h0.2h0.1
	c0.2,0,0.5,0.1,0.7,0.2h0.1l0.6,0.3c0.2,0.1,0.3,0.2,0.4,0.3c0.2,0.2,0.1,0.2-0.5,0c1,0.5,2,1.2,2.7,2.1c0.2,0.3,0.4,0.6,0.6,0.9
	c0.1,0.2,0.2,0.5,0.3,0.7l0.1,0.2c0,0,0,0.1,0,0.2l0.1,0.3c0,0.2,0.1,0.4,0.1,0.6c0,0.2,0,0.5,0,0.7c0,0.1,0,0.2,0,0.2l0.5,0.2
	c0.6-1.4,2.2-2.2,2.9-3.2c2.6-0.2,5.2-0.3,8-0.4c3.8,1.2,7.7,2.1,11.6,2.7l0,0c0-0.2,0.1-0.4,0.2-0.7s0.2-0.4,0.3-0.6l0.2-0.4
	l0.1-0.2l0.1-0.2c0.2-0.2,0.3-0.3,0.4-0.3s0,0.1,0,0.2c0,0.1-0.1,0.2-0.1,0.3c0,0.1-0.1,0.2-0.2,0.3c-0.1,0.3-0.2,0.5-0.3,0.8
	c0,0.1-0.1,0.3-0.1,0.4l0.5-0.4c0.2-0.4,0.4-0.8,0.6-1.2l0.2-0.5l0.1-0.1c0.1-0.3,0.3-0.7,0.5-1.1l0.3-0.1l0,0
	c0.2-0.2,0.3-0.3,0.5-0.5l0,0c-0.2,0-0.3-0.1-0.5-0.1c0.2-0.3,0.3-0.7,0.5-1c0.8-0.1,1.1,0.1,1.3,0.3l0.2-0.1
	c0.6-0.2,1.2-0.3,1.8-0.3c0.3,0,0.7,0,1,0.1c-0.2,0-0.5,0-0.7,0l-0.4,0.1c-0.2,0.1-0.2,0.1-0.2,0.2c0.2,0.1,0.4,0.1,0.6,0.1
	c0.4,0.1,0.8,0.1,1.2,0.3c0.3,0,0.7,0.1,1,0.2l0.7,0.1c-0.4-0.3-0.7-0.5-0.9-0.6s-0.1-0.1,0-0.1l0.3,0.1l0.4,0.2
	c0.4,0.2,0.8,0.4,1.2,0.7l0.3,0.2l0,0c0.4,0,0.7,0.1,1.1,0.1c-0.4,0-0.4,0.2-0.5,0.3l0.1,0.1l0.1,0.1c0.7,0,1.3,0,2,0
	c-0.4-0.6,1.3-0.3,1.8-0.7l0.1,0.1c0-0.2,0.5-0.3,1-0.5l0.1-0.3l0.1-0.2l0.1-0.2l0.1-0.3c0.1-0.1,0.1-0.3,0.2-0.4l0.2-0.3
	c0.2-0.2,0.3-0.4,0.5-0.6c0.3-0.4,0.6-0.7,0.9-1c0.6-0.4,1.2-0.8,1.8-1c0.4-0.2,0.8-0.3,1.2-0.4l0.5-0.1h0.5h0.5h0.5h0.6h0.7
	c0.6,0.1,1.2,0.1,1.8,0.3c0.4,0.1,0.7,0.2,1.2,0.3c0.5,0.2,0.9,0.3,1.3,0.6c-0.5-0.5-0.4-0.6,0-0.4c0.8,0.3,1.5,0.8,2.1,1.4
	c0.4,0.4,0.8,0.8,1.2,1.3c0.4,0.5,0.7,1,0.9,1.6c0.4,0.9,0.7,1.9,0.9,2.9c0.1,1,0,2-0.3,2.9c0,0.1-0.1,0.3-0.1,0.4
	c1.9,0.8,3.9,1.5,6,2.1c0.1-0.5,0.3-1.1,0.4-1.6c0.1-0.7,0.2-1.3,0.2-2v-0.4v-0.3C110.6,125.4,110.5,125.2,110.5,125.2z M69.3,111
	l0.4,1.2l0,0c0.1,0.4,0.3,0.8,0.4,1.2l0,0l0,0C69.8,112.6,69.5,111.8,69.3,111L69.3,111z M70.7,116.2l-0.1,0.1
	c-0.2,0.1-0.3,0.2-0.5,0.3H70c-0.4,0.2-0.7,0.5-1.1,0.7l-0.7,0.3c0.3-0.4,0.8-0.8,1.3-1.1l0.4-0.2c0.1,0,0.2-0.1,0.4-0.2l0.4-0.2
	l0.4-0.2l0,0l0,0l0,0v-0.1l-0.1-0.2v-0.2c0.1,0.2,0.2,0.4,0.3,0.6L70.7,116.2z"/>
<path class="st6" d="M109.9,120.3l-0.1-0.2C109.7,120.2,109.7,120.2,109.9,120.3z M86,121.7l-0.9,0.4l0.4,0.1
	C85.7,122,85.8,121.8,86,121.7z M82.5,122.7c0.2,0.1,0.4,0.2,0.7,0.3l1.9-0.9C83.8,122.1,84,122.7,82.5,122.7L82.5,122.7z
	 M110.2,121.6c0,0,0-0.1,0-0.1l-0.1-0.3H110L110.2,121.6L110.2,121.6z M85.7,122.4l0.2-0.2h-0.3C85.5,122.3,85.6,122.4,85.7,122.4
	L85.7,122.4z M48.5,120.3c-1.6,0.4-3.3,0.6-5,0.6c0.8,0.4,1.4,1,2,1.7c0.2,0.3,0.4,0.6,0.6,0.9c0.1,0.2,0.2,0.5,0.3,0.7l0.1,0.2
	c0,0,0,0.1,0,0.2l0.1,0.3l0.9-0.4c1.3-0.1,2.7-0.1,4,0.1l-0.5,0.1c-7.1,0-4.1,0.9,0.1,2.2c-1.5-0.1-3-0.1-4.6-0.2l0,0v0.2
	c0,0.1,0,0.2,0,0.3c0,0.3,0.1,0.7,0.3,1c0.1,0.1,0.1,0.3,0.2,0.4c0.1,0.1,0.2,0.2,0.2,0.3c0.3,0.3,0.6,0.6,1,0.9
	c0.4,0.2,0.8,0.4,1.2,0.4c0.1,0,0.2,0,0.3-0.1L50,130c0.2-0.1,0.3-0.1,0.7-0.2c0.6-0.1,1.2-0.4,1.6-0.8c0.2-0.2,0.4-0.4,0.6-0.7
	c0.1-0.1,0.1-0.2,0.2-0.4l0.1-0.4c0.3-0.8,0.8-1.5,1.4-2c0.3-0.2,0.6-0.5,1-0.7c0.3-0.2,0.7-0.3,1-0.4c0.4-0.1,0.7-0.2,1.1-0.2
	c0.2,0,0.4,0,0.6,0h0.6c-0.6,0.1-0.5,0.3-0.2,0.4l0.3,0.1l0.2,0.1l0.2,0.1c0.4,0.1,0.8,0.3,1.1,0.5c0.4,0.3,0.8,0.6,1.1,0.9
	c0.4,0.4,0.6,0.8,0.8,1.3l0.2,0.4c0,0.1,0.1,0.2,0.2,0.4l0.1,0.2l0.1,0.2c0.8,1.2,2.1,1.9,3.6,1.8c0.5,0,0.9-0.2,1.3-0.4
	c0.3-0.2,0.6-0.4,0.9-0.6c0.4-0.4,0.7-0.8,0.8-1.3c0.1-0.3,0.2-0.6,0.2-0.9c0-0.1,0-0.2,0-0.3V127v-0.1c-0.1-0.3-0.1-0.7-0.1-1
	c0-0.2,0.1-0.5,0.2-0.7c-1.1,0.1-2.1,0.1-2.5-0.3c0.9-0.2,1.9-0.4,2.8-0.4v-0.1l0.2-0.4l0.1-0.2l0,0c-1.6,0-3.1-0.1-4.6-0.1l3.2-4.5
	c0-0.1,0.1-0.2,0.2-0.3l-0.2,0.3c0,0.2,0.7,0,1.4-0.1c-0.2,0.2-0.3,0.4,0.6,0.4c1.8,0.3,2.8-0.6,4.1-0.5l-0.4,0.1
	c1.3,0.2,2.6,0.1,3.8-0.2c1,0.8-3.6,0.2-1.7,0.9c-1.4-0.3-3.3,0.3-4.4,0.3c0.6,0.1,1.2,0.2,1.8,0.4l0,0c0.6-0.2,1.2-0.3,1.8-0.3
	c0.3,0,0.7,0,1,0.1c-0.2,0-0.5,0-0.7,0l-0.4,0.1c-0.2,0.1-0.2,0.1-0.2,0.2c0.2,0.1,0.4,0.1,0.6,0.1c0.2,0,0.4,0.1,0.6,0.1
	c0.2-0.5-0.7-1.1,1.5-1.3l2.3,0.2l0.8-0.9c1.4,0-0.9,0.7,1.3,0.6c0.6-0.4,2,0,2.4-0.3c-0.1,0.2-0.1,0.4,1,0.4c0.1-0.1,0-0.4,0.8-0.4
	c0.6,0.9-2.2,0.2-1.2,1c0.4,0,0.8,0,1.1-0.1l0,0l0.2-0.3c0.2-0.2,0.3-0.4,0.5-0.6l0,0h-0.4c0-0.1,0.3-0.2,0.5-0.2l0.2-0.2
	c-0.3,0-0.7,0.1-1,0.1c0.7-0.3-1.2-0.6-2-0.6c-1.7,0.4-5.2,0.2-7.5,0.3c0.2,0,0.6-0.1,0.4-0.2c-3.3,0-4.7-0.2-8.5,0l-0.4,0.6
	c-3.3,0-1.6,1.8-2.4,1.9s-1.4,0.4-2,0.1l0.3-0.2c-2.1,0.2-0.7,0.7-2.5,0.6c-1.5,0.4,1.3,0.1,0.4,0.5c-2-0.1-1.2,1.2-4.3,0.7
	c0.2-0.2-0.3-0.7,1.5-0.8l-1.8-0.4c1-0.2,1.9-0.2,2.9-0.2c1-0.6,0.7-1,1.7-1.6c-0.8,0.2-0.7,0.7-1.8,0.6c-1.4-0.2,0.2-0.3,0.4-0.5
	c-1.9,0.7-2.1-0.6-3.8,0c0.3,0.7,0,0.7,1.2,1.2c-1.2,0.2-2.8-0.2-2.6-0.9l-0.2,0.6c-0.3-0.1-1.2-0.2-1.3-0.3l-0.4,0.3
	c1,0.5,2.1,0.7,3.1,0.4c-0.6,0.4,0.8,1-1.1,1.1c-0.9,0-0.1-0.3-0.2-0.5c-4.5,0.4-4.5-1-8-0.6c0.9-0.3,3,0.1,4.7-0.3
	c-0.5-0.2-1-0.2-1.5-0.1l-0.3,0.2c0,0-0.1-0.1-0.1-0.1c-0.5,0.1-0.9,0.2-1.4,0.2c0.9-0.3,1-0.5,0-0.7l-0.4,0.3c-0.6,0-1.7,0-1.8-0.1
	C47.7,120.2,47.9,120.2,48.5,120.3L48.5,120.3z M68.1,125.3c0.3,0,0.6,0,0.9,0.1l-1-0.1L68.1,125.3z M72.4,119l-1.2,0
	C71.6,118.9,72,118.9,72.4,119L72.4,119z M65.2,124.7c0.3,0.1,0.5,0.3,0.6,0.5l-0.9-0.1L65.2,124.7z M53.5,124.4
	c0.1-0.6,2-0.7,2.6-1.2c0.5-0.2,2.7-0.2,2.2,0.3c-1.6-0.2-1.4,1.3-2.9,0.4c-0.2,0.4,0.1,0.6,0.7,0.6c-0.2,0.1-0.3,0.2-0.3,0.3
	l-1.6-0.1C53.8,124.7,53.4,124.6,53.5,124.4L53.5,124.4z M86.7,121.4c-0.2,0.1-0.5,0.2-0.7,0.4L86.7,121.4L86.7,121.4z M55,120
	l0.3-0.2C55,119.9,55,120,55,120z M102.4,119.7L102.4,119.7l1.2-0.2l-0.1-0.1L102.4,119.7z M109.3,119.3h0.3c-0.2-0.5-0.4-1-0.7-1.5
	h-0.3C108.8,118.3,109.1,118.8,109.3,119.3L109.3,119.3z M109.3,121.4l-0.1-0.3c-1.1,0-2.2,0-3,0c0.2-0.3-1.2-0.4-0.9-0.8
	c-0.8,0-1.5,0.1-2.2,0.3c0.2,0.3,0.4,0.7,0.6,1c0.1,0.1,0.1,0.2,0.2,0.4c1.9,0,4.4,0.2,4.3-0.6C108.6,121.3,109,121.4,109.3,121.4
	L109.3,121.4z M108.9,120.2c-0.1-0.2-0.2-0.4-0.3-0.6c-0.9,0.5-2,0.7-3,0.7c0.8,0,2.2,0,3.2,0.1L108.9,120.2z M47.7,120L47.7,120z
	 M47.7,120L47.7,120C47.7,120,47.7,120,47.7,120z M47.7,120c0.1-0.1,0.2-0.1,0.3-0.2C47.9,119.8,47.8,119.9,47.7,120L47.7,120z
	 M105.2,120.3C105.2,120.3,105.2,120.3,105.2,120.3l0.4,0.1L105.2,120.3z M99.3,117.8c-0.5-0.5-0.4-0.6,0-0.4
	c0.8,0.3,1.5,0.8,2.1,1.4c0.2,0.2,0.4,0.4,0.6,0.6c0.5-0.1,1-0.3,1.5-0.4c0.2,0.5,3.3,0.4,5,0.5c-0.2-0.5-0.5-1.1-0.8-1.6
	c-1.5,0-2.9-0.1-4.3-0.4c0.3,0.1,0.7,0.2,0.4,0.4c-1.3,0.2-2.3-0.3-1.7-0.7c-0.8,0.4-2.7,0.1-4.4,0l0.2,0.1
	C98.4,117.4,98.9,117.6,99.3,117.8L99.3,117.8z M11,125.6c-0.2-0.2-1.1-0.1-1.6-0.2C10,125.6,10.5,126.1,11,125.6z M9.7,124.7
	l-0.4,0.1c0.8,0,1.6,0,2.4,0l0,0c0-0.1,0-0.3,0-0.4s0-0.1,0-0.1s0-0.2,0.1-0.3v-0.2l0.1-0.2c0-0.1,0-0.1,0-0.2c0-0.1,0-0.2,0.1-0.3
	s0.2-0.4,0.3-0.6c-0.4,0.1-1.4,0.2-1.2,0.5c-0.4-0.9-3.5-1.2-4.7-1.8v0.2l-0.1,1v0.3h0.2c-0.1,0-0.1,0.1-0.2,0.1c0,0.1,0,0.2,0,0.3
	v0.1c0.5,0.2,2.1,0.2,2.2,0.6c-0.7,0.1-1.5,0-2.2-0.1v0.2c0,0.3,0,0.7,0,1.1C7.3,124.5,8.5,124.5,9.7,124.7L9.7,124.7z M6.1,126.8
	c0,0,0,0.1,0,0.1c0.3,0,0.4,0,0.4-0.1H6.1z M9.7,121.6c3,0.5-0.2-0.6,2-0.6c-1.3-0.2-2-0.7-1.8-0.9C8.6,120.6,12.1,121.2,9.7,121.6z
	 M11.7,121c0.2,0,0.4,0,0.6,0H11.7z M82,122.4l0.2,0.1l0.3,0.2c0.3,0,0.5-0.1,0.6-0.3H82z M5.7,126.9c-0.1,0-0.3,0-0.4,0.1
	c0,0,0,0.1,0,0.1c0.1,0,0.3,0,0.4,0C5.7,127.1,5.7,126.9,5.7,126.9z M110.5,123.2L110.5,123.2c0,0.6,0.1,1.3,0.1,1.9
	C110.6,124.5,110.6,123.9,110.5,123.2z M110.5,125.2c-0.1,0.2-0.1,0.5-0.2,0.8l-0.1,0.5c0,0.2,0,0.3-0.1,0.5c-0.2,0.7-0.3,1.3-0.6,2
	l0,0l0.1-0.4c0,0,0-0.1,0-0.1c0-0.1,0-0.2,0-0.3v-0.2c0-0.1,0-0.2,0-0.3s0-0.1,0-0.1s0-0.3,0-0.4l0,0v-0.4c0,0,0-0.1,0-0.1
	c0-0.1,0-0.2,0-0.3V126c0-0.1,0-0.2,0-0.3v-0.6c0-0.6-0.1-1.3-0.2-1.9c-1,0-2.1,0-3.5,0c-0.6,0.2-1.1,0.6-1.8,0.9
	c0,0.1,0.1,0.3,0.1,0.4c0.1,1,0,2-0.3,2.9c-0.2,0.7-0.6,1.4-1,2.1c-0.2,0.5-0.4,1-0.7,1.4c-0.1,0.1-0.2,0.2-0.2,0.4l-0.2,0.3
	c-0.1,0.1-0.2,0.3-0.3,0.4c0.6-0.2,1.1-0.5,1.5-0.9l0,0l-0.2,0.3l0,0l-0.2,0.3l-0.1,0.1l-0.2,0.2l-0.3,0.3c-1.9,1.9-4.4,3-7.1,3
	H68.9c8.5-0.2,17.4,0,25.8-0.3h0.3h0.3l0.5-0.1c0.3-0.1,0.7-0.1,1-0.2c0.6-0.2,1.2-0.4,1.8-0.6c1.2-0.5,2.2-1.2,3.1-2.1
	c-0.8,0.7-1.7,1.2-2.7,1.6c-1.2,0.5-2.4,0.7-3.7,0.6l-2.2-0.1l-2.3-0.1c-1.6-0.1-3.2-0.1-4.7-0.1c-4.9,0.5,5.6,0.4,5,0.6
	c0.4,0.1-1.1,0.1-2.3,0.2c-2.7-0.1-5.5-0.3-5.6-0.5l-1.7,0.3c-5.7,0-11.7-0.3-18.6-0.3c2-0.3,3.9-0.3,5.9-0.1c5-1-5,0.3-7.3-0.4
	c0.4,0.2-2.9,0.2-4.7,0.2l1.6,0.2l2.3-0.2c4.9,0.2-0.4,0.6-0.6,0.7c-6.5,0.1-6.9-0.8-14.3-0.7c-0.2,0.2,1,0.2,0.5,0.4
	c-1.7,0.2-3.3,0.3-5,0.2c-3.4-0.3-6.1,0.3-10.1,0.1c-1.7-0.4,4.4-0.3,3.6-0.5l-1.9-0.2c-2.1,0-4.9-0.3-6.6,0l-0.1-0.2
	c-0.7,0-1.6,0.1-2.5,0.1h-1.4h-1.3c-0.7,0-1.3-0.1-2-0.3c-0.6-0.2-1.1-0.3-1.4-0.4c-0.9-0.5-1.7-1.2-2.3-1.9
	c-0.7-0.8-1.2-1.7-1.6-2.6c-0.3-0.7-0.4-1.4-0.5-2.1c-0.4,0-0.9,0-1.3,0.1c0,0.4,0.1,0.8,0.1,1.2c0.2,1.2,0.6,2.3,1.2,3.3l0.1,0.1
	c-0.3-0.4-0.5-0.9-0.8-1.3v-0.1c-0.1-0.1-0.1-0.2-0.1-0.3v-0.1c-0.1-0.3-0.3-0.6-0.4-0.9c0,0,0-0.1,0-0.1c0-0.1,0-0.2-0.1-0.2
	c0-0.1,0-0.1,0-0.2l-0.1-0.2c0-0.1,0-0.2,0-0.2c0-0.1,0-0.1,0-0.2c0-0.1-0.1-0.3-0.1-0.4c0-0.1,0-0.1,0-0.2c0,0,0-0.1,0-0.1
	c-1.9,0.2-3.6,0.7-5.6,0.8v0.1c0,0.2,0,0.3,0.1,0.5c0.1,0.7,0.3,1.5,0.5,2.2c0,0.2,0.1,0.4,0.1,0.5L7,131c0,0.1,0.1,0.3,0.1,0.4
	c0,0.1-0.1-0.1-0.3-0.4l-0.1-0.3c0-0.1-0.1-0.2-0.2-0.4s-0.1-0.3-0.2-0.4l-0.2-0.5c-0.2-0.7-0.3-1.3-0.4-2H5.4
	c0.2,1.5,0.6,2.9,1.2,4.3c0.4,0.9,0.9,1.7,1.4,2.5c0.6,0.7,1.2,1.4,1.9,2c0.7,0.7,1.4,1.3,2.2,1.8c0.9,0.6,1.8,1.1,2.8,1.5
	c0.7,0.3,1.3,0.6,2,0.8c0.7,0.2,1.4,0.4,2.1,0.5c0.3,0.1,0.7,0.1,1,0.1l0.8,0.1c0.2,0,0.5,0,0.7,0.1c-0.7,0-1.2,0-1.7,0h-0.6h-0.5
	h-0.5c-0.1,0,0,0,0,0.1c0.5,0.2,1.1,0.3,1.6,0.4l0.7,0.1c0.3,0,0.5,0,0.8,0.1l1.8,0.1c2.5-0.1,3.1-0.1,4.3-0.3
	c-10.5-0.8,11.1,0,18.5-0.5c21.6-0.6,11.3,0.9,32.5,0.6c-3.3-0.3,0.2-0.4,5.4-0.5h8.4h2h1c0.3,0,0.7,0,1-0.1
	c1.1-0.1,2.1-0.4,3.2-0.7c1.2-0.4,2.4-0.9,3.6-1.6c0.9-0.5,1.7-1.1,2.4-1.8c0.7-0.6,1.3-1.3,1.9-2c0.6-0.8,1.2-1.6,1.6-2.5
	c0.2-0.4,0.4-1,0.6-1.6c0.2-0.7,0.4-1.4,0.5-2.2c0.1-0.7,0.2-1.3,0.2-2v-0.4v-0.3C110.6,125.4,110.5,125.2,110.5,125.2z M21.6,135.5
	H21h-0.4h-0.1l-0.4-0.1H20l-0.5-0.1l0,0l-0.5-0.1l0,0c-0.5-0.1-1-0.3-1.4-0.5h0.1C19,135.2,20.3,135.5,21.6,135.5c0.9,0,1.7,0,2.5,0
	L21.6,135.5z M26.8,135.5c2.6-0.1,6.3-0.1,4.7-0.4c7.2,0,16.5,0.2,24.4-0.1c0.7,0.3,3.3,0.1,4.3,0.3c-0.5,0.1,0.2,0.2,1,0.3H26.8z
	 M13.2,125.7L13.2,125.7l-0.4,0.1L13.2,125.7z M5.6,123.4v-0.1H5.5L5.6,123.4c-0.2,0.5-0.3,1-0.3,1.5h0.3
	C5.6,124.2,5.6,123.7,5.6,123.4z M12.3,122.2L12.3,122.2l-0.2-0.2C12.2,122.1,12.3,122.2,12.3,122.2z M59.3,125.4L59.3,125.4
	l0.2,0.1L59.3,125.4z M59.2,125.2h0.3c0.1,0,0.2,0,0.2,0l-0.3-0.1l-0.3-0.1h-0.3c-0.1,0-0.2,0-0.3,0c-0.1,0-0.3,0-0.4,0.1
	c-0.1,0-0.1,0.1-0.1,0.1h0.4h0.4C58.9,125.2,59,125.3,59.2,125.2l0.2,0.1L59.2,125.2c-0.2,0-0.2,0-0.2,0
	C59,125.2,59.1,125.2,59.2,125.2L59.2,125.2z M70.4,125.2l-0.1,0.4v0.2v0.1c0,0.1,0,0.1,0,0.2c0,0.1,0,0.1,0.1,0
	c0-0.1,0.1-0.1,0.1-0.2c0-0.1,0.1-0.2,0.2-0.4s0.1-0.2,0.1-0.3L70.4,125.2C70.4,125.2,70.4,125.2,70.4,125.2L70.4,125.2z
	 M71.4,123.8h-0.5c0,0.1-0.1,0.2-0.1,0.3c-0.1,0.1-0.1,0.2-0.1,0.3h0.5C71.2,124.2,71.3,124,71.4,123.8L71.4,123.8z M45,120.4h1.9
	c-0.5-0.5-0.5,0-1.6-0.1l1.2-0.5C45.5,119.7,44.7,120.3,45,120.4z M42.9,120.3c0.8-0.1,1.3-0.2,0.2-0.4c-0.3,0-0.5,0.1-0.8,0.2
	L42.9,120.3L42.9,120.3z M32.8,133.7c2.6-0.1,5.4,0.1,6.8-0.2C36.5,133.5,35.4,133.6,32.8,133.7z M15,120.2c-1,0.2-2,0.7-2.9,1.3
	c0.3-0.1,0.5-0.1,0.8-0.1l0.1-0.1v0.1c1.3-0.1-0.3,0.7,0.9,1c-0.4,0.2-0.8,0.2-1.2,0c-0.2,0.7-0.3,1.3-0.4,2l-0.1,0.5
	c0.4,0,0.9,0.1,1.2,0.1c0.1-0.9,0.2-1.7,0.5-2.5c0.2-0.5,0.5-1,0.8-1.5h-0.3c0.1,0,0.2-0.1,0.4-0.1C14.7,120.6,14.9,120.4,15,120.2z
	 M28.4,120.3h-0.1l0,0H28.4z M29,121l0.1,0.1l0.1,0.2l0.1,0.2l0.1,0.1v0.1l0.1,0.1c0.2,0.3,0.5,0.6,0.8,0.9l0.3,0.3
	c0,0.1,0.1,0.1,0.1,0.2l0,0c0.4,0,0.8-0.1,1.1-0.2c0.7-0.1,1.4,0.1,2,0.3c0.2-0.1,0.5-0.2,0.7-0.3c0.1-0.1,0.2-0.2,0.3-0.2l0.3-0.2
	l0.2-0.2l0.2-0.2c0.3-0.2,0.6-0.4,0.9-0.6c0.3-0.2,0.6-0.3,0.9-0.4c0.3-0.1,0.6-0.2,0.9-0.3c0.5-0.1,1-0.1,1.5-0.1l0.3-0.2
	c-0.3,0-0.7,0-1-0.1c0.4-0.2,0.2-0.3-0.1-0.4c-0.5,0-1,0-1.5,0l0.3-0.1l0,0c0.2,0,0.3-0.1,0.5-0.1c0,0-0.1-0.1-0.1-0.1l-2.7,0.9
	c-1.3-0.1-2.6-0.1-3.8,0.1c0.5,0,0.9,0,1.4,0c-1.5,0.7-2.8,0.1-4.5,0l0.1,0.1L29,121z"/>
<path class="st7" d="M195.8,105.4V77.9h-30.9v27.4h-6.8V44.7h6.8v27.2h30.9V44.7h6.7v60.7H195.8z"/>
<path class="st7" d="M262.9,75.5c0,10.8-1.7,18.7-5.2,23.5c-3.4,4.8-9.7,7.3-18.8,7.3c-9.1,0-15.4-2.5-18.8-7.4
	c-3.5-5-5.2-12.8-5.2-23.5c0-10.7,1.8-18.6,5.3-23.8s9.7-7.8,18.7-7.8c8.9,0,15.2,2.6,18.7,7.7C261.1,56.7,262.9,64.7,262.9,75.5z
	 M221.9,75.3c0,8.9,1.2,15.3,3.5,19.2c2.3,3.9,6.9,5.8,13.6,5.8c6.7,0,11.2-1.9,13.5-5.7c2.3-3.8,3.5-10.2,3.5-19.1
	c0-8.9-1.2-15.5-3.6-19.5c-2.4-4.1-6.9-6.1-13.5-6.1c-6.6,0-11,2-13.4,6.1C223,60,221.8,66.4,221.9,75.3L221.9,75.3z"/>
<path class="st7" d="M275.2,105.4V44.7h12.2L304.6,96l17.2-51.3H334v60.7h-6.8V51.9H326l-17.6,51.3h-7.5l-17.6-51.3H282v53.5
	L275.2,105.4z"/>
<path class="st7" d="M394.4,75.5c0,10.8-1.7,18.7-5.2,23.5c-3.4,4.8-9.7,7.3-18.8,7.3c-9.1,0-15.4-2.5-18.8-7.4
	c-3.5-5-5.2-12.8-5.2-23.5c0-10.7,1.8-18.6,5.3-23.8c3.5-5.2,9.7-7.8,18.7-7.8c8.9,0,15.2,2.6,18.7,7.7
	C392.6,56.7,394.4,64.7,394.4,75.5z M353.4,75.3c0,8.9,1.2,15.3,3.5,19.2c2.3,3.9,6.8,5.8,13.5,5.8c6.7,0,11.2-1.9,13.5-5.7
	c2.3-3.8,3.5-10.2,3.5-19.1c0-8.9-1.2-15.5-3.6-19.5s-6.9-6.1-13.5-6.1c-6.6,0-11,2-13.4,6.1C354.5,60,353.3,66.4,353.4,75.3
	L353.4,75.3z"/>
<path class="st7" d="M398.7,50.8v-6h43.8v6H424v54.6h-6.7V50.8H398.7z"/>
<path class="st7" d="M451.1,105.4V44.7H488v6h-30.1v21h24.9v5.8h-24.9v21.9H488v6L451.1,105.4z"/>
<path class="st7" d="M535.5,104.4c-5.3,1.1-10.8,1.8-16.2,1.8c-4,0.1-7.9-0.5-11.6-2c-2.9-1.3-5.3-3.4-6.8-6.1
	c-1.7-3-2.8-6.2-3.3-9.6c-0.7-4.5-1-9-0.9-13.5c-0.1-4.5,0.2-9.1,0.9-13.5c0.5-3.4,1.6-6.7,3.3-9.7c1.5-2.7,3.9-4.9,6.8-6.1
	c3.6-1.4,7.5-2.1,11.4-1.9c5.5,0.1,11.1,0.7,16.5,1.9l-0.3,5.7c-5.2-1-10.5-1.5-15.8-1.6c-6.4,0-10.7,1.9-12.8,5.7
	s-3.1,10.4-3.1,19.6c0,3.7,0.1,7.4,0.6,11.1c0.3,2.6,1.1,5.2,2.2,7.6c1,2.1,2.7,3.8,4.9,4.8c2.1,1,5.3,1.4,9.4,1.4
	c4.9-0.1,9.8-0.6,14.6-1.6L535.5,104.4z"/>
<path class="st7" d="M584.2,105.4V77.9h-30.9v27.4h-6.8V44.7h6.8v27.2h30.9V44.7h6.7v60.7H584.2z"/>
<path class="st7" d="M622.5,49.7c-8.8,0-13.1,3.3-13.2,9.9c0,3.7,1,6.2,3,7.6s6.1,2.8,12.3,4.1s10.5,3.2,13.1,5.3s3.9,5.8,3.9,10.8
	c0,12.4-6.5,18.7-19.4,18.7c-5.4-0.1-10.7-0.6-16-1.5l-3.2-0.4l0.7-5.6c6,0.9,12.1,1.4,18.2,1.6c8.7,0,13-4.1,13-12.2
	c0-3.3-1-5.6-2.8-7.1c-1.9-1.4-5.4-2.7-10.7-3.6c-6.8-1.5-11.7-3.3-14.6-5.7s-4.3-6.2-4.3-11.6c0-10.9,6.5-16.3,19.6-16.3
	c5.1,0.1,10.3,0.5,15.3,1.3l3,0.4l-0.6,5.7C634.1,50.4,628.3,49.9,622.5,49.7z"/>
<path class="st7" d="M659.6,87.1c0,8.8,4.7,13.2,14.2,13.2c4.9,0,8.6-1,11.1-3.1s3.7-5.4,3.7-10V44.7h6.7V87
	c0,6.8-1.8,11.7-5.4,14.7c-3.6,3-8.9,4.6-15.9,4.5c-7,0-12.3-1.5-15.8-4.6c-3.5-3-5.3-7.9-5.3-14.7V44.7h6.8V87.1z"/>
<path class="st7" d="M703.8,105.4l16.7-60.7h14.7l16.7,60.7h-6.7l-4.4-15.6h-25.9l-4.4,15.6H703.8z M725.5,50.5l-9.2,33.2h23
	l-9.2-33.2L725.5,50.5z"/>
<path class="st7" d="M794.8,105.4h-33.4V44.7h6.8v54.6h26.6V105.4z"/>
</svg>
