<?xml version="1.0" encoding="UTF-8" standalone="no"?>
<svg version="1.1" x="0px" y="0px" viewBox="0 0 511.97812 48.244755" xml:space="preserve" id="svg1" sodipodi:docname="WebsiteBannerLogo.svg" width="511.97812" height="48.244755" inkscape:version="1.3.2 (091e20e, 2023-11-25, custom)"
	xmlns:inkscape="http://www.inkscape.org/namespaces/inkscape"
	xmlns:sodipodi="http://sodipodi.sourceforge.net/DTD/sodipodi-0.dtd"
	xmlns="http://www.w3.org/2000/svg"
	xmlns:svg="http://www.w3.org/2000/svg">
	<defs id="defs1" />
	<sodipodi:namedview id="namedview1" pagecolor="#ffffff" bordercolor="#000000" borderopacity="0.25" inkscape:showpageshadow="2" inkscape:pageopacity="0.0" inkscape:pagecheckerboard="0" inkscape:deskcolor="#d1d1d1" inkscape:zoom="1.5065104" inkscape:cx="255.55748" inkscape:cy="23.896283" inkscape:window-width="1704" inkscape:window-height="1360" inkscape:window-x="-7" inkscape:window-y="1085" inkscape:window-maximized="0" inkscape:current-layer="svg1" />
	<g id="logo-group" stroke-width="0" stroke-miterlimit="2" transform="matrix(1.1147,0,0,1.1147,-314.7429,-403.93383)">
		<path id="path12" style="font-variant-ligatures:normal" d="m 296.84,376.08 c -7.9857,0 -14.483,6.497 -14.483,14.483 h 8.8534 c 0,-3.1039 2.5254,-5.6292 5.6292,-5.6292 3.1039,0 5.6292,2.5254 5.6292,5.6292 v 14.453 h 8.8534 v -14.453 c -1e-5,-7.9857 -6.497,-14.483 -14.483,-14.483 z" class="c1" fill="#fcfcfc" />
		<rect id="rect14" style="font-variant-ligatures:normal" height="42.651001" width="8.8534002" y="362.37" x="282.35999" class="c3" fill="#e3594f" />
		<path id="path16" style="font-variant-ligatures:normal" d="m 291.21,390.57 v -13.344 c -5.1976,2.201 -8.8534,7.3534 -8.8534,13.344" class="c2" fill="#efaaa5" />
		<path id="path19" style="font-variant-ligatures:normal" d="m 338.26,405.62 c -8.1507,0 -14.782,-6.6314 -14.782,-14.783 0,-8.1511 6.6314,-14.783 14.782,-14.783 8.1515,0 14.783,6.6314 14.783,14.783 0,8.1511 -6.6314,14.783 -14.783,14.783 z m 0,-20.712 c -3.2689,0 -5.9287,2.6598 -5.9287,5.9291 0,3.2693 2.6598,5.9291 5.9287,5.9291 3.2697,0 5.9295,-2.6598 5.9295,-5.9291 -1e-5,-3.2693 -2.6598,-5.9291 -5.9295,-5.9291 z" class="c1" fill="#fcfcfc" />
		<path id="path22" style="font-variant-ligatures:normal" d="m 378.96,376.05 c -7.5652,0 -13.719,6.1547 -13.719,13.719 v 15.216 h 8.8534 v -15.216 c 0,-2.683 2.1827,-4.8661 4.8661,-4.8661 2.6834,0 4.8669,2.1831 4.8669,4.8661 v 15.216 h 8.8534 v -15.216 c 0,-7.5648 -6.1551,-13.719 -13.72,-13.719 z" class="c1" fill="#fcfcfc" />
		<path id="path24" style="font-variant-ligatures:normal" d="m 397.51,376.05 c -7.5652,0 -13.719,6.1547 -13.719,13.719 v 15.216 h 8.8534 v -15.216 c 0,-2.683 2.1827,-4.8661 4.8661,-4.8661 2.6834,0 4.8668,2.1831 4.8668,4.8661 v 15.216 h 8.8534 v -15.216 c 0,-7.5648 -6.1551,-13.719 -13.72,-13.719 z" class="c3" fill="#e3594f" />
		<path id="path26" style="font-variant-ligatures:normal" d="m 392.66,389.39 c -0.10582,-3.8341 -1.7891,-7.2726 -4.4269,-9.7008 -2.6376,2.4284 -4.3208,5.867 -4.4265,9.7012 0.01,0.12571 0.0193,0.25156 0.0193,0.37978 v 15.216 h 8.8149 v -15.216 c 0,-0.12831 0.009,-0.25431 0.0193,-0.38017 z" class="c2" fill="#efaaa5" />
		<path id="path29" style="font-variant-ligatures:normal" d="m 438.2,405.62 c -8.1507,0 -14.782,-6.6314 -14.782,-14.783 0,-8.1511 6.6314,-14.783 14.782,-14.783 8.1515,0 14.783,6.6314 14.783,14.783 0,8.1511 -6.6314,14.783 -14.783,14.783 z m 0,-20.712 c -3.2689,0 -5.9287,2.6598 -5.9287,5.9291 0,3.2693 2.6598,5.9291 5.9287,5.9291 3.2697,0 5.9295,-2.6598 5.9295,-5.9291 -1e-5,-3.2693 -2.6598,-5.9291 -5.9295,-5.9291 z" class="c1" fill="#fcfcfc" />
		<rect id="rect32" style="font-variant-ligatures:normal" height="7.2437" width="15.408" y="376.88" x="465.35001" class="c3" fill="#e3594f" />
		<path id="path34" style="font-variant-ligatures:normal" d="m 476.28,405.65 c -6.0223,0 -10.921,-4.8995 -10.921,-10.921 v -27.937 h 8.8534 v 27.937 c 0,1.1401 0.92747,2.068 2.0679,2.068 0.54313,0 0.94633,-0.20397 1.1884,-0.37532 l 5.1105,7.2296 c -1.8502,1.3079 -4.0282,1.9992 -6.2989,1.9992 z" class="c1" fill="#fcfcfc" />
		<rect id="rect36" style="font-variant-ligatures:normal" height="7.2437" width="8.8534002" y="376.88" x="465.35001" class="c2" fill="#efaaa5" />
		<path id="path39" style="font-variant-ligatures:normal" d="m 513.14,390.82 v -0.0805 c -0.008,-0.65192 -0.1368,-1.3039 -0.36219,-1.9317 -0.35414,-0.96579 -0.9256,-1.7868 -1.658,-2.4226 -1.5695,-1.3763 -3.8392,-1.8914 -5.9398,-1.1268 -2.1087,0.77268 -3.5172,2.6158 -3.8392,4.6842 v 0.008 c -0.13681,0.95778 -0.0564,1.9477 0.2978,2.9136 0.33807,0.94167 0.90948,1.7465 1.6097,2.3823 1.5775,1.4085 3.8633,1.9317 5.9881,1.151 1.7385,-0.62782 3.0665,-2.0121 3.6218,-3.7828 l 8.451,2.6641 c -1.4004,4.4267 -4.7003,7.8554 -9.0466,9.4409 -6.7607,2.4628 -14.182,-0.33802 -17.747,-6.294 -0.46682,-0.7968 -0.86925,-1.6419 -1.1992,-2.5353 -0.33002,-0.90948 -0.56341,-1.8351 -0.71634,-2.7607 -1.0785,-6.8413 2.8009,-13.731 9.5536,-16.186 6.7366,-2.4548 14.141,0.32197 17.715,6.2618 0.35414,0.59558 0.6841,1.2314 0.95778,1.8994 0.0966,0.22539 0.1851,0.45073 0.26562,0.67611 0.0805,0.22532 0.15292,0.44266 0.22533,0.66799 0.20927,0.6761 0.37831,1.3602 0.48294,2.0444 l -0.0725,0.0241 -8.6522,3.155 c 0.0403,-0.28166 0.0644,-0.56334 0.0644,-0.85313 z" class="c1" fill="#fcfcfc" />
		<path id="path41" style="font-variant-ligatures:normal" d="m 521.73,388.52 v 0.008 l -8.6522,3.147 -9.8273,3.5736 -8.7327,3.1792 c -0.46682,-0.7968 -0.86925,-1.6419 -1.1992,-2.5353 -0.33002,-0.90948 -0.56341,-1.8351 -0.71634,-2.7607 l 8.7407,-3.1791 v -0.008 l 9.779,-3.5574 8.6683,-3.1551 c 0.39437,0.58757 0.74851,1.2153 1.0382,1.8753 0.0966,0.22538 0.1851,0.45072 0.26562,0.6761 0.0805,0.22533 0.15292,0.44266 0.22533,0.66799 0.19315,0.67608 0.33807,1.3682 0.41048,2.0685 z" class="c3" fill="#e3594f" />
		<path id="path43" style="font-variant-ligatures:normal" d="m 511.13,386.39 c 0.72773,0.6345 1.3001,1.454 1.6524,2.422 0.22848,0.62776 0.35311,1.2762 0.36087,1.9328 l -5.4e-4,10e-5 c 3.4e-4,0.0272 5.4e-4,0.0545 5.4e-4,0.0818 0,0.28792 -0.0207,0.57107 -0.0603,0.84799 l 8.5726,-3.1202 0.0748,-0.0272 c -0.096,-0.94147 -0.30654,-1.8584 -0.6286,-2.7433 -0.33311,-0.91519 -0.77666,-1.7644 -1.3082,-2.5473 z" class="c2" fill="#efaaa5" />
		<path id="path45" style="font-variant-ligatures:normal" d="m 501.64,392.87 c -0.35232,-0.96809 -0.43313,-1.9664 -0.29107,-2.9175 l -8.7368,3.1799 c 0.14565,0.92634 0.37586,1.852 0.70838,2.7656 0.32678,0.89775 0.73853,1.7397 1.212,2.531 l 8.7207,-3.1741 c -0.70223,-0.63524 -1.2691,-1.4396 -1.6132,-2.385 z" class="c2" fill="#efaaa5" />
		<path id="path48" style="font-variant-ligatures:normal" d="m 547.84,405.62 c -8.1511,0 -14.783,-6.6314 -14.783,-14.783 0,-8.1511 6.6314,-14.783 14.783,-14.783 4.8873,0 9.4523,2.4114 12.212,6.4502 l -7.3105,4.9942 c -1.1082,-1.6223 -2.9408,-2.591 -4.9014,-2.591 -3.2693,0 -5.9291,2.6598 -5.9291,5.9291 0,3.2693 2.6598,5.9291 5.9291,5.9291 1.8938,0 3.6297,-0.87323 4.7623,-2.3957 l 7.103,5.285 c -2.7789,3.7346 -7.2146,5.9641 -11.865,5.9641 z" class="c1" fill="#fcfcfc" />
		<path id="path51" style="font-variant-ligatures:normal" d="m 586.86,376.08 c -7.9857,0 -14.483,6.497 -14.483,14.483 h 8.8534 c 0,-3.1039 2.5254,-5.6292 5.6292,-5.6292 3.1039,0 5.6292,2.5254 5.6292,5.6292 v 14.453 h 8.8534 v -14.453 c -1e-5,-7.9857 -6.497,-14.483 -14.483,-14.483 z" class="c1" fill="#fcfcfc" />
		<rect id="rect53" style="font-variant-ligatures:normal" height="42.651001" width="8.8534002" y="362.37" x="572.38" class="c3" fill="#e3594f" />
		<path id="path55" style="font-variant-ligatures:normal" d="m 581.23,390.57 v -13.344 c -5.1976,2.201 -8.8534,7.3534 -8.8534,13.344" class="c2" fill="#efaaa5" />
		<path id="path58" style="font-variant-ligatures:normal" d="m 631.46,386.13 4.2726,-6.4797 c -3.3173,-2.2437 -6.0267,-3.5936 -10.667,-3.5936 -3.9956,0 -10.639,2.2036 -10.639,8.9697 0,10.112 13.186,8.7409 13.186,11.828 0,0.76388 -0.77477,1.6412 -2.5466,1.6412 -1.77183,0 -5.73,-1.3962 -7.4135,-3.254 l -4.2726,6.0836 c 0,0 4.2912,4.2624 11.81,4.2624 7.5185,0 11.251,-4.41 11.251,-9.0681 0,-9.6982 -13.384,-8.756 -13.384,-11.889 0,-0.43332 0.18428,-1.4431 1.9524,-1.4431 1.76812,0 3.5052,0.49634 6.4514,2.9428 z" class="c1" fill="#fcfcfc" />
		<path id="path61" style="font-variant-ligatures:normal" d="m 668.77,376.65 v 14.453 c 0,3.1039 -2.5254,5.6293 -5.6293,5.6293 -3.1039,0 -5.6293,-2.5254 -5.6293,-5.6293 V 376.65 h -8.8534 v 14.453 c 0,7.9857 6.497,14.483 14.483,14.483 7.9857,0 14.483,-6.497 14.483,-14.483 V 376.65 Z" class="c1" fill="#fcfcfc" />
		<path id="path64" style="font-variant-ligatures:normal" d="m 704.53,405.62 c -8.1511,0 -14.783,-6.6314 -14.783,-14.783 0,-8.1511 6.6314,-14.783 14.783,-14.783 8.1515,0 14.783,6.6314 14.783,14.783 0,8.1511 -6.6314,14.783 -14.783,14.783 z m 0,-20.712 c -3.2693,0 -5.9291,2.6598 -5.9291,5.9291 0,3.2693 2.6598,5.9291 5.9291,5.9291 3.2697,0 5.9295,-2.6598 5.9295,-5.9291 0,-3.2693 -2.6598,-5.9291 -5.9295,-5.9291 z" class="c1" fill="#fcfcfc" />
		<rect id="rect66" style="font-variant-ligatures:normal" height="14.153" width="8.8534002" y="390.82999" x="710.46002" class="c3" fill="#e3594f" />
		<path id="path68" style="font-variant-ligatures:normal" d="m 719.31,390.83 h -8.8534 v 13.532 c 5.2056,-2.2901 8.8534,-7.4898 8.8534,-13.532 z" class="c2" fill="#efaaa5" />
		<rect id="rect71" style="font-variant-ligatures:normal" height="42.651001" width="8.8534002" y="362.37" x="732.79999" class="c1" fill="#fcfcfc" />
	</g>

</svg>